<svg preserveAspectRatio="none" width="100%" height="100%" overflow="visible" style="display: block;" viewBox="0 0 310 203" fill="none" xmlns="http://www.w3.org/2000/svg">
<g id="file (5) 1">
<path id="Vector" d="M79.8898 106.046C83.1019 99.4888 88.3397 95.2897 94.8367 92.4601C94.1311 91.2941 93.3515 90.2843 92.8628 89.1497C90.7896 84.337 91.0556 79.4018 93.1369 74.7812C96.9517 66.312 99.5215 57.4163 102.719 48.7385C105.01 42.5243 108.443 36.9259 114.105 33.1022C124.032 26.3985 139.18 27.2581 147.183 36.0862C150.662 39.924 152.651 44.4767 153.281 49.6241C153.588 52.1302 153.522 54.6455 153.579 57.1587C153.696 62.3343 154.189 67.4819 154.654 72.6354C155.155 78.195 155.543 83.7726 153.784 89.2343C152.913 91.9399 151.468 94.2353 149.053 96.0626C151.633 98.0695 153.824 100.261 155.784 102.692C159.958 107.868 161.789 114.029 163.218 120.332C164.225 124.773 164.978 129.272 165.907 134.068C167.936 131.844 169.818 129.785 171.694 127.72C172.13 127.239 172.476 126.66 173.302 126.847C173.774 126.953 174.001 126.515 174.25 126.212C176.264 123.759 178.236 121.272 180.288 118.851C183.337 115.254 187.053 113.265 191.964 114.039C195.753 114.636 195.759 114.564 195.766 110.775C195.773 106.647 195.769 102.519 195.814 98.3912C195.844 95.7582 196.706 93.475 198.782 91.7147C199.772 90.8752 200.819 90.2364 202.142 90.158C206.52 89.8984 210.927 89.4857 215.266 90.2461C220.722 91.2025 222.526 93.657 222.631 99.2013C222.755 105.741 223.024 112.278 223.19 118.817C223.215 119.774 223.525 120.189 224.513 120.164C225.671 120.134 226.841 120.129 227.99 120.253C232.953 120.791 237.061 125.486 237.156 130.488C237.433 144.933 237.369 159.38 237.456 173.826C237.486 178.807 234.741 181.567 230.319 181.333C228.877 181.257 228.973 182.343 228.755 183.174C229.107 183.656 229.543 183.555 229.926 183.536C236.328 183.214 242.733 183.483 249.136 183.431C249.534 183.428 249.938 183.506 250.332 183.585C250.654 183.649 250.879 183.864 250.865 184.214C250.852 184.548 250.638 184.813 250.329 184.866C249.837 184.95 249.329 184.969 248.828 184.969C242.572 184.975 236.315 184.912 230.06 184.998C226.71 185.044 223.414 185.346 220.005 185.133C211.964 184.631 203.871 184.976 195.798 184.968C195.035 184.968 194.292 185.011 193.574 185.3C192.904 185.571 192.178 185.712 191.501 185.459C189.84 184.839 188.124 184.974 186.416 184.974C145.55 184.971 104.683 184.975 63.8166 184.944C63.0327 184.944 61.604 185.485 61.616 184.203C61.6261 183.134 63.0083 183.569 63.783 183.565C70.7926 183.526 77.8027 183.509 84.8121 183.563C86.0186 183.572 86.5547 183.146 86.7336 182.018C87.536 176.96 88.3625 171.906 89.1675 166.849C89.2038 166.621 89.1162 166.374 89.0677 165.988C86.8025 166.229 84.6297 166.601 82.4192 166.589C75.9504 166.556 71.9916 163.03 70.9954 156.674C70.0924 150.913 70.8879 145.271 71.5752 139.579C72.6271 130.868 74.5593 122.364 77.1194 113.988C77.9282 111.341 78.7873 108.712 79.8898 106.046ZM98.8361 125.323C97.7651 130.669 96.6941 136.014 95.5865 141.542C98.4039 140.934 101 140.351 103.606 139.817C106.273 139.27 108.451 137.923 110.313 135.974C111.635 134.59 113.005 133.248 114.395 131.932C116.727 129.725 119.286 127.815 122.489 127.136C124.041 126.807 124.62 125.959 124.96 124.561C126.027 120.166 127.171 115.791 128.3 111.412C128.82 109.396 129.51 108.944 131.521 108.622C134.865 108.087 138.244 108.098 141.603 107.821C144.713 107.564 147.847 107.598 150.97 107.485C152.072 107.446 152.443 107.864 152.091 108.95C151.831 109.749 151.685 110.586 151.495 111.381C153.753 112.37 153.897 112.434 153.354 113.644C152.253 116.095 152.32 118.472 153.262 120.931C153.599 121.812 153.73 122.78 153.9 123.718C155.072 130.201 154.434 136.673 153.349 143.061C152.395 148.681 152.338 154.24 153.014 159.855C153.17 161.148 153.758 162.027 154.918 162.707C158.797 164.979 162.212 163.645 165.47 161.414C167.864 159.774 169.592 157.438 171.455 155.252C174.738 151.399 176.851 146.75 180.002 142.805C180.68 141.957 180.355 141.139 179.558 140.431C176.56 137.772 174.476 134.471 172.883 130.833C172.728 130.48 172.697 130.033 172.179 129.848C172.047 129.937 171.861 130.019 171.731 130.155C167.7 134.386 163.675 138.622 159.649 142.858C159.269 143.258 158.916 143.689 158.511 144.063C158.277 144.279 157.942 144.294 157.666 144.107C157.317 143.872 157.281 143.497 157.459 143.17C157.649 142.822 157.917 142.507 158.191 142.215C159.948 140.341 161.708 138.468 163.486 136.613C163.996 136.081 164.385 135.544 164.252 134.751C163.327 129.208 162.704 123.616 161.305 118.15C159.221 110.008 155.372 102.995 148.602 97.7917C146.043 95.8243 143.227 94.3096 140.114 93.1925C139.308 96.1304 137.285 97.8214 134.816 99.0139C132.619 100.075 130.244 100.596 127.802 100.667C122.764 100.812 118.179 99.1959 113.799 96.9049C111.216 95.5534 108.866 93.9195 107.864 90.9665C107.625 90.262 107.172 90.1038 106.444 90.331C103.703 91.186 100.938 91.9612 98.1979 92.8184C88.2703 95.9243 81.9272 102.525 79.018 112.464C76.2211 122.018 73.723 131.635 72.7557 141.583C72.2789 146.486 71.517 151.404 72.4769 156.306C73.6457 162.274 75.7727 164.065 80.6786 165.026C82.9749 165.476 85.2977 165.081 87.59 164.697C94.269 163.578 100.214 160.616 106.043 157.368C106.809 156.941 107.68 156.62 108.284 155.698C103.206 152.153 102.646 147.073 103.541 141.447C97.729 142.867 92.0538 143.724 86.4325 144.857C85.7911 144.986 84.8806 145.484 84.7124 144.403C84.5566 143.403 85.5608 143.471 86.213 143.347C88.1409 142.98 90.0638 142.513 92.0111 142.347C93.6014 142.21 94.0513 141.409 94.3436 140.011C95.8247 132.933 97.3072 125.856 98.5956 118.74C98.7094 118.111 98.8762 117.424 99.6729 117.618C100.373 117.788 100.215 118.448 100.1 119.015C99.6911 121.033 99.3042 123.055 98.8361 125.323ZM150.574 183.395C151.129 183.404 151.685 183.392 152.238 183.425C154.065 183.535 154.14 183.535 153.982 181.681C153.748 178.933 153.403 176.194 153.087 173.452C152.508 168.416 151.862 163.386 151.345 158.343C150.898 153.986 150.692 149.61 151.494 145.266C152.639 139.061 153.232 132.82 152.766 126.515C152.615 124.474 152.344 122.425 151.454 120.274C151.309 120.724 151.237 120.909 151.188 121.101C149.476 127.819 147.734 134.53 146.082 141.263C145.768 142.542 145.183 143.006 143.896 142.954C142.134 142.883 140.365 143.01 138.601 142.964C137.37 142.933 136.319 143.026 135.763 144.375C135.533 144.934 134.86 145.143 134.332 145.44C132.474 146.484 130.48 147.197 128.445 147.781C126.334 148.387 124.402 149.3 122.648 150.628C120.902 151.949 118.966 152.867 116.795 153.329C115.222 153.663 113.685 154.168 112.141 154.629C111.726 154.753 111.03 154.829 111.075 155.31C111.176 156.364 110.374 156.557 109.775 156.923C104.215 160.323 98.4949 163.393 92.1511 165.107C91.1534 165.377 90.6994 165.815 90.5558 166.929C90.1063 170.413 89.4145 173.865 88.9418 177.347C88.6695 179.353 88.0198 181.327 88.1627 183.519C108.946 183.5 129.614 183.686 150.574 183.395ZM182.005 151.797C182.013 159.495 182.01 167.194 182.036 174.893C182.046 178.07 183.729 179.743 186.862 179.749C190.688 179.756 194.515 179.744 198.341 179.743C206.661 179.742 214.982 179.741 223.302 179.742C226.185 179.742 227.837 178.183 227.842 175.238C227.87 160.394 227.91 145.549 227.818 130.706C227.795 126.988 224.822 122.294 219.696 121.775C215.966 121.398 212.242 121.673 208.519 121.546C207.858 121.524 207.548 121.806 207.321 122.423C206.757 123.952 205.565 124.678 204.034 125.244C202.511 125.808 200.871 125.745 199.367 126.664C197.986 127.507 196.086 126.971 194.419 126.964C193.701 126.962 193.208 126.31 192.703 125.81C192.403 125.514 192.321 124.986 191.738 124.894C191.389 126.479 190.249 127.355 188.917 128.055C187.573 128.762 186.141 129.242 184.687 129.66C182.366 130.326 181.629 131.159 181.765 133.539C182.106 139.523 181.904 145.51 182.005 151.797ZM139.758 87.0609C144.442 85.0728 147.01 81.2766 148.509 76.6568C150.766 69.7049 150.735 62.5041 150.614 55.3098C150.592 54.019 150.084 52.8767 149.071 51.9817C147.372 50.4812 145.761 48.8769 144.01 47.441C141.961 45.7597 140.048 43.8875 137.657 42.4599C137.221 43.0001 136.86 43.4732 136.473 43.9242C131.713 49.4692 126.069 53.8564 119.355 56.8065C118.477 57.1922 117.828 57.5749 117.507 58.5652C117.14 59.6946 116.326 60.5842 115.168 60.9883C114.144 61.3458 113.9 60.1918 113.24 59.8165C112.52 59.4072 111.768 59.1288 110.969 59.0516C109.36 58.8962 107.81 59.7537 107.636 61.0465C107.34 63.2471 107.286 65.4751 108.274 67.5615C109.019 69.1366 111.162 70.6376 112.388 70.5143C114.232 70.3289 114.591 70.5861 114.404 72.5074C114.127 75.3628 114.377 78.2407 113.914 81.0858C113.357 84.5118 112.79 87.9073 109.154 89.6964C109.513 91.7852 110.848 93.1244 112.419 94.2529C115.968 96.8019 119.99 98.2847 124.267 98.9158C127.747 99.4295 131.227 99.1112 134.446 97.4832C135.897 96.7495 137.202 95.7866 138.012 94.3207C138.341 93.7263 138.496 93.0286 137.912 92.5185C137.515 92.1717 136.975 91.9043 136.387 92.1672C134.868 92.8461 134.689 92.7896 134.706 91.0974C134.718 89.8606 134.279 89.4899 133.057 89.3967C131.253 89.2591 129.498 88.7225 127.794 88.0896C125.124 87.0974 122.658 85.7505 120.599 83.7509C120.233 83.3953 119.591 82.9842 120.162 82.385C120.689 81.8312 121.174 82.3592 121.611 82.6698C122.021 82.9614 122.391 83.3098 122.803 83.5987C127.874 87.1574 133.294 89.0985 139.758 87.0609ZM154.032 167.945C154.587 172.732 155.163 177.517 155.677 182.308C155.774 183.211 156.151 183.594 157.015 183.517C159.434 183.302 161.854 183.528 164.27 183.491C171.834 183.373 179.397 183.316 186.961 183.504C187.31 183.513 187.68 183.556 187.871 183.151C187.82 181.934 187.345 181.356 185.97 181.24C182.961 180.986 180.794 178.916 180.635 176.407C180.528 174.701 180.445 172.99 180.435 171.281C180.387 163.076 180.372 154.871 180.327 146.667C180.325 146.263 180.532 145.777 180.073 145.421C179.944 145.534 179.806 145.613 179.726 145.732C179.166 146.568 178.592 147.397 178.069 148.257C175 153.304 171.791 158.275 167.183 162.076C163.315 165.268 158.977 166.509 154.153 164.088C154.04 164.032 153.875 164.081 153.679 164.081C153.458 165.329 153.986 166.486 154.032 167.945ZM138.357 134.247C137.683 133.285 136.721 133.045 135.596 133.005C131.753 132.868 127.95 133.323 124.143 133.709C123.553 133.769 122.936 133.916 122.817 133.175C122.675 132.286 123.445 132.324 124.033 132.231C128.079 131.593 132.151 131.501 136.236 131.586C136.819 131.599 137.678 132.006 137.906 131.077C138.134 130.149 137.399 129.737 136.669 129.447C136.252 129.281 135.804 129.183 135.363 129.087C132.437 128.448 129.452 128.573 126.49 128.378C123.13 128.157 120.259 129.228 117.62 131.185C116.111 132.303 114.872 133.698 113.529 134.986C111.639 136.798 109.849 138.854 107.433 139.873C105.344 140.754 104.875 142.196 104.836 144.101C104.815 145.106 104.783 146.116 104.844 147.118C105.016 149.946 106.347 152.18 108.498 153.964C108.888 154.288 109.261 154.558 109.838 154.176C111.55 153.042 113.548 152.643 115.496 152.15C118.169 151.474 120.661 150.449 122.804 148.678C123.992 147.695 125.362 147.097 126.845 146.708C129.239 146.079 131.593 145.339 133.709 144.004C134.19 143.7 134.752 143.457 134.92 142.822C134.535 142.623 134.259 142.78 133.972 142.861C130.769 143.769 127.465 144.185 124.209 144.836C123.689 144.94 123.116 144.984 122.99 144.326C122.867 143.687 123.401 143.485 123.918 143.369C124.359 143.271 124.802 143.169 125.249 143.106C128.894 142.586 132.443 141.63 135.998 140.71C136.806 140.501 137.635 140.013 137.536 139.1C137.436 138.179 136.482 138.127 135.725 138.122C133.308 138.104 130.888 137.983 128.482 138.364C127.091 138.584 125.692 138.76 124.291 138.908C123.845 138.955 123.318 138.884 123.261 138.283C123.212 137.777 123.651 137.604 124.043 137.512C124.628 137.375 125.232 137.314 125.825 137.206C129.406 136.553 133.005 136.232 136.643 136.613C137.203 136.671 137.792 137.186 138.303 136.515C138.802 135.859 138.976 135.17 138.357 134.247ZM225.542 122.813C228.013 125.256 229.331 128.103 229.308 131.685C229.224 144.561 229.305 157.437 229.257 170.313C229.245 173.428 229.925 176.658 227.933 179.532C228.969 179.88 229.833 179.672 230.676 179.751C233.543 180.023 235.901 177.927 235.863 174.555C235.702 160.07 235.737 145.584 235.737 131.098C235.737 127.613 234.053 125.045 231.415 123.063C229.401 121.551 226.982 121.566 224.197 121.654C224.802 122.177 225.094 122.43 225.542 122.813ZM201.878 96.5259C201.21 97.285 201.323 98.2217 201.326 99.1136C201.344 103.988 201.425 108.862 201.391 113.736C201.383 114.901 201.806 115.445 202.857 115.811C204.566 116.406 206.015 117.425 206.845 119.078C207.277 119.94 207.863 120.179 208.763 120.161C210.978 120.117 213.195 120.153 215.41 120.147C217.302 120.143 217.325 120.118 217.247 118.178C216.975 111.357 216.679 104.536 216.443 97.7125C216.4 96.4436 215.861 95.9556 214.638 95.8206C211.174 95.4381 207.701 95.5451 204.23 95.4933C203.372 95.4805 202.664 95.7957 201.878 96.5259ZM190.886 118.484C190.883 117.364 191.694 117.502 192.36 117.616C193.957 117.888 195.296 118.612 196.251 119.985C197.434 121.682 197.887 123.567 197.698 125.64C199.789 125.062 200.392 124.095 199.888 122.159C199.195 119.494 197.278 118.093 194.763 117.317C193.605 116.96 192.028 117.396 191.545 115.644C191.5 115.48 190.808 115.437 190.415 115.435C187.16 115.414 184.345 116.579 182.213 118.991C179.547 122.009 177.077 125.198 174.499 128.295C173.98 128.918 173.927 129.506 174.247 130.23C175.522 133.107 177.19 135.729 179.27 138.09C179.489 138.339 179.686 138.679 180.335 138.558C180.335 136.758 180.333 134.918 180.336 133.077C180.339 130.27 181.87 128.469 184.624 127.974C186.28 127.676 187.841 127.096 189.188 126.073C189.929 125.511 190.526 124.789 190.216 123.748C189.899 122.679 189.024 122.289 188.024 122.18C187.482 122.12 186.913 122.172 186.372 122.264C184.978 122.498 183.609 122.836 182.29 123.357C181.781 123.558 181.171 123.886 180.849 123.171C180.532 122.464 181.149 122.199 181.662 121.981C183.059 121.388 184.505 120.901 186.017 120.774C187.883 120.616 189.567 120.768 191.236 122.112C192.237 122.918 192.971 123.801 193.727 124.752C194.151 125.286 194.655 125.736 195.403 125.488C196.214 125.218 196.155 124.517 196.111 123.85C195.967 121.665 194.486 119.809 192.391 119.204C191.912 119.066 191.381 119.076 190.886 118.484ZM200.004 111.311C200.204 107.133 199.666 102.972 199.717 98.7984C199.753 95.7682 201.499 93.8882 204.47 93.91C207.945 93.9355 211.422 94.0854 214.891 94.3012C217.032 94.4344 217.967 95.4949 218.042 97.6057C218.154 100.772 218.207 103.94 218.309 107.107C218.431 110.876 218.547 114.645 218.728 118.411C218.803 119.979 219.596 120.668 221.057 120.379C222.397 120.114 221.602 119.036 221.626 118.296C221.643 117.795 221.552 117.292 221.542 116.79C221.426 110.756 221.118 104.726 221.18 98.6868C221.217 94.9534 219.569 92.8476 215.997 91.9246C211.722 90.8198 207.39 91.2669 203.076 91.5843C200.365 91.7837 198.034 93.9282 197.566 96.5739C197.34 97.8543 197.216 99.1675 197.201 100.468C197.155 104.442 197.184 108.418 197.185 112.394C197.185 114.785 197.186 114.785 199.872 115.035C200.147 113.905 199.945 112.75 200.004 111.311ZM200.866 183.388C206.715 183.468 212.565 183.245 218.413 183.518C220.007 183.592 220.193 183.26 219.649 181.406C219.426 181.388 219.18 181.353 218.933 181.353C211.923 181.346 204.912 181.368 197.902 181.319C196.44 181.308 196.451 182.141 196.458 183.245C197.861 183.523 199.22 183.33 200.866 183.388ZM146.955 111.379C147.555 111.434 148.163 111.444 148.754 111.552C150.263 111.828 150.091 110.568 150.231 109.815C150.417 108.811 149.509 108.905 148.889 108.921C147.734 108.952 146.583 109.087 145.428 109.143C140.81 109.367 136.189 109.54 131.591 110.068C131.11 110.124 130.627 110.153 130.302 110.707C135.84 110.934 141.257 111.156 146.955 111.379ZM202.852 120.472C201.29 117.856 198.964 116.301 196.437 116.217C199.86 117.84 201.796 120.391 201.48 124.331C203.156 123.75 203.384 123.089 202.852 120.472ZM205.165 119.275C204.531 118.417 203.677 117.858 202.655 117.464C204.085 119.138 205.079 120.947 204.623 123.323C206.287 122.154 206.397 121.381 205.165 119.275Z" fill="var(--fill-0, black)"/>
<path id="Vector_2" d="M187.364 169.378C187.339 162.347 187.302 155.455 187.297 148.564C187.295 145.925 188.092 145.184 190.744 145.181C199.818 145.171 208.892 145.157 217.966 145.144C219.74 145.141 220.735 145.999 220.745 147.782C220.788 155.227 220.793 162.672 220.771 170.116C220.766 171.638 219.831 172.528 218.263 172.532C208.836 172.555 199.409 172.558 189.982 172.532C188.289 172.527 187.495 171.533 187.364 169.378ZM196.323 146.593C194.658 146.593 192.994 146.589 191.329 146.592C189.036 146.598 188.74 146.917 188.703 149.213C188.592 155.908 188.926 162.596 188.966 169.288C188.974 170.569 189.467 170.922 190.676 170.917C199.656 170.884 208.636 170.885 217.615 170.918C218.925 170.923 219.4 170.429 219.393 169.135C219.358 162.39 219.385 155.644 219.372 148.899C219.368 146.997 218.95 146.596 217.057 146.595C210.247 146.589 203.436 146.593 196.323 146.593Z" fill="var(--fill-0, black)"/>
<path id="Vector_3" d="M138.091 64.2109C137.925 63.7737 137.78 63.4495 137.707 63.1098C137.628 62.7391 137.73 62.399 138.126 62.2492C138.52 62.1001 138.843 62.2736 139.015 62.6107C140.398 65.3311 142.016 67.9624 142.356 71.0908C142.412 71.6141 142.283 72.1295 141.865 72.456C140.679 73.3817 139.331 73.8741 137.804 73.7636C137.374 73.7324 136.997 73.5477 136.939 73.0761C136.873 72.5417 137.318 72.4333 137.705 72.3232C137.993 72.241 138.291 72.1869 138.588 72.1393C140.77 71.789 141.107 71.2139 140.406 69.0677C139.857 67.3856 138.875 65.9115 138.091 64.2109Z" fill="var(--fill-0, black)"/>
<path id="Vector_4" d="M134.792 78.1505C137.279 78.9155 139.378 77.8848 141.502 76.962C141.937 78.0001 141.447 78.4905 140.861 78.9008C138.772 80.363 133.47 80.1019 131.511 78.4597C131.196 78.1954 130.92 77.9167 131.04 77.2815C132.381 76.9304 133.421 78.0792 134.792 78.1505Z" fill="var(--fill-0, black)"/>
<path id="Vector_5" d="M128.26 56.0599C127.497 56.2435 126.867 56.4174 126.228 56.5401C125.82 56.6183 125.399 56.5916 125.231 56.1046C125.077 55.6554 125.3 55.3485 125.654 55.0846C126.985 54.0938 131.717 53.8034 133.107 54.6419C133.553 54.911 133.981 55.2432 133.818 55.8308C133.625 56.5246 133.046 56.3705 132.574 56.2226C131.191 55.7889 129.789 55.9908 128.26 56.0599Z" fill="var(--fill-0, black)"/>
<path id="Vector_6" d="M142.799 56.049C141.958 56.2662 141.142 56.4564 140.987 55.4606C140.855 54.6124 141.676 54.4393 142.306 54.3107C144.116 53.9408 145.919 54.0712 147.691 54.5681C148.339 54.7499 149.069 55.0565 148.884 55.8592C148.651 56.8675 147.881 56.3668 147.286 56.1956C145.846 55.7808 144.384 55.999 142.799 56.049Z" fill="var(--fill-0, black)"/>
<path id="Vector_7" d="M131.693 64.4149C129.819 65.2201 128.086 65.388 126.467 64.127C126.007 63.7689 125.369 63.3652 125.815 62.6685C126.213 62.0471 126.792 62.3701 127.273 62.6614C128.574 63.4489 129.898 63.5604 131.282 62.8815C131.63 62.7107 131.997 62.4904 132.508 62.7259C132.933 63.5092 132.404 63.949 131.693 64.4149Z" fill="var(--fill-0, black)"/>
<path id="Vector_8" d="M146.926 62.8113C147.748 63.4497 147.21 63.7823 146.742 64.0743C145.674 64.7404 143.114 64.5361 142.155 63.7215C141.725 63.3558 141.281 62.9004 141.61 62.3154C142.015 61.596 142.531 62.037 142.994 62.3433C144.188 63.1317 145.518 62.753 146.926 62.8113Z" fill="var(--fill-0, black)"/>
<path id="Vector_9" d="M112.418 63.4169C112.563 63.7475 112.68 63.9714 112.741 64.2095C112.901 64.8348 113.175 65.6239 112.296 65.824C111.503 66.0043 111.389 65.2321 111.301 64.636C111.194 63.9159 110.662 63.5454 110.155 63.1385C109.837 62.8835 109.507 62.5763 109.795 62.1343C110.104 61.6604 110.577 61.7516 110.996 61.9646C111.589 62.2662 112 62.7727 112.418 63.4169Z" fill="var(--fill-0, black)"/>
</g>
</svg>
