<svg preserveAspectRatio="none" width="100%" height="100%" overflow="visible" style="display: block;" viewBox="0 0 19.9978 20.9971" fill="none" xmlns="http://www.w3.org/2000/svg">
<path id="Vector" d="M0.999888 8.99847C0.999818 8.70757 1.06321 8.42016 1.18565 8.15628C1.30809 7.8924 1.48663 7.65842 1.70881 7.47064L8.70802 1.47231C9.06897 1.16726 9.52629 0.999888 9.99888 0.999888C10.4715 0.999888 10.9288 1.16726 11.2897 1.47231L18.2889 7.47064C18.5111 7.65842 18.6897 7.8924 18.8121 8.15628C18.9345 8.42016 18.9979 8.70757 18.9979 8.99847V17.9975C18.9979 18.5278 18.7872 19.0365 18.4121 19.4115C18.0371 19.7865 17.5285 19.9972 16.9981 19.9972H2.99966C2.46929 19.9972 1.96064 19.7865 1.58561 19.4115C1.21058 19.0365 0.999888 18.5278 0.999888 17.9975V8.99847Z" stroke="var(--stroke-0, white)" stroke-width="1.99978" stroke-linecap="round" stroke-linejoin="round"/>
</svg>
