<svg preserveAspectRatio="none" width="100%" height="100%" overflow="visible" style="display: block;" viewBox="0 0 71.538 72.9465" fill="none" xmlns="http://www.w3.org/2000/svg">
<g id="Frame 7">
<g id="Star 1" filter="url(#filter0_d_169_46)">
<path d="M30.6675 4.93512C33.5119 2.18341 38.0261 2.18341 40.8706 4.93512L42.0338 6.06043C43.6604 7.63398 45.9221 8.36885 48.1629 8.0519L49.7654 7.82524C53.684 7.27097 57.3361 9.92436 58.0199 13.8225L58.2995 15.4166C58.6905 17.6457 60.0884 19.5696 62.0875 20.6303L63.5172 21.3889C67.0132 23.2438 68.4082 27.537 66.6702 31.0926L65.9594 32.5466C64.9655 34.5798 64.9655 36.9579 65.9594 38.9912L66.6702 40.4452C68.4082 44.0007 67.0132 48.294 63.5172 50.1489L62.0875 50.9075C60.0884 51.9682 58.6905 53.8921 58.2995 56.1212L58.0199 57.7153C57.3361 61.6134 53.684 64.2668 49.7654 63.7125L48.1629 63.4859C45.9221 63.1689 43.6604 63.9038 42.0338 65.4773L40.8706 66.6027C38.0261 69.3544 33.5119 69.3544 30.6675 66.6027L29.5043 65.4773C27.8777 63.9038 25.616 63.1689 23.3751 63.4859L21.7726 63.7125C17.854 64.2668 14.202 61.6134 13.5182 57.7153L13.2385 56.1212C12.8475 53.8921 11.4497 51.9682 9.45053 50.9075L8.02085 50.1489C4.52483 48.294 3.12986 44.0007 4.86792 40.4452L5.57869 38.9912C6.57259 36.9579 6.57259 34.5798 5.57869 32.5466L4.86792 31.0926C3.12986 27.537 4.52483 23.2438 8.02085 21.3889L9.45053 20.6303C11.4497 19.5696 12.8475 17.6457 13.2385 15.4166L13.5182 13.8225C14.202 9.92436 17.854 7.27097 21.7726 7.82524L23.3751 8.0519C25.616 8.36885 27.8777 7.63398 29.5043 6.06043L30.6675 4.93512Z" fill="var(--fill-0, #FE7ACA)"/>
<path d="M30.6675 4.93512C33.5119 2.18341 38.0261 2.18341 40.8706 4.93512L42.0338 6.06043C43.6604 7.63398 45.9221 8.36885 48.1629 8.0519L49.7654 7.82524C53.684 7.27097 57.3361 9.92436 58.0199 13.8225L58.2995 15.4166C58.6905 17.6457 60.0884 19.5696 62.0875 20.6303L63.5172 21.3889C67.0132 23.2438 68.4082 27.537 66.6702 31.0926L65.9594 32.5466C64.9655 34.5798 64.9655 36.9579 65.9594 38.9912L66.6702 40.4452C68.4082 44.0007 67.0132 48.294 63.5172 50.1489L62.0875 50.9075C60.0884 51.9682 58.6905 53.8921 58.2995 56.1212L58.0199 57.7153C57.3361 61.6134 53.684 64.2668 49.7654 63.7125L48.1629 63.4859C45.9221 63.1689 43.6604 63.9038 42.0338 65.4773L40.8706 66.6027C38.0261 69.3544 33.5119 69.3544 30.6675 66.6027L29.5043 65.4773C27.8777 63.9038 25.616 63.1689 23.3751 63.4859L21.7726 63.7125C17.854 64.2668 14.202 61.6134 13.5182 57.7153L13.2385 56.1212C12.8475 53.8921 11.4497 51.9682 9.45053 50.9075L8.02085 50.1489C4.52483 48.294 3.12986 44.0007 4.86792 40.4452L5.57869 38.9912C6.57259 36.9579 6.57259 34.5798 5.57869 32.5466L4.86792 31.0926C3.12986 27.537 4.52483 23.2438 8.02085 21.3889L9.45053 20.6303C11.4497 19.5696 12.8475 17.6457 13.2385 15.4166L13.5182 13.8225C14.202 9.92436 17.854 7.27097 21.7726 7.82524L23.3751 8.0519C25.616 8.36885 27.8777 7.63398 29.5043 6.06043L30.6675 4.93512Z" stroke="var(--stroke-0, #062325)" stroke-width="1.22287"/>
</g>
<path id="Star 2" d="M33.2186 7.96751C34.6409 6.59166 36.898 6.59166 38.3202 7.96751L41.9635 11.492C42.7767 12.2788 43.9076 12.6462 45.028 12.4878L50.0471 11.7778C52.0064 11.5007 53.8325 12.8274 54.1744 14.7764L55.0502 19.7693C55.2457 20.8838 55.9446 21.8458 56.9442 22.3761L61.422 24.752C63.17 25.6794 63.8675 27.8261 62.9985 29.6038L60.7723 34.1579C60.2754 35.1745 60.2754 36.3636 60.7723 37.3802L62.9985 41.9343C63.8675 43.712 63.17 45.8587 61.422 46.7861L56.9442 49.1619C55.9446 49.6923 55.2457 50.6543 55.0502 51.7688L54.1744 56.7616C53.8325 58.7107 52.0064 60.0374 50.0471 59.7603L45.028 59.0503C43.9076 58.8919 42.7767 59.2593 41.9635 60.0461L38.3202 63.5706C36.898 64.9464 34.6409 64.9464 33.2186 63.5706L29.5754 60.0461C28.7621 59.2593 27.6312 58.8919 26.5108 59.0503L21.4917 59.7603C19.5324 60.0374 17.7064 58.7107 17.3645 56.7616L16.4887 51.7688C16.2931 50.6543 15.5942 49.6923 14.5947 49.1619L10.1168 46.7861C8.36881 45.8587 7.67133 43.712 8.54036 41.9343L10.7665 37.3802C11.2635 36.3636 11.2635 35.1745 10.7665 34.1579L8.54036 29.6038C7.67133 27.826 8.36882 25.6794 10.1168 24.752L14.5947 22.3761C15.5942 21.8458 16.2931 20.8838 16.4887 19.7693L17.3645 14.7764C17.7064 12.8274 19.5324 11.5007 21.4917 11.7778L26.5108 12.4878C27.6312 12.6462 28.7621 12.2788 29.5754 11.492L33.2186 7.96751Z" fill="var(--fill-0, #FE7ACA)" stroke="var(--stroke-0, #062325)" stroke-width="1.22287"/>
<g id="solar:money-bag-bold">
<path id="Vector" fill-rule="evenodd" clip-rule="evenodd" d="M35.821 25.019H35.717C34.818 25.019 34.069 25.019 33.475 25.099C32.847 25.183 32.28 25.369 31.825 25.824C31.369 26.28 31.183 26.847 31.099 27.474C31.042 27.901 31.025 28.92 31.021 29.794C28.999 29.861 27.784 30.097 26.941 30.941C25.769 32.112 25.769 33.998 25.769 37.769C25.769 41.54 25.769 43.426 26.941 44.597C28.113 45.768 29.998 45.769 33.769 45.769H37.769C41.54 45.769 43.426 45.769 44.597 44.597C45.768 43.425 45.769 41.54 45.769 37.769C45.769 33.998 45.769 32.112 44.597 30.941C43.754 30.097 42.539 29.861 40.517 29.795C40.513 28.92 40.497 27.901 40.439 27.475C40.355 26.847 40.169 26.28 39.713 25.825C39.258 25.369 38.691 25.183 38.063 25.099C37.469 25.019 36.719 25.019 35.821 25.019ZM39.017 29.771C39.012 28.924 38.998 28.013 38.953 27.674C38.89 27.213 38.783 27.015 38.653 26.885C38.523 26.755 38.325 26.648 37.863 26.585C37.381 26.521 36.733 26.519 35.769 26.519C34.805 26.519 34.157 26.521 33.674 26.586C33.213 26.648 33.015 26.755 32.885 26.886C32.755 27.017 32.648 27.213 32.585 27.674C32.54 28.014 32.525 28.924 32.521 29.771C32.913 29.769 33.329 29.7683 33.769 29.769H37.769C38.2103 29.769 38.6263 29.7697 39.017 29.771ZM35.769 33.019C35.9679 33.019 36.1587 33.098 36.2993 33.2387C36.44 33.3793 36.519 33.5701 36.519 33.769V33.779C37.608 34.053 38.519 34.912 38.519 36.102C38.519 36.3009 38.44 36.4917 38.2993 36.6323C38.1587 36.773 37.9679 36.852 37.769 36.852C37.5701 36.852 37.3793 36.773 37.2387 36.6323C37.098 36.4917 37.019 36.3009 37.019 36.102C37.019 35.718 36.593 35.186 35.769 35.186C34.945 35.186 34.519 35.718 34.519 36.102C34.519 36.486 34.945 37.019 35.769 37.019C37.154 37.019 38.519 37.979 38.519 39.436C38.519 40.626 37.608 41.484 36.519 41.759V41.769C36.519 41.9679 36.44 42.1587 36.2993 42.2993C36.1587 42.44 35.9679 42.519 35.769 42.519C35.5701 42.519 35.3793 42.44 35.2387 42.2993C35.098 42.1587 35.019 41.9679 35.019 41.769V41.759C33.93 41.485 33.019 40.626 33.019 39.436C33.019 39.2371 33.098 39.0463 33.2387 38.9057C33.3793 38.765 33.5701 38.686 33.769 38.686C33.9679 38.686 34.1587 38.765 34.2993 38.9057C34.44 39.0463 34.519 39.2371 34.519 39.436C34.519 39.82 34.945 40.352 35.769 40.352C36.593 40.352 37.019 39.82 37.019 39.436C37.019 39.052 36.593 38.519 35.769 38.519C34.384 38.519 33.019 37.559 33.019 36.102C33.019 34.912 33.93 34.053 35.019 33.779V33.769C35.019 33.5701 35.098 33.3793 35.2387 33.2387C35.3793 33.098 35.5701 33.019 35.769 33.019Z" fill="var(--fill-0, #062325)"/>
</g>
</g>
<defs>
<filter id="filter0_d_169_46" x="3.50954" y="2.2599" width="66.3533" height="70.6866" filterUnits="userSpaceOnUse" color-interpolation-filters="sRGB">
<feFlood flood-opacity="0" result="BackgroundImageFix"/>
<feColorMatrix in="SourceAlpha" type="matrix" values="0 0 0 0 0 0 0 0 0 0 0 0 0 0 0 0 0 0 127 0" result="hardAlpha"/>
<feOffset dx="1.83431" dy="3.66862"/>
<feColorMatrix type="matrix" values="0 0 0 0 0.0235294 0 0 0 0 0.137255 0 0 0 0 0.145098 0 0 0 1 0"/>
<feBlend mode="normal" in2="BackgroundImageFix" result="effect1_dropShadow_169_46"/>
<feBlend mode="normal" in="SourceGraphic" in2="effect1_dropShadow_169_46" result="shape"/>
</filter>
</defs>
</svg>
