<svg preserveAspectRatio="none" width="100%" height="100%" overflow="visible" style="display: block;" viewBox="0 0 23.1965 23.2558" fill="none" xmlns="http://www.w3.org/2000/svg">
<path id="Vector" d="M23.1857 17.4172V20.9166C23.187 21.2411 23.1205 21.5622 22.9906 21.8595C22.8606 22.1567 22.67 22.4235 22.4309 22.6429C22.1918 22.8622 21.9096 23.0291 21.6022 23.133C21.2949 23.2369 20.9692 23.2755 20.6461 23.2463C17.0596 22.8558 13.6146 21.6298 10.5878 19.6669C7.76889 17.8764 5.37929 15.4868 3.58889 12.668C1.61559 9.62051 0.38929 6.15031 0.0094896 2.53971C-0.0196104 2.21821 0.0183905 1.89431 0.12109 1.58831C0.22379 1.28231 0.38899 1.00101 0.60619 0.762305C0.82329 0.523505 1.08769 0.332505 1.38259 0.201205C1.67739 0.0700054 1.99639 0.00150599 2.31909 0.000105993H5.81849C6.38479 -0.00529401 6.93349 0.195806 7.36229 0.565606C7.79109 0.935506 8.07039 1.44891 8.14819 2.00981C8.29699 3.13031 8.57199 4.23051 8.96799 5.28921C9.12569 5.70601 9.16049 6.15921 9.06829 6.59521C8.97619 7.03111 8.76089 7.43151 8.44809 7.74881L6.96829 9.22861C8.62899 12.1488 11.047 14.5667 13.9672 16.2274L15.447 14.7477C15.7643 14.4349 16.1647 14.2196 16.6006 14.1275C17.0366 14.0353 17.4898 14.0701 17.9066 14.2277C18.9653 14.6238 20.0655 14.8988 21.186 15.0476C21.7539 15.1261 22.2728 15.4113 22.6436 15.8485C23.0144 16.2856 23.2109 16.8442 23.1957 17.4172H23.1857Z" fill="var(--fill-0, black)"/>
</svg>
