<svg preserveAspectRatio="none" width="100%" height="100%" overflow="visible" style="display: block;" viewBox="0 0 70.2803 73.3462" fill="none" xmlns="http://www.w3.org/2000/svg">
<path id="Star 2" d="M31.9632 2.04674C33.7345 0.333134 36.5457 0.333131 38.3171 2.04674L42.8547 6.43645C43.8677 7.41636 45.2761 7.874 46.6716 7.67662L52.9228 6.79243C55.3631 6.44726 57.6374 8.09964 58.0632 10.5272L59.154 16.7457C59.3975 18.1338 60.268 19.3319 61.513 19.9925L67.0901 22.9515C69.2672 24.1066 70.1359 26.7802 69.0535 28.9944L66.2809 34.6665C65.6619 35.9326 65.6619 37.4136 66.2809 38.6798L69.0535 44.3518C70.1359 46.566 69.2672 49.2396 67.0901 50.3947L61.513 53.3538C60.268 54.0143 59.3975 55.2124 59.154 56.6006L58.0632 62.8191C57.6374 65.2466 55.3631 66.899 52.9228 66.5538L46.6716 65.6696C45.2761 65.4722 43.8677 65.9299 42.8547 66.9098L38.3171 71.2995C36.5457 73.0131 33.7345 73.0131 31.9632 71.2995L27.4256 66.9098C26.4126 65.9299 25.0042 65.4722 23.6087 65.6696L17.3575 66.5538C14.9172 66.899 12.6429 65.2466 12.2171 62.8191L11.1262 56.6006C10.8827 55.2124 10.0123 54.0143 8.7673 53.3538L3.19022 50.3947C1.01311 49.2396 0.144405 46.566 1.22676 44.3518L3.99943 38.6798C4.61837 37.4136 4.61837 35.9326 3.99942 34.6665L1.22676 28.9944C0.144403 26.7802 1.01311 24.1066 3.19023 22.9515L8.76729 19.9925C10.0123 19.3319 10.8827 18.1338 11.1262 16.7457L12.2171 10.5272C12.6429 8.09964 14.9172 6.44726 17.3575 6.79243L23.6087 7.67662C25.0042 7.874 26.4126 7.41637 27.4256 6.43645L31.9632 2.04674Z" fill="var(--fill-0, #5546FF)" stroke="var(--stroke-0, white)" stroke-width="1.52307"/>
</svg>
