<svg preserveAspectRatio="none" width="100%" height="100%" overflow="visible" style="display: block;" viewBox="0 0 74.7771 79.6605" fill="none" xmlns="http://www.w3.org/2000/svg">
<g id="Star 1" filter="url(#filter0_d_169_87)">
<path d="M30.6058 3.01485C33.8113 -0.0862014 38.8986 -0.0862045 42.1042 3.01485L43.4151 4.28301C45.2481 6.05633 47.797 6.8845 50.3223 6.52731L52.1282 6.27187C56.5443 5.64724 60.6601 8.63748 61.4306 13.0305L61.7458 14.827C62.1864 17.3391 63.7617 19.5072 66.0147 20.7026L67.6259 21.5575C71.5657 23.6478 73.1378 28.4862 71.1791 32.4931L70.3781 34.1317C69.258 36.4231 69.258 39.1031 70.3781 41.3944L71.1791 43.033C73.1378 47.04 71.5657 51.8783 67.6259 53.9687L66.0147 54.8235C63.7617 56.0189 62.1864 58.1871 61.7458 60.6992L61.4306 62.4957C60.6601 66.8886 56.5443 69.8789 52.1282 69.2543L50.3223 68.9988C47.797 68.6416 45.2481 69.4698 43.4151 71.2431L42.1042 72.5113C38.8986 75.6123 33.8113 75.6123 30.6058 72.5113L29.2949 71.2431C27.4618 69.4698 24.9129 68.6416 22.3876 68.9988L20.5817 69.2543C16.1656 69.8789 12.0499 66.8886 11.2793 62.4957L10.9641 60.6992C10.5235 58.1871 8.9482 56.0189 6.69523 54.8235L5.08404 53.9687C1.14419 51.8783 -0.427872 47.04 1.53083 43.033L2.33184 41.3944C3.45192 39.1031 3.45192 36.4231 2.33184 34.1317L1.53084 32.4931C-0.42787 28.4862 1.14419 23.6478 5.08403 21.5575L6.69523 20.7026C8.9482 19.5072 10.5235 17.3391 10.9641 14.827L11.2793 13.0305C12.0499 8.63749 16.1656 5.64724 20.5817 6.27187L22.3876 6.52731C24.9129 6.8845 27.4618 6.05634 29.2949 4.28302L30.6058 3.01485Z" fill="var(--fill-0, #5546FF)"/>
<path d="M30.6058 3.01485C33.8113 -0.0862014 38.8986 -0.0862045 42.1042 3.01485L43.4151 4.28301C45.2481 6.05633 47.797 6.8845 50.3223 6.52731L52.1282 6.27187C56.5443 5.64724 60.6601 8.63748 61.4306 13.0305L61.7458 14.827C62.1864 17.3391 63.7617 19.5072 66.0147 20.7026L67.6259 21.5575C71.5657 23.6478 73.1378 28.4862 71.1791 32.4931L70.3781 34.1317C69.258 36.4231 69.258 39.1031 70.3781 41.3944L71.1791 43.033C73.1378 47.04 71.5657 51.8783 67.6259 53.9687L66.0147 54.8235C63.7617 56.0189 62.1864 58.1871 61.7458 60.6992L61.4306 62.4957C60.6601 66.8886 56.5443 69.8789 52.1282 69.2543L50.3223 68.9988C47.797 68.6416 45.2481 69.4698 43.4151 71.2431L42.1042 72.5113C38.8986 75.6123 33.8113 75.6123 30.6058 72.5113L29.2949 71.2431C27.4618 69.4698 24.9129 68.6416 22.3876 68.9988L20.5817 69.2543C16.1656 69.8789 12.0499 66.8886 11.2793 62.4957L10.9641 60.6992C10.5235 58.1871 8.9482 56.0189 6.69523 54.8235L5.08404 53.9687C1.14419 51.8783 -0.427872 47.04 1.53083 43.033L2.33184 41.3944C3.45192 39.1031 3.45192 36.4231 2.33184 34.1317L1.53084 32.4931C-0.42787 28.4862 1.14419 23.6478 5.08403 21.5575L6.69523 20.7026C8.9482 19.5072 10.5235 17.3391 10.9641 14.827L11.2793 13.0305C12.0499 8.63749 16.1656 5.64724 20.5817 6.27187L22.3876 6.52731C24.9129 6.8845 27.4618 6.05634 29.2949 4.28302L30.6058 3.01485Z" stroke="var(--stroke-0, white)" stroke-width="1.37812"/>
</g>
<defs>
<filter id="filter0_d_169_87" x="0" y="0" width="74.7771" height="79.6605" filterUnits="userSpaceOnUse" color-interpolation-filters="sRGB">
<feFlood flood-opacity="0" result="BackgroundImageFix"/>
<feColorMatrix in="SourceAlpha" type="matrix" values="0 0 0 0 0 0 0 0 0 0 0 0 0 0 0 0 0 0 127 0" result="hardAlpha"/>
<feOffset dx="2.06718" dy="4.13436"/>
<feColorMatrix type="matrix" values="0 0 0 0 1 0 0 0 0 1 0 0 0 0 1 0 0 0 1 0"/>
<feBlend mode="normal" in2="BackgroundImageFix" result="effect1_dropShadow_169_87"/>
<feBlend mode="normal" in="SourceGraphic" in2="effect1_dropShadow_169_87" result="shape"/>
</filter>
</defs>
</svg>
