<svg preserveAspectRatio="none" width="100%" height="100%" overflow="visible" style="display: block;" viewBox="0 0 28.6632 32.7199" fill="none" xmlns="http://www.w3.org/2000/svg">
<g id="Group">
<g id="Vector">
</g>
<path id="Vector_2" fill-rule="evenodd" clip-rule="evenodd" d="M0.000156923 12.749C0.000330131 10.7159 0.486703 8.71226 1.4187 6.90535C2.35069 5.09844 3.70128 3.5406 5.35779 2.36182C7.01429 1.18303 8.92868 0.417477 10.9412 0.129025C12.9538 -0.159428 15.0061 0.0375863 16.927 0.70363C18.848 1.36967 20.5817 2.48543 21.9837 3.95782C23.3858 5.4302 24.4153 7.21652 24.9866 9.16773C25.5578 11.1189 25.6541 13.1785 25.2675 15.1745C24.8809 17.1705 24.0226 19.0451 22.7642 20.642L28.2422 26.12C28.5154 26.4029 28.6666 26.7818 28.6632 27.1751C28.6597 27.5684 28.502 27.9446 28.2239 28.2227C27.9458 28.5008 27.5696 28.6586 27.1763 28.662C26.783 28.6654 26.4041 28.5142 26.1212 28.241L20.6432 22.763C18.7631 24.245 16.5038 25.1677 14.1237 25.4256C11.7437 25.6835 9.33919 25.2662 7.1853 24.2213C5.03141 23.1764 3.21519 21.5463 1.9445 19.5174C0.673817 17.4885 -3.82103e-06 15.1429 0.000156923 12.749ZM12.7502 5.99896C12.3523 5.99896 11.9708 6.157 11.6895 6.4383C11.4082 6.71961 11.2502 7.10114 11.2502 7.49896C11.2502 7.89679 11.4082 8.27832 11.6895 8.55962C11.9708 8.84093 12.3523 8.99896 12.7502 8.99896C13.7447 8.99896 14.6985 9.39405 15.4018 10.0973C16.1051 10.8006 16.5002 11.7544 16.5002 12.749C16.5002 13.1468 16.6582 13.5283 16.9395 13.8096C17.2208 14.0909 17.6023 14.249 18.0002 14.249C18.398 14.249 18.7795 14.0909 19.0608 13.8096C19.3421 13.5283 19.5002 13.1468 19.5002 12.749C19.5002 10.9588 18.789 9.24186 17.5231 7.97599C16.2573 6.71012 14.5404 5.99896 12.7502 5.99896Z" fill="var(--fill-0, white)"/>
</g>
</svg>
