<svg preserveAspectRatio="none" width="100%" height="100%" overflow="visible" style="display: block;" viewBox="0 0 21.8279 24.9174" fill="none" xmlns="http://www.w3.org/2000/svg">
<g id="Group">
<g id="Vector">
</g>
<path id="Vector_2" fill-rule="evenodd" clip-rule="evenodd" d="M1.5974e-05 9.70874C0.000147878 8.16045 0.370538 6.63465 1.08028 5.25862C1.79003 3.8826 2.81855 2.69625 4.08003 1.79857C5.34152 0.900883 6.79939 0.317887 8.33201 0.098221C9.86463 -0.121445 11.4276 0.0285876 12.8904 0.535802C14.3533 1.04302 15.6736 1.89271 16.7413 3.01398C17.8089 4.13525 18.593 5.49559 19.028 6.98151C19.463 8.46742 19.5364 10.0358 19.242 11.5559C18.9476 13.0759 18.2939 14.5035 17.3356 15.7195L21.5073 19.8912C21.7153 20.1066 21.8305 20.3952 21.8279 20.6947C21.8253 20.9942 21.7051 21.2807 21.4934 21.4925C21.2816 21.7043 20.9951 21.8244 20.6955 21.827C20.396 21.8296 20.1075 21.7145 19.8921 21.5064L15.7204 17.3347C14.2886 18.4633 12.5681 19.166 10.7556 19.3624C8.94315 19.5588 7.11201 19.241 5.47175 18.4453C3.83148 17.6496 2.44837 16.4082 1.4807 14.8631C0.513031 13.3181 -0.000106438 11.5318 1.5974e-05 9.70874ZM9.70958 4.56838C9.40662 4.56838 9.11607 4.68873 8.90185 4.90295C8.68763 5.11718 8.56728 5.40772 8.56728 5.71068C8.56728 6.01364 8.68763 6.30419 8.90185 6.51841C9.11607 6.73263 9.40662 6.85298 9.70958 6.85298C10.467 6.85298 11.1933 7.15386 11.7289 7.68941C12.2645 8.22497 12.5653 8.95134 12.5653 9.70874C12.5653 10.0117 12.6857 10.3022 12.8999 10.5165C13.1141 10.7307 13.4047 10.851 13.7076 10.851C14.0106 10.851 14.3011 10.7307 14.5154 10.5165C14.7296 10.3022 14.8499 10.0117 14.8499 9.70874C14.8499 8.34543 14.3084 7.03796 13.3444 6.07395C12.3804 5.10995 11.0729 4.56838 9.70958 4.56838Z" fill="var(--fill-0, white)"/>
</g>
</svg>
