<svg preserveAspectRatio="none" width="100%" height="100%" overflow="visible" style="display: block;" viewBox="0 0 63.5918 66.366" fill="none" xmlns="http://www.w3.org/2000/svg">
<path id="Star 2" d="M28.9213 1.85195C30.5241 0.301429 33.0677 0.301428 34.6705 1.85195L38.7763 5.8239C39.6928 6.71056 40.9672 7.12465 42.2299 6.94605L47.8862 6.146C50.0943 5.83368 52.1521 7.32881 52.5374 9.52529L53.5244 15.152C53.7447 16.408 54.5324 17.4921 55.6589 18.0898L60.7052 20.7673C62.6751 21.8124 63.4611 24.2316 62.4818 26.2351L59.973 31.3673C59.4129 32.513 59.4129 33.853 59.973 34.9987L62.4818 40.1309C63.4611 42.1344 62.6751 44.5535 60.7052 45.5987L55.6589 48.2761C54.5324 48.8738 53.7447 49.9579 53.5244 51.214L52.5374 56.8407C52.1521 59.0371 50.0943 60.5323 47.8862 60.22L42.2299 59.4199C40.9672 59.2413 39.6928 59.6554 38.7763 60.5421L34.6705 64.514C33.0677 66.0645 30.5241 66.0645 28.9213 64.514L24.8155 60.5421C23.899 59.6554 22.6245 59.2413 21.3619 59.4199L15.7056 60.22C13.4975 60.5323 11.4397 59.0372 11.0544 56.8407L10.0674 51.214C9.84704 49.9579 9.05941 48.8738 7.93292 48.2761L2.88661 45.5987C0.916693 44.5535 0.130661 42.1344 1.11001 40.1309L3.6188 34.9987C4.17884 33.853 4.17884 32.513 3.6188 31.3673L1.11001 26.2351C0.130661 24.2316 0.916691 21.8124 2.88661 20.7673L7.93292 18.0898C9.05941 17.4921 9.84704 16.408 10.0674 15.152L11.0544 9.5253C11.4397 7.32881 13.4975 5.83368 15.7056 6.146L21.3619 6.94605C22.6245 7.12465 23.899 6.71056 24.8155 5.8239L28.9213 1.85195Z" fill="var(--fill-0, #5546FF)" stroke="var(--stroke-0, white)" stroke-width="1.37812"/>
</svg>
