<svg preserveAspectRatio="none" width="100%" height="100%" overflow="visible" style="display: block;" viewBox="0 0 92.2878 96.3138" fill="none" xmlns="http://www.w3.org/2000/svg">
<path id="Star 2" d="M41.9721 2.68765C44.2981 0.437448 47.9896 0.43745 50.3156 2.68765L56.2742 8.45196C57.6043 9.73872 59.4538 10.3397 61.2863 10.0805L69.495 8.9194C72.6994 8.46615 75.6859 10.636 76.2451 13.8236L77.6774 21.9894C77.9972 23.8122 79.1403 25.3855 80.7751 26.2529L88.0985 30.1385C90.9574 31.6554 92.0981 35.1662 90.6768 38.0737L87.036 45.5219C86.2232 47.1845 86.2232 49.1292 87.036 50.7919L90.6768 58.2401C92.0981 61.1476 90.9574 64.6584 88.0985 66.1752L80.7751 70.0609C79.1403 70.9283 77.9972 72.5016 77.6774 74.3244L76.2451 82.4902C75.6859 85.6778 72.6994 87.8476 69.495 87.3944L61.2863 86.2333C59.4538 85.9741 57.6043 86.5751 56.2742 87.8618L50.3156 93.6261C47.9896 95.8763 44.2981 95.8763 41.9721 93.6261L36.0136 87.8618C34.6834 86.5751 32.8339 85.9741 31.0015 86.2333L22.7928 87.3944C19.5883 87.8476 16.6019 85.6778 16.0427 82.4902L14.6103 74.3244C14.2906 72.5016 13.1475 70.9283 11.5127 70.0609L4.1892 66.1752C1.33035 64.6584 0.189623 61.1476 1.61091 58.2401L5.2518 50.7919C6.06455 49.1292 6.06455 47.1845 5.2518 45.5219L1.61091 38.0737C0.189621 35.1662 1.33035 31.6554 4.18921 30.1385L11.5127 26.2529C13.1475 25.3855 14.2906 23.8122 14.6103 21.9894L16.0427 13.8236C16.6019 10.6359 19.5883 8.46615 22.7928 8.9194L31.0015 10.0805C32.8339 10.3397 34.6834 9.73872 36.0136 8.45196L41.9721 2.68765Z" fill="var(--fill-0, #5546FF)" stroke="var(--stroke-0, white)" stroke-width="2"/>
</svg>
