<svg preserveAspectRatio="none" width="100%" height="100%" overflow="visible" style="display: block;" viewBox="0 0 50.2408 126.206" fill="none" xmlns="http://www.w3.org/2000/svg">
<path id="Vector 2" d="M50.104 6.04587C50.3827 5.56905 50.2221 4.9566 49.7452 4.67793L41.9749 0.136792C41.4981 -0.141875 40.8856 0.0187645 40.607 0.49559C40.3283 0.972416 40.4889 1.58486 40.9658 1.86353L47.8727 5.9001L43.8362 12.8071C43.5575 13.2839 43.7181 13.8963 44.195 14.175C44.6718 14.4537 45.2842 14.293 45.5629 13.8162L50.104 6.04587ZM5.74005 126.041L6.72644 125.877C6.61328 125.198 6.50228 124.523 6.39345 123.852L5.40635 124.012L4.41925 124.172C4.52856 124.846 4.64002 125.524 4.75366 126.206L5.74005 126.041ZM4.77772 120.026L5.7662 119.875C5.56293 118.547 5.36841 117.235 5.18251 115.94L4.19265 116.082L3.2028 116.224C3.3896 117.526 3.58504 118.843 3.78923 120.177L4.77772 120.026ZM3.63611 112.061L4.62736 111.929C4.45076 110.602 4.28354 109.294 4.12557 108.002L3.13297 108.124L2.14037 108.245C2.29922 109.544 2.46734 110.859 2.64486 112.193L3.63611 112.061ZM2.66186 104.078L3.65582 103.968C3.50886 102.637 3.37213 101.326 3.24543 100.033L2.2502 100.131L1.25497 100.228C1.38248 101.529 1.52007 102.849 1.66791 104.188L2.66186 104.078ZM1.88021 96.0755L2.87667 95.9915C2.76373 94.6516 2.66207 93.333 2.57147 92.0351L1.5739 92.1048L0.576327 92.1744C0.667606 93.482 0.77001 94.8103 0.883742 96.1595L1.88021 96.0755ZM1.32331 88.0583L2.32187 88.0045C2.24906 86.6519 2.18886 85.3231 2.14102 84.0177L1.14169 84.0543L0.142357 84.091C0.190632 85.4081 0.251349 86.7483 0.324759 88.112L1.32331 88.0583ZM1.0317 80.0395L2.03154 80.0216C2.00713 78.655 1.99699 77.3154 2.00077 76.0022L1.00077 75.9994L0.000777245 75.9965C-0.00304401 77.3238 0.00720936 78.6772 0.0318572 80.0573L1.0317 80.0395ZM1.05644 72.0135L2.05612 72.0389C2.09091 70.6705 2.14172 69.3326 2.20811 68.0246L1.2094 67.9739L0.210682 67.9232C0.143413 69.2486 0.0919707 70.6033 0.0567623 71.988L1.05644 72.0135ZM1.46919 63.9506L2.46609 64.0293C2.57282 62.6769 2.69732 61.3588 2.83904 60.0739L1.84506 59.9643L0.85109 59.8546C0.707034 61.1608 0.580596 62.4996 0.47229 63.8719L1.46919 63.9506ZM2.35135 55.9963L3.3409 56.1404C3.53842 54.7843 3.75656 53.4683 3.99453 52.191L3.01145 52.0079L2.02836 51.8247C1.7854 53.1288 1.56297 54.4708 1.36179 55.8521L2.35135 55.9963ZM3.83544 48.0645L4.8094 48.2912C5.11821 46.9646 5.4503 45.6837 5.80459 44.4468L4.84324 44.1714L3.88189 43.8961C3.51808 45.1663 3.17762 46.4797 2.86148 47.8378L3.83544 48.0645ZM6.0568 40.3401L7.00098 40.6695C7.44821 39.3877 7.92176 38.1583 8.42007 36.9785L7.49888 36.5894L6.57769 36.2003C6.06228 37.4205 5.57348 38.6898 5.11262 40.0107L6.0568 40.3401ZM9.19114 32.9458L10.0822 33.3998C10.6945 32.1979 11.3358 31.0542 12.0039 29.9649L11.1515 29.442L10.2991 28.9191C9.60287 30.0542 8.9359 31.244 8.30012 32.4918L9.19114 32.9458ZM13.3913 26.1146L14.196 26.7083C14.9912 25.6306 15.8169 24.6136 16.6704 23.6526L15.9226 22.9886L15.1749 22.3245C14.2814 23.3306 13.4178 24.3945 12.5867 25.5208L13.3913 26.1146ZM18.7301 20.1069L19.4134 20.8371C20.3806 19.9319 21.377 19.084 22.3997 18.2877L21.7853 17.4987L21.1709 16.7097C20.102 17.542 19.0595 18.4291 18.0468 19.3767L18.7301 20.1069ZM25.06 15.1696L25.6047 16.0083C26.7105 15.2901 27.8415 14.6205 28.9945 13.9934L28.5167 13.1149L28.0389 12.2364C26.8432 12.8868 25.6674 13.5828 24.5154 14.3309L25.06 15.1696ZM32.1134 11.3184L32.5303 12.2273C33.7292 11.6774 34.9469 11.1643 36.1803 10.682L35.8162 9.7507L35.4521 8.81936C34.1864 9.31421 32.9332 9.84209 31.6964 10.4094L32.1134 11.3184ZM39.5957 8.37718L39.9162 9.32443C41.1718 8.8996 42.4394 8.49942 43.7158 8.11778L43.4293 7.15969L43.1428 6.2016C41.8471 6.58902 40.5566 6.99638 39.2752 7.42993L39.5957 8.37718ZM47.2978 6.0596L47.56 7.02461C48.2036 6.84973 48.8486 6.67798 49.4944 6.50858L49.2407 5.5413L48.987 4.57402C48.3363 4.74468 47.6857 4.91795 47.0356 5.09458L47.2978 6.0596Z" fill="var(--stroke-0, black)"/>
</svg>
