<svg preserveAspectRatio="none" width="100%" height="100%" overflow="visible" style="display: block;" viewBox="0 0 71.538 72.9465" fill="none" xmlns="http://www.w3.org/2000/svg">
<g id="Frame 7">
<g id="Star 1" filter="url(#filter0_d_169_52)">
<path d="M30.6675 4.93512C33.5119 2.18341 38.0261 2.18341 40.8706 4.93512L42.0338 6.06043C43.6604 7.63398 45.9221 8.36885 48.1629 8.0519L49.7654 7.82524C53.684 7.27097 57.3361 9.92436 58.0199 13.8225L58.2995 15.4166C58.6905 17.6457 60.0884 19.5696 62.0875 20.6303L63.5172 21.3889C67.0132 23.2438 68.4082 27.537 66.6702 31.0926L65.9594 32.5466C64.9655 34.5798 64.9655 36.9579 65.9594 38.9912L66.6702 40.4452C68.4082 44.0007 67.0132 48.294 63.5172 50.1489L62.0875 50.9075C60.0884 51.9682 58.6905 53.8921 58.2995 56.1212L58.0199 57.7153C57.3361 61.6134 53.684 64.2668 49.7654 63.7125L48.1629 63.4859C45.9221 63.1689 43.6604 63.9038 42.0338 65.4773L40.8706 66.6027C38.0261 69.3544 33.5119 69.3544 30.6675 66.6027L29.5043 65.4773C27.8777 63.9038 25.616 63.1689 23.3751 63.4859L21.7726 63.7125C17.854 64.2668 14.202 61.6134 13.5182 57.7153L13.2385 56.1212C12.8475 53.8921 11.4497 51.9682 9.45053 50.9075L8.02085 50.1489C4.52483 48.294 3.12986 44.0007 4.86792 40.4452L5.57869 38.9912C6.57259 36.9579 6.57259 34.5798 5.57869 32.5466L4.86792 31.0926C3.12986 27.537 4.52483 23.2438 8.02085 21.3889L9.45053 20.6303C11.4497 19.5696 12.8475 17.6457 13.2385 15.4166L13.5182 13.8225C14.202 9.92436 17.854 7.27097 21.7726 7.82524L23.3751 8.0519C25.616 8.36885 27.8777 7.63398 29.5043 6.06043L30.6675 4.93512Z" fill="var(--fill-0, #C0FF0A)"/>
<path d="M30.6675 4.93512C33.5119 2.18341 38.0261 2.18341 40.8706 4.93512L42.0338 6.06043C43.6604 7.63398 45.9221 8.36885 48.1629 8.0519L49.7654 7.82524C53.684 7.27097 57.3361 9.92436 58.0199 13.8225L58.2995 15.4166C58.6905 17.6457 60.0884 19.5696 62.0875 20.6303L63.5172 21.3889C67.0132 23.2438 68.4082 27.537 66.6702 31.0926L65.9594 32.5466C64.9655 34.5798 64.9655 36.9579 65.9594 38.9912L66.6702 40.4452C68.4082 44.0007 67.0132 48.294 63.5172 50.1489L62.0875 50.9075C60.0884 51.9682 58.6905 53.8921 58.2995 56.1212L58.0199 57.7153C57.3361 61.6134 53.684 64.2668 49.7654 63.7125L48.1629 63.4859C45.9221 63.1689 43.6604 63.9038 42.0338 65.4773L40.8706 66.6027C38.0261 69.3544 33.5119 69.3544 30.6675 66.6027L29.5043 65.4773C27.8777 63.9038 25.616 63.1689 23.3751 63.4859L21.7726 63.7125C17.854 64.2668 14.202 61.6134 13.5182 57.7153L13.2385 56.1212C12.8475 53.8921 11.4497 51.9682 9.45053 50.9075L8.02085 50.1489C4.52483 48.294 3.12986 44.0007 4.86792 40.4452L5.57869 38.9912C6.57259 36.9579 6.57259 34.5798 5.57869 32.5466L4.86792 31.0926C3.12986 27.537 4.52483 23.2438 8.02085 21.3889L9.45053 20.6303C11.4497 19.5696 12.8475 17.6457 13.2385 15.4166L13.5182 13.8225C14.202 9.92436 17.854 7.27097 21.7726 7.82524L23.3751 8.0519C25.616 8.36885 27.8777 7.63398 29.5043 6.06043L30.6675 4.93512Z" stroke="var(--stroke-0, #062325)" stroke-width="1.22287"/>
</g>
<path id="Star 2" d="M33.2186 7.96751C34.6409 6.59166 36.898 6.59166 38.3202 7.96751L41.9635 11.492C42.7767 12.2788 43.9076 12.6462 45.028 12.4878L50.0471 11.7778C52.0064 11.5007 53.8325 12.8274 54.1744 14.7764L55.0502 19.7693C55.2457 20.8838 55.9446 21.8458 56.9442 22.3761L61.422 24.752C63.17 25.6794 63.8675 27.8261 62.9985 29.6038L60.7723 34.1579C60.2754 35.1745 60.2754 36.3636 60.7723 37.3802L62.9985 41.9343C63.8675 43.712 63.17 45.8587 61.422 46.7861L56.9442 49.1619C55.9446 49.6923 55.2457 50.6543 55.0502 51.7688L54.1744 56.7616C53.8325 58.7107 52.0064 60.0374 50.0471 59.7603L45.028 59.0503C43.9076 58.8919 42.7767 59.2593 41.9635 60.0461L38.3202 63.5706C36.898 64.9464 34.6409 64.9464 33.2186 63.5706L29.5754 60.0461C28.7621 59.2593 27.6312 58.8919 26.5108 59.0503L21.4917 59.7603C19.5324 60.0374 17.7064 58.7107 17.3645 56.7616L16.4887 51.7688C16.2931 50.6543 15.5942 49.6923 14.5947 49.1619L10.1168 46.7861C8.36881 45.8587 7.67133 43.712 8.54036 41.9343L10.7665 37.3802C11.2635 36.3636 11.2635 35.1745 10.7665 34.1579L8.54036 29.6038C7.67133 27.826 8.36882 25.6794 10.1168 24.752L14.5947 22.3761C15.5942 21.8458 16.2931 20.8838 16.4887 19.7693L17.3645 14.7764C17.7064 12.8274 19.5324 11.5007 21.4917 11.7778L26.5108 12.4878C27.6312 12.6462 28.7621 12.2788 29.5754 11.492L33.2186 7.96751Z" fill="var(--fill-0, #C0FF0A)" stroke="var(--stroke-0, #062325)" stroke-width="1.22287"/>
<g id="tabler:user-filled">
<path id="Vector" d="M35.769 25.769C36.7579 25.769 37.7246 26.0622 38.5469 26.6117C39.3691 27.1611 40.01 27.942 40.3884 28.8556C40.7668 29.7692 40.8659 30.7746 40.6729 31.7445C40.48 32.7144 40.0038 33.6053 39.3045 34.3045C38.6053 35.0038 37.7144 35.48 36.7445 35.6729C35.7746 35.8659 34.7692 35.7668 33.8556 35.3884C32.942 35.01 32.1611 34.3691 31.6117 33.5469C31.0622 32.7246 30.769 31.7579 30.769 30.769L30.774 30.552C30.8299 29.2648 31.3806 28.0488 32.3112 27.1577C33.2418 26.2665 34.4805 25.7691 35.769 25.769ZM37.769 37.769C39.0951 37.769 40.3669 38.2958 41.3045 39.2335C42.2422 40.1712 42.769 41.4429 42.769 42.769V43.769C42.769 44.2994 42.5583 44.8081 42.1832 45.1832C41.8081 45.5583 41.2994 45.769 40.769 45.769H30.769C30.2386 45.769 29.7299 45.5583 29.3548 45.1832C28.9797 44.8081 28.769 44.2994 28.769 43.769V42.769C28.769 41.4429 29.2958 40.1712 30.2335 39.2335C31.1712 38.2958 32.4429 37.769 33.769 37.769H37.769Z" fill="var(--fill-0, #062325)"/>
</g>
</g>
<defs>
<filter id="filter0_d_169_52" x="3.50954" y="2.2599" width="66.3533" height="70.6866" filterUnits="userSpaceOnUse" color-interpolation-filters="sRGB">
<feFlood flood-opacity="0" result="BackgroundImageFix"/>
<feColorMatrix in="SourceAlpha" type="matrix" values="0 0 0 0 0 0 0 0 0 0 0 0 0 0 0 0 0 0 127 0" result="hardAlpha"/>
<feOffset dx="1.83431" dy="3.66862"/>
<feColorMatrix type="matrix" values="0 0 0 0 0.0235294 0 0 0 0 0.137255 0 0 0 0 0.145098 0 0 0 1 0"/>
<feBlend mode="normal" in2="BackgroundImageFix" result="effect1_dropShadow_169_52"/>
<feBlend mode="normal" in="SourceGraphic" in2="effect1_dropShadow_169_52" result="shape"/>
</filter>
</defs>
</svg>
