<svg preserveAspectRatio="none" width="100%" height="100%" overflow="visible" style="display: block;" viewBox="0 0 108.52 115.608" fill="none" xmlns="http://www.w3.org/2000/svg">
<g id="Star 1" filter="url(#filter0_d_169_92)">
<path d="M44.4167 4.37531C49.0688 -0.125104 56.4517 -0.1251 61.1038 4.37531L63.0062 6.21575C65.6665 8.78928 69.3655 9.99116 73.0304 9.47279L75.6513 9.10208C82.0601 8.19558 88.0331 12.5352 89.1514 18.9105L89.6087 21.5177C90.2482 25.1634 92.5344 28.3099 95.804 30.0447L98.1422 31.2853C103.86 34.319 106.141 41.3406 103.299 47.1557L102.136 49.5338C100.511 52.8591 100.511 56.7484 102.136 60.0738L103.299 62.4518C106.141 68.2669 103.86 75.2885 98.1422 78.3222L95.804 79.5628C92.5344 81.2976 90.2482 84.4441 89.6087 88.0898L89.1514 90.697C88.0331 97.0723 82.0601 101.412 75.6513 100.505L73.0304 100.135C69.3655 99.6164 65.6665 100.818 63.0062 103.392L61.1038 105.232C56.4517 109.733 49.0688 109.733 44.4167 105.232L42.5142 103.392C39.854 100.818 36.155 99.6164 32.4901 100.135L29.8692 100.505C23.4603 101.412 17.4874 97.0723 16.3691 90.697L15.9117 88.0898C15.2722 84.4441 12.9861 81.2976 9.71647 79.5628L7.37822 78.3222C1.66051 75.2885 -0.620946 68.2669 2.22163 62.4518L3.3841 60.0738C5.00961 56.7484 5.00961 52.8591 3.3841 49.5338L2.22163 47.1557C-0.62095 41.3406 1.66051 34.319 7.37822 31.2853L9.71648 30.0447C12.9861 28.3099 15.2722 25.1634 15.9117 21.5177L16.3691 18.9105C17.4874 12.5352 23.4603 8.19558 29.8692 9.10208L32.4901 9.47279C36.155 9.99116 39.854 8.78928 42.5142 6.21575L44.4167 4.37531Z" fill="var(--fill-0, #5546FF)"/>
<path d="M44.4167 4.37531C49.0688 -0.125104 56.4517 -0.1251 61.1038 4.37531L63.0062 6.21575C65.6665 8.78928 69.3655 9.99116 73.0304 9.47279L75.6513 9.10208C82.0601 8.19558 88.0331 12.5352 89.1514 18.9105L89.6087 21.5177C90.2482 25.1634 92.5344 28.3099 95.804 30.0447L98.1422 31.2853C103.86 34.319 106.141 41.3406 103.299 47.1557L102.136 49.5338C100.511 52.8591 100.511 56.7484 102.136 60.0738L103.299 62.4518C106.141 68.2669 103.86 75.2885 98.1422 78.3222L95.804 79.5628C92.5344 81.2976 90.2482 84.4441 89.6087 88.0898L89.1514 90.697C88.0331 97.0723 82.0601 101.412 75.6513 100.505L73.0304 100.135C69.3655 99.6164 65.6665 100.818 63.0062 103.392L61.1038 105.232C56.4517 109.733 49.0688 109.733 44.4167 105.232L42.5142 103.392C39.854 100.818 36.155 99.6164 32.4901 100.135L29.8692 100.505C23.4603 101.412 17.4874 97.0723 16.3691 90.697L15.9117 88.0898C15.2722 84.4441 12.9861 81.2976 9.71647 79.5628L7.37822 78.3222C1.66051 75.2885 -0.620946 68.2669 2.22163 62.4518L3.3841 60.0738C5.00961 56.7484 5.00961 52.8591 3.3841 49.5338L2.22163 47.1557C-0.62095 41.3406 1.66051 34.319 7.37822 31.2853L9.71648 30.0447C12.9861 28.3099 15.2722 25.1634 15.9117 21.5177L16.3691 18.9105C17.4874 12.5352 23.4603 8.19558 29.8692 9.10208L32.4901 9.47279C36.155 9.99116 39.854 8.78928 42.5142 6.21575L44.4167 4.37531Z" stroke="var(--stroke-0, white)" stroke-width="2"/>
</g>
<defs>
<filter id="filter0_d_169_92" x="0" y="0" width="108.52" height="115.608" filterUnits="userSpaceOnUse" color-interpolation-filters="sRGB">
<feFlood flood-opacity="0" result="BackgroundImageFix"/>
<feColorMatrix in="SourceAlpha" type="matrix" values="0 0 0 0 0 0 0 0 0 0 0 0 0 0 0 0 0 0 127 0" result="hardAlpha"/>
<feOffset dx="3" dy="6"/>
<feColorMatrix type="matrix" values="0 0 0 0 1 0 0 0 0 1 0 0 0 0 1 0 0 0 1 0"/>
<feBlend mode="normal" in2="BackgroundImageFix" result="effect1_dropShadow_169_92"/>
<feBlend mode="normal" in="SourceGraphic" in2="effect1_dropShadow_169_92" result="shape"/>
</filter>
</defs>
</svg>
