<svg preserveAspectRatio="none" width="100%" height="100%" overflow="visible" style="display: block;" viewBox="0 0 82.642 88.0391" fill="none" xmlns="http://www.w3.org/2000/svg">
<g id="Star 1" filter="url(#filter0_d_169_60)">
<path d="M33.8248 3.33195C37.3675 -0.0952681 42.9899 -0.0952709 46.5326 3.33194L47.9814 4.7335C50.0073 6.69333 52.8242 7.60861 55.6151 7.21385L57.611 6.93154C62.4916 6.24121 67.0402 9.54596 67.8918 14.401L68.2401 16.3864C68.7271 19.1628 70.4681 21.559 72.958 22.8801L74.7387 23.8248C79.0929 26.1351 80.8303 31.4823 78.6656 35.9107L77.7803 37.7216C76.5424 40.254 76.5424 43.2159 77.7803 45.7482L78.6656 47.5592C80.8303 51.9876 79.0929 57.3348 74.7387 59.645L72.958 60.5898C70.4681 61.9109 68.7271 64.3071 68.2401 67.0834L67.8918 69.0689C67.0402 73.9239 62.4916 77.2287 57.611 76.5383L55.6151 76.256C52.8242 75.8613 50.0073 76.7765 47.9814 78.7364L46.5326 80.1379C42.9899 83.5651 37.3675 83.5651 33.8248 80.1379L32.376 78.7364C30.3502 76.7765 27.5332 75.8613 24.7423 76.256L22.7464 76.5383C17.8658 77.2287 13.3172 73.9239 12.4656 69.0689L12.1173 67.0834C11.6303 64.3071 9.88936 61.9109 7.39942 60.5898L5.61877 59.645C1.26454 57.3348 -0.472875 51.9876 1.69185 47.5592L2.5771 45.7482C3.81499 43.2159 3.81499 40.254 2.57711 37.7216L1.69185 35.9107C-0.472873 31.4823 1.26454 26.1351 5.61877 23.8248L7.39942 22.8801C9.88936 21.559 11.6303 19.1628 12.1173 16.3864L12.4656 14.401C13.3172 9.54597 17.8658 6.24121 22.7464 6.93154L24.7423 7.21385C27.5332 7.60861 30.3502 6.69333 32.376 4.7335L33.8248 3.33195Z" fill="var(--fill-0, #5546FF)"/>
<path d="M33.8248 3.33195C37.3675 -0.0952681 42.9899 -0.0952709 46.5326 3.33194L47.9814 4.7335C50.0073 6.69333 52.8242 7.60861 55.6151 7.21385L57.611 6.93154C62.4916 6.24121 67.0402 9.54596 67.8918 14.401L68.2401 16.3864C68.7271 19.1628 70.4681 21.559 72.958 22.8801L74.7387 23.8248C79.0929 26.1351 80.8303 31.4823 78.6656 35.9107L77.7803 37.7216C76.5424 40.254 76.5424 43.2159 77.7803 45.7482L78.6656 47.5592C80.8303 51.9876 79.0929 57.3348 74.7387 59.645L72.958 60.5898C70.4681 61.9109 68.7271 64.3071 68.2401 67.0834L67.8918 69.0689C67.0402 73.9239 62.4916 77.2287 57.611 76.5383L55.6151 76.256C52.8242 75.8613 50.0073 76.7765 47.9814 78.7364L46.5326 80.1379C42.9899 83.5651 37.3675 83.5651 33.8248 80.1379L32.376 78.7364C30.3502 76.7765 27.5332 75.8613 24.7423 76.256L22.7464 76.5383C17.8658 77.2287 13.3172 73.9239 12.4656 69.0689L12.1173 67.0834C11.6303 64.3071 9.88936 61.9109 7.39942 60.5898L5.61877 59.645C1.26454 57.3348 -0.472875 51.9876 1.69185 47.5592L2.5771 45.7482C3.81499 43.2159 3.81499 40.254 2.57711 37.7216L1.69185 35.9107C-0.472873 31.4823 1.26454 26.1351 5.61877 23.8248L7.39942 22.8801C9.88936 21.559 11.6303 19.1628 12.1173 16.3864L12.4656 14.401C13.3172 9.54597 17.8658 6.24121 22.7464 6.93154L24.7423 7.21385C27.5332 7.60861 30.3502 6.69333 32.376 4.7335L33.8248 3.33195Z" stroke="var(--stroke-0, white)" stroke-width="1.52307"/>
</g>
<defs>
<filter id="filter0_d_169_60" x="0" y="0" width="82.642" height="88.0391" filterUnits="userSpaceOnUse" color-interpolation-filters="sRGB">
<feFlood flood-opacity="0" result="BackgroundImageFix"/>
<feColorMatrix in="SourceAlpha" type="matrix" values="0 0 0 0 0 0 0 0 0 0 0 0 0 0 0 0 0 0 127 0" result="hardAlpha"/>
<feOffset dx="2.2846" dy="4.56921"/>
<feColorMatrix type="matrix" values="0 0 0 0 1 0 0 0 0 1 0 0 0 0 1 0 0 0 1 0"/>
<feBlend mode="normal" in2="BackgroundImageFix" result="effect1_dropShadow_169_60"/>
<feBlend mode="normal" in="SourceGraphic" in2="effect1_dropShadow_169_60" result="shape"/>
</filter>
</defs>
</svg>
