<svg preserveAspectRatio="none" width="100%" height="100%" overflow="visible" style="display: block;" viewBox="0 0 19.7506 22.5462" fill="none" xmlns="http://www.w3.org/2000/svg">
<g id="Group">
<g id="Vector">
</g>
<path id="Vector_2" fill-rule="evenodd" clip-rule="evenodd" d="M5.08411e-05 8.78477C0.000170192 7.38383 0.33531 6.00324 0.97751 4.75817C1.61971 3.5131 2.55035 2.43965 3.69178 1.6274C4.83321 0.815147 6.15234 0.287634 7.5391 0.0888734C8.92586 -0.109887 10.3401 0.0258669 11.6637 0.484811C12.9873 0.943754 14.182 1.71258 15.1481 2.72714C16.1141 3.7417 16.8236 4.97258 17.2172 6.31708C17.6108 7.66159 17.6772 9.08073 17.4108 10.4561C17.1444 11.8315 16.553 13.1232 15.6858 14.2235L19.4605 17.9982C19.6488 18.1931 19.7529 18.4542 19.7506 18.7252C19.7482 18.9962 19.6395 19.2555 19.4479 19.4471C19.2563 19.6387 18.997 19.7474 18.726 19.7498C18.455 19.7521 18.1939 19.648 17.999 19.4597L14.2243 15.685C12.9288 16.7062 11.372 17.342 9.73205 17.5197C8.09208 17.6974 6.4352 17.4099 4.95104 16.6899C3.46688 15.9699 2.2154 14.8466 1.33982 13.4486C0.464243 12.0506 -5.9921e-05 10.4343 5.08411e-05 8.78477ZM8.78556 4.13361C8.51144 4.13361 8.24854 4.24251 8.05471 4.43634C7.86087 4.63018 7.75197 4.89308 7.75197 5.1672C7.75197 5.44133 7.86087 5.70422 8.05471 5.89806C8.24854 6.0919 8.51144 6.20079 8.78556 6.20079C9.47088 6.20079 10.1281 6.47303 10.6127 6.95762C11.0973 7.44221 11.3695 8.09945 11.3695 8.78477C11.3695 9.05889 11.4784 9.32179 11.6723 9.51562C11.8661 9.70946 12.129 9.81836 12.4031 9.81836C12.6773 9.81836 12.9401 9.70946 13.134 9.51562C13.3278 9.32179 13.4367 9.05889 13.4367 8.78477C13.4367 7.5512 12.9467 6.36816 12.0744 5.4959C11.2022 4.62364 10.0191 4.13361 8.78556 4.13361Z" fill="var(--fill-0, white)"/>
</g>
</svg>
