<svg preserveAspectRatio="none" width="100%" height="100%" overflow="visible" style="display: block;" viewBox="0 0 71.538 72.9465" fill="none" xmlns="http://www.w3.org/2000/svg">
<g id="Frame 7">
<g id="Star 1" filter="url(#filter0_d_169_62)">
<path d="M30.6675 4.93512C33.5119 2.18341 38.0261 2.18341 40.8706 4.93512L42.0338 6.06043C43.6604 7.63398 45.9221 8.36885 48.1629 8.0519L49.7654 7.82524C53.684 7.27097 57.3361 9.92436 58.0199 13.8225L58.2995 15.4166C58.6905 17.6457 60.0884 19.5696 62.0875 20.6303L63.5172 21.3889C67.0132 23.2438 68.4082 27.537 66.6702 31.0926L65.9594 32.5466C64.9655 34.5798 64.9655 36.9579 65.9594 38.9912L66.6702 40.4452C68.4082 44.0007 67.0132 48.294 63.5172 50.1489L62.0875 50.9075C60.0884 51.9682 58.6905 53.8921 58.2995 56.1212L58.0199 57.7153C57.3361 61.6134 53.684 64.2668 49.7654 63.7125L48.1629 63.4859C45.9221 63.1689 43.6604 63.9038 42.0338 65.4773L40.8706 66.6027C38.0261 69.3544 33.5119 69.3544 30.6675 66.6027L29.5043 65.4773C27.8777 63.9038 25.616 63.1689 23.3751 63.4859L21.7726 63.7125C17.854 64.2668 14.202 61.6134 13.5182 57.7153L13.2385 56.1212C12.8475 53.8921 11.4497 51.9682 9.45053 50.9075L8.02085 50.1489C4.52483 48.294 3.12986 44.0007 4.86792 40.4452L5.57869 38.9912C6.57259 36.9579 6.57259 34.5798 5.57869 32.5466L4.86792 31.0926C3.12986 27.537 4.52483 23.2438 8.02085 21.3889L9.45053 20.6303C11.4497 19.5696 12.8475 17.6457 13.2385 15.4166L13.5182 13.8225C14.202 9.92436 17.854 7.27097 21.7726 7.82524L23.3751 8.0519C25.616 8.36885 27.8777 7.63398 29.5043 6.06043L30.6675 4.93512Z" fill="var(--fill-0, #9A91FE)"/>
<path d="M30.6675 4.93512C33.5119 2.18341 38.0261 2.18341 40.8706 4.93512L42.0338 6.06043C43.6604 7.63398 45.9221 8.36885 48.1629 8.0519L49.7654 7.82524C53.684 7.27097 57.3361 9.92436 58.0199 13.8225L58.2995 15.4166C58.6905 17.6457 60.0884 19.5696 62.0875 20.6303L63.5172 21.3889C67.0132 23.2438 68.4082 27.537 66.6702 31.0926L65.9594 32.5466C64.9655 34.5798 64.9655 36.9579 65.9594 38.9912L66.6702 40.4452C68.4082 44.0007 67.0132 48.294 63.5172 50.1489L62.0875 50.9075C60.0884 51.9682 58.6905 53.8921 58.2995 56.1212L58.0199 57.7153C57.3361 61.6134 53.684 64.2668 49.7654 63.7125L48.1629 63.4859C45.9221 63.1689 43.6604 63.9038 42.0338 65.4773L40.8706 66.6027C38.0261 69.3544 33.5119 69.3544 30.6675 66.6027L29.5043 65.4773C27.8777 63.9038 25.616 63.1689 23.3751 63.4859L21.7726 63.7125C17.854 64.2668 14.202 61.6134 13.5182 57.7153L13.2385 56.1212C12.8475 53.8921 11.4497 51.9682 9.45053 50.9075L8.02085 50.1489C4.52483 48.294 3.12986 44.0007 4.86792 40.4452L5.57869 38.9912C6.57259 36.9579 6.57259 34.5798 5.57869 32.5466L4.86792 31.0926C3.12986 27.537 4.52483 23.2438 8.02085 21.3889L9.45053 20.6303C11.4497 19.5696 12.8475 17.6457 13.2385 15.4166L13.5182 13.8225C14.202 9.92436 17.854 7.27097 21.7726 7.82524L23.3751 8.0519C25.616 8.36885 27.8777 7.63398 29.5043 6.06043L30.6675 4.93512Z" stroke="var(--stroke-0, #062325)" stroke-width="1.22287"/>
</g>
<path id="Star 2" d="M33.2186 7.96751C34.6409 6.59166 36.898 6.59166 38.3202 7.96751L41.9635 11.492C42.7767 12.2788 43.9076 12.6462 45.028 12.4878L50.0471 11.7778C52.0064 11.5007 53.8325 12.8274 54.1744 14.7764L55.0502 19.7693C55.2457 20.8838 55.9446 21.8458 56.9442 22.3761L61.422 24.752C63.17 25.6794 63.8675 27.8261 62.9985 29.6038L60.7723 34.1579C60.2754 35.1745 60.2754 36.3636 60.7723 37.3802L62.9985 41.9343C63.8675 43.712 63.17 45.8587 61.422 46.7861L56.9442 49.1619C55.9446 49.6923 55.2457 50.6543 55.0502 51.7688L54.1744 56.7616C53.8325 58.7107 52.0064 60.0374 50.0471 59.7603L45.028 59.0503C43.9076 58.8919 42.7767 59.2593 41.9635 60.0461L38.3202 63.5706C36.898 64.9464 34.6409 64.9464 33.2186 63.5706L29.5754 60.0461C28.7621 59.2593 27.6312 58.8919 26.5108 59.0503L21.4917 59.7603C19.5324 60.0374 17.7064 58.7107 17.3645 56.7616L16.4887 51.7688C16.2931 50.6543 15.5942 49.6923 14.5947 49.1619L10.1168 46.7861C8.36881 45.8587 7.67133 43.712 8.54036 41.9343L10.7665 37.3802C11.2635 36.3636 11.2635 35.1745 10.7665 34.1579L8.54036 29.6038C7.67133 27.826 8.36882 25.6794 10.1168 24.752L14.5947 22.3761C15.5942 21.8458 16.2931 20.8838 16.4887 19.7693L17.3645 14.7764C17.7064 12.8274 19.5324 11.5007 21.4917 11.7778L26.5108 12.4878C27.6312 12.6462 28.7621 12.2788 29.5754 11.492L33.2186 7.96751Z" fill="var(--fill-0, #9A91FE)" stroke="var(--stroke-0, #062325)" stroke-width="1.22287"/>
<g id="material-symbols:star-rounded">
<path id="Vector" d="M35.769 41.044L31.619 43.544C31.4357 43.6607 31.244 43.7107 31.044 43.694C30.844 43.6773 30.669 43.6107 30.519 43.494C30.369 43.3773 30.2523 43.2317 30.169 43.057C30.0857 42.8823 30.069 42.6863 30.119 42.469L31.219 37.744L27.544 34.569C27.3773 34.419 27.2733 34.248 27.232 34.056C27.1907 33.864 27.203 33.6767 27.269 33.494C27.335 33.3113 27.435 33.1613 27.569 33.044C27.703 32.9267 27.8863 32.8517 28.119 32.819L32.969 32.394L34.844 27.944C34.9273 27.744 35.0567 27.594 35.232 27.494C35.4073 27.394 35.5863 27.344 35.769 27.344C35.9517 27.344 36.1307 27.394 36.306 27.494C36.4813 27.594 36.6107 27.744 36.694 27.944L38.569 32.394L43.419 32.819C43.6523 32.8523 43.8357 32.9273 43.969 33.044C44.1023 33.1607 44.2023 33.3107 44.269 33.494C44.3357 33.6773 44.3483 33.865 44.307 34.057C44.2657 34.249 44.1613 34.4197 43.994 34.569L40.319 37.744L41.419 42.469C41.469 42.6857 41.4523 42.8817 41.369 43.057C41.2857 43.2323 41.169 43.378 41.019 43.494C40.869 43.61 40.694 43.6767 40.494 43.694C40.294 43.7113 40.1023 43.6613 39.919 43.544L35.769 41.044Z" fill="var(--fill-0, #062325)"/>
</g>
</g>
<defs>
<filter id="filter0_d_169_62" x="3.50954" y="2.2599" width="66.3533" height="70.6866" filterUnits="userSpaceOnUse" color-interpolation-filters="sRGB">
<feFlood flood-opacity="0" result="BackgroundImageFix"/>
<feColorMatrix in="SourceAlpha" type="matrix" values="0 0 0 0 0 0 0 0 0 0 0 0 0 0 0 0 0 0 127 0" result="hardAlpha"/>
<feOffset dx="1.83431" dy="3.66862"/>
<feColorMatrix type="matrix" values="0 0 0 0 0.0235294 0 0 0 0 0.137255 0 0 0 0 0.145098 0 0 0 1 0"/>
<feBlend mode="normal" in2="BackgroundImageFix" result="effect1_dropShadow_169_62"/>
<feBlend mode="normal" in="SourceGraphic" in2="effect1_dropShadow_169_62" result="shape"/>
</filter>
</defs>
</svg>
