<svg preserveAspectRatio="none" width="100%" height="100%" overflow="visible" style="display: block;" viewBox="0 0 71.538 72.9465" fill="none" xmlns="http://www.w3.org/2000/svg">
<g id="Frame 7">
<g id="Star 1" filter="url(#filter0_d_169_40)">
<path d="M30.6675 4.93512C33.5119 2.18341 38.0261 2.18341 40.8706 4.93512L42.0338 6.06043C43.6604 7.63398 45.9221 8.36885 48.1629 8.0519L49.7654 7.82524C53.684 7.27097 57.3361 9.92436 58.0199 13.8225L58.2995 15.4166C58.6905 17.6457 60.0884 19.5696 62.0875 20.6303L63.5172 21.3889C67.0132 23.2438 68.4082 27.537 66.6702 31.0926L65.9594 32.5466C64.9655 34.5798 64.9655 36.9579 65.9594 38.9912L66.6702 40.4452C68.4082 44.0007 67.0132 48.294 63.5172 50.1489L62.0875 50.9075C60.0884 51.9682 58.6905 53.8921 58.2995 56.1212L58.0199 57.7153C57.3361 61.6134 53.684 64.2668 49.7654 63.7125L48.1629 63.4859C45.9221 63.1689 43.6604 63.9038 42.0338 65.4773L40.8706 66.6027C38.0261 69.3544 33.5119 69.3544 30.6675 66.6027L29.5043 65.4773C27.8777 63.9038 25.616 63.1689 23.3751 63.4859L21.7726 63.7125C17.854 64.2668 14.202 61.6134 13.5182 57.7153L13.2385 56.1212C12.8475 53.8921 11.4497 51.9682 9.45053 50.9075L8.02085 50.1489C4.52483 48.294 3.12986 44.0007 4.86792 40.4452L5.57869 38.9912C6.57259 36.9579 6.57259 34.5798 5.57869 32.5466L4.86792 31.0926C3.12986 27.537 4.52483 23.2438 8.02085 21.3889L9.45053 20.6303C11.4497 19.5696 12.8475 17.6457 13.2385 15.4166L13.5182 13.8225C14.202 9.92436 17.854 7.27097 21.7726 7.82524L23.3751 8.0519C25.616 8.36885 27.8777 7.63398 29.5043 6.06043L30.6675 4.93512Z" fill="var(--fill-0, #FED652)"/>
<path d="M30.6675 4.93512C33.5119 2.18341 38.0261 2.18341 40.8706 4.93512L42.0338 6.06043C43.6604 7.63398 45.9221 8.36885 48.1629 8.0519L49.7654 7.82524C53.684 7.27097 57.3361 9.92436 58.0199 13.8225L58.2995 15.4166C58.6905 17.6457 60.0884 19.5696 62.0875 20.6303L63.5172 21.3889C67.0132 23.2438 68.4082 27.537 66.6702 31.0926L65.9594 32.5466C64.9655 34.5798 64.9655 36.9579 65.9594 38.9912L66.6702 40.4452C68.4082 44.0007 67.0132 48.294 63.5172 50.1489L62.0875 50.9075C60.0884 51.9682 58.6905 53.8921 58.2995 56.1212L58.0199 57.7153C57.3361 61.6134 53.684 64.2668 49.7654 63.7125L48.1629 63.4859C45.9221 63.1689 43.6604 63.9038 42.0338 65.4773L40.8706 66.6027C38.0261 69.3544 33.5119 69.3544 30.6675 66.6027L29.5043 65.4773C27.8777 63.9038 25.616 63.1689 23.3751 63.4859L21.7726 63.7125C17.854 64.2668 14.202 61.6134 13.5182 57.7153L13.2385 56.1212C12.8475 53.8921 11.4497 51.9682 9.45053 50.9075L8.02085 50.1489C4.52483 48.294 3.12986 44.0007 4.86792 40.4452L5.57869 38.9912C6.57259 36.9579 6.57259 34.5798 5.57869 32.5466L4.86792 31.0926C3.12986 27.537 4.52483 23.2438 8.02085 21.3889L9.45053 20.6303C11.4497 19.5696 12.8475 17.6457 13.2385 15.4166L13.5182 13.8225C14.202 9.92436 17.854 7.27097 21.7726 7.82524L23.3751 8.0519C25.616 8.36885 27.8777 7.63398 29.5043 6.06043L30.6675 4.93512Z" stroke="var(--stroke-0, #062325)" stroke-width="1.22287"/>
</g>
<path id="Star 2" d="M33.2186 7.96751C34.6409 6.59166 36.898 6.59166 38.3202 7.96751L41.9635 11.492C42.7767 12.2788 43.9076 12.6462 45.028 12.4878L50.0471 11.7778C52.0064 11.5007 53.8325 12.8274 54.1744 14.7764L55.0502 19.7693C55.2457 20.8838 55.9446 21.8458 56.9442 22.3761L61.422 24.752C63.17 25.6794 63.8675 27.8261 62.9985 29.6038L60.7723 34.1579C60.2754 35.1745 60.2754 36.3636 60.7723 37.3802L62.9985 41.9343C63.8675 43.712 63.17 45.8587 61.422 46.7861L56.9442 49.1619C55.9446 49.6923 55.2457 50.6543 55.0502 51.7688L54.1744 56.7616C53.8325 58.7107 52.0064 60.0374 50.0471 59.7603L45.028 59.0503C43.9076 58.8919 42.7767 59.2593 41.9635 60.0461L38.3202 63.5706C36.898 64.9464 34.6409 64.9464 33.2186 63.5706L29.5754 60.0461C28.7621 59.2593 27.6312 58.8919 26.5108 59.0503L21.4917 59.7603C19.5324 60.0374 17.7064 58.7107 17.3645 56.7616L16.4887 51.7688C16.2931 50.6543 15.5942 49.6923 14.5947 49.1619L10.1168 46.7861C8.36881 45.8587 7.67133 43.712 8.54036 41.9343L10.7665 37.3802C11.2635 36.3636 11.2635 35.1745 10.7665 34.1579L8.54036 29.6038C7.67133 27.826 8.36882 25.6794 10.1168 24.752L14.5947 22.3761C15.5942 21.8458 16.2931 20.8838 16.4887 19.7693L17.3645 14.7764C17.7064 12.8274 19.5324 11.5007 21.4917 11.7778L26.5108 12.4878C27.6312 12.6462 28.7621 12.2788 29.5754 11.492L33.2186 7.96751Z" fill="var(--fill-0, #FED652)" stroke="var(--stroke-0, #062325)" stroke-width="1.22287"/>
<g id="mdi:crowd">
<path id="Vector" d="M27.459 32.889C27.3759 32.7999 27.2753 32.729 27.1634 32.6808C27.0515 32.6326 26.9308 32.6081 26.809 32.609C26.399 32.609 26.089 32.799 25.889 33.189C25.689 33.579 25.739 33.949 26.059 34.299C27.239 35.359 27.989 36.109 28.309 36.549C28.719 37.109 28.919 37.929 28.919 38.989C28.919 40.299 29.419 41.269 30.419 41.939C30.979 42.379 31.589 42.709 32.269 42.929V39.039C32.269 38.099 31.939 37.319 31.309 36.689M40.229 36.739C39.609 37.359 39.269 38.129 39.269 39.039V42.969C40.229 42.629 41.029 42.099 41.689 41.399C42.339 40.699 42.669 39.929 42.669 38.989C42.669 37.859 42.859 37.049 43.239 36.549C43.329 36.389 43.499 36.189 43.769 35.939C43.999 35.689 44.239 35.449 44.479 35.229C44.709 35.019 44.939 34.799 45.159 34.579L45.489 34.299C45.5784 34.214 45.6494 34.1116 45.6976 33.9981C45.7457 33.8846 45.77 33.7623 45.769 33.639C45.769 33.359 45.679 33.109 45.489 32.909C45.299 32.709 45.069 32.609 44.769 32.609C44.469 32.609 44.269 32.699 44.079 32.889M35.769 43.769C36.459 43.769 37.129 43.679 37.769 43.489V39.919C37.769 39.329 37.589 38.869 37.179 38.429C36.769 37.989 36.299 37.769 35.769 37.769C35.239 37.769 34.769 37.969 34.389 38.379C33.989 38.769 33.769 39.229 33.769 39.829V43.489C34.409 43.679 35.079 43.769 35.769 43.769ZM32.769 32.269C32.769 33.099 32.099 33.769 31.269 33.769C30.439 33.769 29.769 33.099 29.769 32.269C29.769 31.439 30.439 30.769 31.269 30.769C32.099 30.769 32.769 31.439 32.769 32.269ZM41.769 32.269C41.769 33.099 41.099 33.769 40.269 33.769C39.439 33.769 38.769 33.099 38.769 32.269C38.769 31.439 39.439 30.769 40.269 30.769C41.099 30.769 41.769 31.439 41.769 32.269ZM37.269 29.269C37.269 30.099 36.599 30.769 35.769 30.769C34.939 30.769 34.269 30.099 34.269 29.269C34.269 28.439 34.939 27.769 35.769 27.769C36.599 27.769 37.269 28.439 37.269 29.269ZM37.269 34.769C37.269 35.599 36.599 36.269 35.769 36.269C34.939 36.269 34.269 35.599 34.269 34.769C34.269 33.939 34.939 33.269 35.769 33.269C36.599 33.269 37.269 33.939 37.269 34.769Z" fill="var(--fill-0, #062325)"/>
</g>
</g>
<defs>
<filter id="filter0_d_169_40" x="3.50954" y="2.2599" width="66.3533" height="70.6866" filterUnits="userSpaceOnUse" color-interpolation-filters="sRGB">
<feFlood flood-opacity="0" result="BackgroundImageFix"/>
<feColorMatrix in="SourceAlpha" type="matrix" values="0 0 0 0 0 0 0 0 0 0 0 0 0 0 0 0 0 0 127 0" result="hardAlpha"/>
<feOffset dx="1.83431" dy="3.66862"/>
<feColorMatrix type="matrix" values="0 0 0 0 0.0235294 0 0 0 0 0.137255 0 0 0 0 0.145098 0 0 0 1 0"/>
<feBlend mode="normal" in2="BackgroundImageFix" result="effect1_dropShadow_169_40"/>
<feBlend mode="normal" in="SourceGraphic" in2="effect1_dropShadow_169_40" result="shape"/>
</filter>
</defs>
</svg>
