<svg preserveAspectRatio="none" width="100%" height="100%" overflow="visible" style="display: block;" viewBox="0 0 66.9628 114.697" fill="none" xmlns="http://www.w3.org/2000/svg">
<path id="Vector 1" d="M66.8925 4.67852C67.0956 4.16495 66.844 3.58394 66.3304 3.3808L57.9613 0.0703721C57.4478 -0.132772 56.8668 0.118875 56.6636 0.632442C56.4605 1.14601 56.7121 1.72702 57.2257 1.93016L64.6648 4.87276L61.7222 12.3119C61.5191 12.8255 61.7707 13.4065 62.2843 13.6096C62.7979 13.8128 63.3789 13.5611 63.582 13.0476L66.8925 4.67852ZM0.462566 113.811L0.925132 114.697C1.56758 114.362 2.19455 114.025 2.8064 113.685L2.32141 112.811L1.83642 111.936C1.23977 112.267 0.627764 112.597 0 112.924L0.462566 113.811ZM5.79621 110.76L6.32876 111.606C7.54927 110.838 8.69961 110.061 9.78358 109.273L9.19589 108.464L8.6082 107.655C7.56185 108.415 6.44841 109.168 5.26366 109.914L5.79621 110.76ZM12.4177 105.93L13.0673 106.69C14.1656 105.751 15.1797 104.8 16.1156 103.837L15.3985 103.14L14.6814 102.443C13.7901 103.36 12.8212 104.269 11.768 105.169L12.4177 105.93ZM18.0841 100.073L18.8711 100.69C19.7605 99.5559 20.5545 98.4075 21.2624 97.2463L20.4086 96.7258L19.5547 96.2052C18.8879 97.2991 18.1387 98.383 17.2972 99.4562L18.0841 100.073ZM22.3126 93.123L23.2238 93.5351C23.8097 92.2396 24.3039 90.9323 24.7193 89.615L23.7656 89.3142L22.8119 89.0134C22.4192 90.2586 21.9531 91.4913 21.4015 92.7109L22.3126 93.123ZM24.7778 85.3607L25.7582 85.5578C26.0332 84.1901 26.2394 82.8145 26.3912 81.4333L25.3972 81.3241L24.4031 81.2148C24.2571 82.5439 24.0594 83.8604 23.7974 85.1636L24.7778 85.3607ZM25.6974 77.2515L26.6965 77.2927C26.7532 75.9196 26.7706 74.5415 26.7621 73.1609L25.7621 73.167L24.7621 73.1732C24.7705 74.5292 24.7533 75.875 24.6982 77.2103L25.6974 77.2515ZM25.674 69.0816L26.6735 69.0479C26.6275 67.686 26.569 66.3198 26.5107 64.9552L25.5116 64.9979L24.5125 65.0406C24.5709 66.4068 24.629 67.764 24.6746 69.1154L25.674 69.0816ZM25.3493 60.9144L26.3487 60.8805C26.3029 59.5266 26.269 58.1738 26.2588 56.8218L25.2589 56.8293L24.2589 56.8368C24.2692 58.2117 24.3036 59.583 24.3498 60.9482L25.3493 60.9144ZM25.3113 52.7445L26.3107 52.7806C26.3591 51.4393 26.4425 50.1008 26.5721 48.7657L25.5768 48.669L24.5815 48.5724C24.4474 49.9532 24.3617 51.3325 24.312 52.7084L25.3113 52.7445ZM26.1217 44.623L27.1067 44.7957C27.3351 43.4926 27.6189 42.1936 27.9687 40.8993L27.0033 40.6384L26.0379 40.3775C25.6713 41.7343 25.3748 43.0924 25.1367 44.4504L26.1217 44.623ZM28.2609 36.7572L29.1954 37.1132C29.6587 35.8969 30.1908 34.6846 30.8012 33.4768L29.9087 33.0258L29.0161 32.5748C28.3738 33.8459 27.8138 35.1218 27.3264 36.4013L28.2609 36.7572ZM31.9326 29.4857L32.7744 30.0254C33.4697 28.9409 34.2369 27.8597 35.0831 26.7825L34.2968 26.1648L33.5104 25.547C32.6252 26.6738 31.8209 27.807 31.0907 28.946L31.9326 29.4857ZM36.9558 23.0716L37.6857 23.7552C38.5693 22.8116 39.5202 21.8712 40.5431 20.9345L39.8678 20.197L39.1926 19.4594C38.133 20.4295 37.1457 21.4059 36.2259 22.3881L36.9558 23.0716ZM43.0036 17.5189L43.6276 18.3003C44.6292 17.5004 45.6878 16.7036 46.8066 15.9103L46.2282 15.0945L45.6498 14.2788C44.5011 15.0933 43.412 15.913 42.3795 16.7376L43.0036 17.5189ZM49.6059 12.8271L50.1429 13.6707C51.26 12.9597 52.4287 12.2519 53.6515 11.5475L53.1523 10.681L52.6531 9.81446C51.4059 10.533 50.2119 11.256 49.069 11.9835L49.6059 12.8271ZM56.6732 8.74112L57.1397 9.62565C58.3071 9.00996 59.5182 8.39717 60.7744 7.78745L60.3378 6.88781L59.9012 5.98817C58.6256 6.60726 57.3946 7.23011 56.2067 7.8566L56.6732 8.74112ZM64.0266 5.16504L64.4367 6.07706C65.0675 5.79342 65.7085 5.5105 66.36 5.22832L65.9626 4.31069L65.5651 3.39307C64.9053 3.67885 64.2558 3.96551 63.6165 4.25301L64.0266 5.16504Z" fill="var(--stroke-0, black)"/>
</svg>
