<svg preserveAspectRatio="none" width="100%" height="100%" overflow="visible" style="display: block;" viewBox="0 0 266 175" fill="none" xmlns="http://www.w3.org/2000/svg">
<g id="file (4) 1">
<path id="Vector" fill-rule="evenodd" clip-rule="evenodd" d="M140.27 104.869C146.566 105.29 152.758 105.146 158.927 105.629C160.057 105.717 160.213 106.259 159.976 107.186C158.653 112.349 157.092 117.442 155.502 122.526C154.961 124.255 154.455 125.994 153.901 127.838L157.099 129.01C157.723 127.556 157.808 126.041 158.116 124.585C159.202 119.446 160.563 114.386 162.555 109.521C163.703 106.715 165.419 104.279 167.686 102.247C167.966 101.996 168.338 101.8 168.403 101.278C167.678 100.742 166.847 100.261 166.182 99.6104C163.721 97.2007 162.512 94.2132 162.264 90.7909C161.982 86.9052 162.998 83.2366 163.98 79.5447C165.259 74.7312 166.334 69.8562 166.822 64.9029C167.006 63.0351 166.771 61.1175 167.32 59.2653C168.564 55.0693 170.813 51.5536 174.313 48.9641L176.001 47.8923C177.042 47.4383 178.143 47.085 179.119 46.3785L181.611 45.7369C183.531 45.4536 185.44 45.0939 187.363 44.8338C188.258 44.8164 190.264 44.8088 191.136 44.9168C193.95 45.2136 196.678 45.8819 199.182 47.2587C203.539 49.6552 206.042 53.6326 208.104 57.9512C209.679 61.25 210.786 64.7271 211.47 68.3096C212.555 73.9905 214.313 79.4643 216.209 84.9079C217.405 88.3404 217.775 91.823 216.484 95.3388C215.972 96.7305 215.058 97.8889 214.228 99.2065C215.262 99.787 216.242 100.318 217.204 100.88C222.856 104.177 225.591 109.194 225.807 115.664C226.003 121.509 224.41 127.068 223.017 132.654C222.64 134.165 222.209 135.669 221.709 137.144C220.667 140.216 220.206 143.345 220.313 146.601C220.42 149.852 220.312 153.11 220.306 156.364C220.303 158.062 220.326 158.083 222.068 158.087C225.271 158.093 228.475 158.09 231.678 158.094C232.067 158.094 232.459 158.089 232.845 158.134C233.284 158.185 233.768 158.293 233.734 158.864C233.705 159.354 233.267 159.428 232.861 159.444C232.472 159.459 232.082 159.458 231.693 159.458C225.199 159.457 218.706 159.461 212.213 159.445C211.544 159.444 210.935 159.511 210.377 159.924C206.91 162.488 203.015 162.518 198.957 161.995C194.62 161.436 190.361 160.522 186.103 159.574C185.521 159.444 184.9 159.46 184.297 159.46C138.326 159.456 92.3541 159.457 46.3826 159.457L34.8183 159.457C34.472 159.457 34.1212 159.492 33.7804 159.448C33.2416 159.379 32.3495 159.732 32.3928 158.782C32.4309 157.947 33.2876 158.113 33.8519 158.114C40.2565 158.121 46.6611 158.168 53.0657 158.163C54.4917 158.162 55.9159 158.036 57.3432 158.185C58.0449 158.259 58.3948 157.898 58.3578 157.181C58.3534 157.094 58.3625 157.007 58.3603 156.921C58.3361 155.968 58.5718 154.901 58.2164 154.095C57.8204 153.197 56.576 153.639 55.7465 153.342C55.1775 153.138 54.4785 153.037 54.0889 152.641C53.0068 151.542 52.0332 151.959 50.8653 152.475C48.0231 153.728 45.0419 154.079 41.9903 153.358C37.9219 152.396 34.9681 148.832 34.4516 144.557C33.7783 138.984 35.4278 133.839 37.1697 128.703C37.6982 127.144 38.3695 125.634 38.9613 124.097C39.3063 123.2 39.9702 122.356 39.2986 121.296C39.1768 121.104 39.3721 120.662 39.508 120.355L39.522 120.324C41.7984 115.168 44.078 110.014 46.3867 104.873C46.6486 104.29 47.0692 103.772 47.4524 103.251C48.0968 102.374 48.036 101.696 47.0301 101.13C45.6118 100.333 44.4266 99.2615 43.5897 97.8469C41.1681 93.7535 42.8627 87.1938 46.9642 84.7509C47.5734 84.388 48.2427 84.022 48.8983 84.4801C49.5017 84.9018 49.4143 85.6301 49.3126 86.282C48.9899 88.3489 49.3373 90.4412 49.0443 92.516C48.9132 93.4448 49.7858 93.6947 50.4671 93.947C52.1228 94.5602 53.6516 93.5709 53.7011 91.846C53.7522 90.0681 53.7441 88.2885 53.7772 86.5098C53.8082 84.8421 54.4952 84.4481 55.8872 85.3166C57.1167 86.0838 58.1616 87.0731 58.894 88.3237C59.3624 89.1234 59.8009 89.2766 60.6596 88.8573C65.2896 86.5968 69.9817 84.4701 74.9062 82.9238C76.2601 82.4987 76.9603 81.6426 77.3088 80.3139C77.8782 78.1432 77.9307 75.9375 77.8287 73.7278C77.737 71.7388 77.4859 69.7576 77.3664 67.7692C77.32 66.9971 77.0241 66.7019 76.2585 66.6994C73.6219 66.6909 71.8739 65.3552 70.8464 62.9719C69.9281 60.8421 69.0869 58.7047 69.8116 56.3201C69.8619 56.1544 69.8666 55.9483 69.9705 55.8294C71.8436 53.6853 70.7893 51.4189 70.4598 49.0659C69.4496 41.8521 70.9601 35.3416 76.5492 30.2277C80.2748 26.8188 84.7591 25.1884 89.7127 24.6954C93.9904 24.2697 98.1981 24.5754 102.19 26.2565C107.234 28.3811 110.521 32.0535 111.507 37.5666C111.616 38.1755 111.907 38.4844 112.43 38.6823C115.069 39.6821 117.261 41.3635 119.328 43.2359C119.751 43.6192 120.078 44.0636 120.349 44.5683C120.912 45.6193 120.669 46.3574 119.616 46.9236C118.142 47.7167 116.524 48.0374 114.925 48.3884C114.077 48.5749 113.787 48.931 113.794 49.7776C113.827 53.3339 113.844 56.8916 113.602 60.4431C113.226 65.9672 112.048 71.2662 108.9 75.9263C107.324 78.2606 105.253 80.0929 102.587 81.1597C102.201 81.3142 101.674 81.4105 101.716 81.9768C101.764 82.6174 102.35 82.4451 102.735 82.5198C105.008 82.961 107.087 83.9554 109.195 84.8432C112.739 86.3363 116.356 87.6739 119.535 89.945C124.15 93.2422 127.108 97.7466 129.069 102.955C129.499 104.097 130.077 104.562 131.198 104.593C134.181 104.674 137.163 104.775 140.27 104.869ZM171.64 140.472L197.767 144.879C198.549 145.003 199.249 145.118 199.916 145.227C199.917 145.227 199.917 145.227 199.918 145.228C200.35 145.299 200.768 145.367 201.187 145.435C201.681 145.515 202.244 145.538 202.303 144.903C202.352 144.379 201.847 144.278 201.417 144.192L201.385 144.185C201.163 144.141 200.944 144.083 200.671 144.011C200.533 143.975 200.381 143.935 200.209 143.891C200.346 143.432 200.484 142.979 200.62 142.531C200.912 141.568 201.199 140.623 201.472 139.674C201.597 139.239 201.722 138.804 201.847 138.369C201.999 137.838 202.152 137.306 202.305 136.775L202.305 136.774L202.305 136.773L202.306 136.772C202.519 136.03 202.733 135.287 202.946 134.544C204.44 129.343 205.931 124.141 207.387 118.929C207.433 118.764 207.514 118.575 207.598 118.376C207.884 117.704 208.213 116.932 207.372 116.712C206.553 116.498 206.436 117.317 206.333 118.043C206.301 118.272 206.269 118.492 206.218 118.666C203.907 126.52 201.646 134.389 199.42 142.267C199.075 143.489 198.517 143.763 197.274 143.542C196.472 143.399 195.67 143.256 194.868 143.113L194.867 143.112C187.165 141.738 179.461 140.363 171.721 139.243C171.368 139.192 171.016 139.151 170.666 139.111L170.666 139.11C169.488 138.973 168.331 138.839 167.218 138.328C166.314 137.913 165.968 137.311 165.993 136.292C166.022 135.136 165.995 133.981 165.968 132.825C165.927 131.079 165.887 129.332 166.038 127.583C166.386 123.538 167.319 119.646 168.78 115.868C168.824 115.756 168.883 115.634 168.944 115.507C169.204 114.966 169.505 114.342 168.811 114.06C168.077 113.764 167.911 114.397 167.762 114.961L167.762 114.962C167.722 115.116 167.683 115.264 167.634 115.388C165.435 120.938 164.474 126.707 164.595 132.675C164.603 133.046 164.662 133.415 164.722 133.788C164.835 134.491 164.95 135.208 164.726 135.981C164.199 135.839 163.906 135.459 163.626 135.095C163.577 135.032 163.529 134.969 163.48 134.909C162.142 133.248 160.655 131.739 158.973 130.428C158.544 130.093 158.219 129.783 158.37 129.135C158.664 127.875 158.943 126.612 159.222 125.348C160.015 121.751 160.808 118.154 161.962 114.649C163.324 110.513 164.848 106.468 168.208 103.423C170.504 101.343 173.142 99.9413 176.054 98.9773C176.712 98.7595 177.114 98.8201 177.344 99.5419C179.112 105.098 185.052 107.995 191.574 106.034C196.33 104.605 200.394 102.05 203.226 97.8204C203.567 97.3123 203.922 97.1357 204.523 97.306C208.649 98.4753 212.742 99.7184 216.478 101.912C221.163 104.664 223.793 108.642 224.421 114.133C224.993 119.135 223.866 123.87 222.739 128.601C222.657 128.946 222.575 129.291 222.493 129.636C220.909 136.345 218.819 142.918 216.326 149.349C215.274 152.062 213.917 154.613 212.009 156.87C209.956 159.297 207.31 160.68 204.287 160.972C201.954 161.198 199.523 160.911 197.19 160.523C187.451 158.902 177.931 156.371 168.554 153.289C168.455 153.257 168.365 153.2 168.238 153.122C168.167 153.077 168.083 153.026 167.98 152.967C170.87 149.704 171.202 145.711 171.543 141.606L171.543 141.605C171.575 141.228 171.606 140.85 171.64 140.472ZM61.8301 158.09H61.8294C60.7066 158.108 60.1437 158.117 59.8614 157.84C59.5775 157.561 59.5772 156.992 59.5765 155.851C59.3961 154.168 59.8466 153.232 61.1368 152.289C64.6367 149.729 64.7875 145.886 61.7824 142.627C60.8289 141.593 60.9467 140.202 62.0323 139.278C63.5743 137.966 64.5046 136.379 64.0972 134.262C64.0156 133.838 64.1086 133.501 64.3403 133.164C68.2933 127.414 70.6784 120.97 72.6361 114.335C72.6706 114.218 72.7049 114.101 72.7393 113.983C72.7397 113.982 72.74 113.981 72.7403 113.98C72.7407 113.979 72.741 113.978 72.7414 113.976C73.1803 112.482 73.6258 110.965 74.4331 109.295C74.5008 109.708 74.5671 110.093 74.6303 110.46L74.6304 110.461C74.7668 111.254 74.8885 111.961 74.9778 112.673C75.0866 113.541 75.2863 114.379 75.5928 115.191C75.9481 116.133 76.6516 116.691 77.6501 116.727C78.7718 116.769 79.9084 116.796 81.0188 116.663C83.0238 116.424 83.7933 115.404 83.5592 113.385C83.4149 112.14 83.233 110.899 83.0482 109.639C82.9658 109.077 82.8829 108.512 82.8025 107.94C82.8707 107.922 82.9334 107.9 82.9924 107.881C83.1088 107.841 83.211 107.807 83.3136 107.805C85.5824 107.778 87.8513 107.752 90.1202 107.727C93.9085 107.684 97.6967 107.642 101.485 107.588C102.954 107.568 104.423 107.476 105.89 107.38C106.778 107.321 107.244 107.573 107.288 108.578C107.327 109.472 107.413 110.364 107.499 111.256L107.499 111.256L107.499 111.256L107.499 111.257L107.499 111.257C107.579 112.089 107.659 112.92 107.701 113.754C107.763 114.97 108.301 115.66 109.511 115.654C109.947 115.652 110.387 115.677 110.828 115.701C112.241 115.78 113.67 115.859 115.073 115.071C116.02 116.185 115.959 117.498 115.616 118.726C114.878 121.362 114.06 123.977 113.242 126.591C113.241 126.594 113.24 126.597 113.239 126.6C113.062 127.165 112.885 127.731 112.709 128.296C112.133 130.149 111.515 131.988 110.822 133.821C110.753 132.26 110.715 130.701 110.677 129.145V129.144L110.677 129.143V129.142C110.639 127.559 110.601 125.977 110.529 124.396C110.472 123.157 110.029 122.817 108.898 122.871C100.532 123.271 92.16 123.339 83.7874 123.408C82.7296 123.417 81.6718 123.425 80.614 123.435C78.7175 123.451 78.6184 123.523 78.716 125.468C78.8785 128.706 78.8862 131.945 78.894 135.185C78.8994 137.454 78.9048 139.723 78.9634 141.991C78.9665 142.113 78.9613 142.249 78.9559 142.391C78.9308 143.044 78.9012 143.816 79.6657 143.817C80.4977 143.819 80.4033 143.113 80.3211 142.499C80.2983 142.328 80.2764 142.165 80.2755 142.026C80.2407 136.735 80.1612 131.444 80.0691 126.153C80.054 125.285 80.2068 124.799 81.2541 124.783C86.8297 124.694 92.4049 124.584 97.9802 124.473C101.186 124.409 104.393 124.346 107.599 124.286C109.288 124.255 109.308 124.285 109.316 126.02C109.325 127.622 109.326 129.224 109.328 130.827C109.33 133.129 109.333 135.432 109.354 137.735C109.363 138.702 109.099 139.6 108.836 140.497C108.784 140.675 108.731 140.853 108.681 141.032C108.071 143.201 107.433 145.361 106.795 147.521C106.537 148.393 106.28 149.266 106.024 150.138C105.64 151.448 105.944 151.875 107.36 151.916C109.021 151.965 110.682 152.005 112.344 152.045C112.345 152.045 112.347 152.045 112.349 152.045C113.972 152.084 115.594 152.123 117.217 152.17C118.048 152.194 118.88 152.229 119.711 152.265L119.711 152.265C120.824 152.312 121.936 152.359 123.049 152.379C123.86 152.394 124.111 152.758 124.069 153.505C124.001 154.717 123.955 155.93 123.92 157.144C123.895 158.058 123.324 158.145 122.593 158.137C119.434 158.104 116.275 158.09 113.116 158.09C100.473 158.087 87.8308 158.087 75.1881 158.088C70.9519 158.088 66.7156 158.088 62.4793 158.088C62.4221 158.088 62.3649 158.088 62.3077 158.088C62.1485 158.087 61.9893 158.087 61.8301 158.09ZM142.114 143.262C143.063 143.827 144.009 144.395 144.955 144.964C145.382 145.22 145.809 145.477 146.235 145.733C147.692 146.246 148.232 146.939 147.513 148.323C147.3 148.736 147.227 149.242 147.156 149.739C147.045 150.515 146.938 151.268 146.301 151.606C145.619 151.967 144.686 151.88 143.773 151.795C143.462 151.766 143.154 151.737 142.859 151.727C139.644 151.609 136.43 151.485 133.215 151.361C133.214 151.361 133.212 151.36 133.21 151.36C128.388 151.174 123.565 150.987 118.742 150.825C116.663 150.755 114.582 150.739 112.501 150.724C111.292 150.715 110.082 150.706 108.873 150.686C108.773 150.685 108.671 150.691 108.567 150.697C108.199 150.72 107.812 150.744 107.431 150.417C107.611 149.777 107.794 149.136 107.977 148.492C108.379 147.082 108.784 145.662 109.16 144.235C110.228 140.183 111.547 136.21 112.866 132.238C113.882 129.178 114.898 126.119 115.799 123.024C116.365 121.079 116.985 119.151 117.605 117.222C118.708 113.79 119.811 110.358 120.61 106.837C120.848 105.788 121.303 105.457 122.382 105.505C132.623 105.955 142.867 106.362 153.11 106.755C154.307 106.801 155.505 106.789 156.746 106.776H156.746H156.747H156.747H156.748C157.334 106.77 157.928 106.764 158.536 106.764C158.273 108.427 157.824 109.88 157.386 111.296L157.386 111.297C157.248 111.744 157.111 112.187 156.981 112.632C156.309 114.936 155.62 117.236 154.931 119.535C154.239 121.843 153.547 124.15 152.873 126.463C152.62 127.332 152.198 127.613 151.3 127.555C150.959 127.533 150.618 127.509 150.277 127.485C148.033 127.329 145.79 127.172 143.53 127.487C141.138 127.82 140.492 128.547 140.873 130.874C140.722 131.163 140.459 131.194 140.196 131.226C140.075 131.24 139.954 131.255 139.844 131.295C138.158 131.912 137.656 132.898 138.243 134.611C138.392 135.046 138.392 135.448 138.302 135.883C138.284 135.972 138.258 136.068 138.232 136.168C138.147 136.49 138.056 136.838 138.183 137.009C138.74 137.759 139.099 138.633 139.458 139.507C140.05 140.946 140.641 142.385 142.114 143.262ZM82.3483 47.2098C86.0452 48.9287 89.7235 49.2249 93.4485 47.7597C95.9331 46.7858 98.1952 45.8132 100.629 45.3052C104.118 44.5768 107.637 44.2746 111.195 44.3211C111.915 44.3305 112.391 44.5912 112.373 45.3678C112.213 52.5043 113.057 59.6909 111.352 66.7512C110.572 69.9777 109.453 73.0611 107.427 75.7458C103.958 80.3433 99.2045 81.481 93.7936 80.8301C90.5168 80.436 87.6433 79.1333 85.1895 76.9129C85.061 76.7967 84.9353 76.6746 84.7936 76.5763C84.5103 76.3797 84.203 76.12 83.8631 76.4132C83.4566 76.764 83.6896 77.1552 83.9474 77.4417C84.9114 78.5128 86.0348 79.415 87.2913 80.0985C90.9024 82.0629 94.7864 82.6793 98.8437 82.2221C100.388 82.0481 100.537 82.0903 100.438 83.6489C100.149 88.1812 97.6253 91.3518 94.1188 93.9042C93.7499 94.1727 93.4065 94.0667 93.0239 93.9129C88.3707 92.0426 84.0124 89.6787 80.281 86.2693C79.7715 85.8038 79.2894 85.2937 78.8709 84.7457C78.0635 83.6884 77.6983 82.7069 78.2639 81.2097C79.4317 78.1191 79.16 74.8085 78.9598 71.5592C78.8614 69.9611 78.6623 68.3695 78.5326 66.7731C78.4402 65.6359 78.1938 64.9725 76.7211 65.2384C74.5547 65.6295 73.0673 64.6979 72.0922 62.7081C71.302 61.0956 70.7565 59.4303 70.9085 57.5795C71.1227 54.971 73.1399 53.5866 75.6473 54.4048C76.9729 54.8374 77.9579 55.6853 78.747 56.846C79.6864 58.228 80.207 58.1498 81.0439 56.6871C82.5593 54.0385 82.6913 51.1725 82.4189 48.2359C82.3952 47.9803 82.3832 47.7237 82.3483 47.2098ZM181.571 99.6078C182.128 99.6509 182.136 99.2 182.12 98.7901C182.084 98.6092 182.06 98.5079 182.043 98.437C182.033 98.3918 182.025 98.359 182.019 98.3258C181.471 95.2784 181.472 95.2778 184.345 94.411L184.39 94.3974C186.978 93.6166 189.32 92.3001 191.64 90.9496C191.661 90.9371 191.683 90.9244 191.706 90.9114C192.122 90.6717 192.692 90.3433 192.297 89.7688C191.954 89.2706 191.506 89.5542 191.113 89.8031C191.049 89.8436 190.987 89.8832 190.926 89.9184C188.603 91.2712 186.255 92.5667 183.647 93.3015C178.944 94.6268 175.077 93.1593 172.42 89.0702C170.806 86.5866 169.944 83.8612 169.565 80.9314C169.033 76.8252 168.875 72.7302 169.621 68.6404C170.444 64.1295 172.653 60.4714 176.434 57.8327C177.043 57.4074 177.677 57.0172 178.311 56.6269C178.71 56.3814 179.109 56.1359 179.502 55.8815C180.043 55.5314 180.386 55.6121 180.774 56.1719C183.975 60.7899 188.089 64.353 193.151 66.7999C195.191 67.7861 196.639 69.323 197.464 71.4463C197.605 71.8092 197.76 72.1736 197.962 72.5044C198.524 73.4242 199.133 73.4549 199.779 72.6227C201.03 71.0105 201.755 70.6856 203.103 71.1323C204.602 71.6289 205.137 72.4839 205.152 74.4776C205.164 76.1409 205.022 77.7779 204.069 79.2192C203.156 80.5997 202.214 80.9608 200.629 80.4355C199.772 80.1512 199.305 80.2972 199.179 81.2514C199.13 81.6194 199.082 81.9875 199.034 82.3556C198.808 84.0879 198.582 85.8207 198.294 87.5427C197.849 90.1994 198.565 92.5912 199.701 94.9442C200.164 95.9042 201.012 96.1331 201.892 96.3707C202.061 96.4164 202.231 96.4624 202.4 96.514C202.119 97.5445 201.538 98.246 200.925 98.9004C197.309 102.761 192.911 105.013 187.593 105.343C183.746 105.581 179.75 102.866 178.548 99.1848C178.533 99.1384 178.517 99.0912 178.5 99.0434C178.318 98.5086 178.115 97.9127 179.011 97.7829C179.148 97.7631 179.296 97.7223 179.446 97.6809C180.061 97.511 180.715 97.3305 180.794 98.5431C180.822 98.972 180.968 99.5611 181.571 99.6078ZM44.0631 140.082C44.0708 140.121 44.0783 140.16 44.0858 140.199C44.1843 140.713 44.287 141.249 45.0368 141.204C45.5923 140.834 45.5125 140.444 45.4183 140.059C44.3228 135.584 44.8147 131.105 45.3888 126.626C45.6532 124.563 46.0277 122.524 46.5649 120.509C47.1295 118.392 48.1514 117.02 50.5684 116.753C51.0508 116.699 51.5321 116.639 52.0129 116.578L52.014 116.578L52.0152 116.578C54.3206 116.288 56.6127 115.999 58.9355 116.52C61.1296 117.013 62.134 118.138 62.0711 119.87C62.0374 120.797 61.6012 121.126 60.7429 120.962C60.5799 120.931 60.4164 120.901 60.2526 120.871C59.6065 120.754 58.9582 120.636 58.3399 120.431C56.4988 119.822 54.6729 120.08 52.8451 120.339C52.5846 120.376 52.3241 120.413 52.0636 120.447C51.502 120.522 50.8045 120.621 50.9873 121.406C51.1591 122.144 51.8714 122.017 52.4031 121.885C54.4072 121.39 56.4102 121.284 58.4413 121.697C59.2962 121.871 60.1181 122.122 60.8865 122.533C61.6677 122.952 62.1144 123.623 62.227 124.494C62.3772 125.654 61.6959 126.293 60.5409 126.057L60.3631 126.021C58.0446 125.547 55.7305 125.074 53.3572 125.69C53.2741 125.711 53.1853 125.729 53.0952 125.748C52.6117 125.847 52.0937 125.953 52.2537 126.62C52.4229 127.327 53.1282 127.188 53.6835 127.075C56.1476 126.572 58.5655 126.571 60.9312 127.581C62.1789 128.114 62.6856 129.072 62.6724 130.353C62.6603 131.519 62.2652 131.777 61.1248 131.441C58.9917 130.813 56.8409 130.405 54.6159 130.911C54.5296 130.931 54.4422 130.947 54.3549 130.964C54.1872 130.995 54.0196 131.026 53.8602 131.081C53.4865 131.21 53.0674 131.38 53.1388 131.864C53.2279 132.469 53.7671 132.421 54.1699 132.348C55.4529 132.115 56.733 131.997 58.0398 132.072C58.9129 132.121 59.743 132.299 60.5801 132.538C61.7877 132.883 62.8378 133.453 62.9543 134.796C63.0754 136.192 62.469 137.368 61.2985 138.27C60.7212 136.379 58.2224 135.033 56.1879 135.437C53.5639 135.959 53.2904 136.353 53.2175 139.09C53.2079 139.449 53.2266 139.812 53.2453 140.176C53.3058 141.355 53.3668 142.542 52.4709 143.588C52.4642 143.596 52.4575 143.604 52.4508 143.612C52.442 143.622 52.4333 143.632 52.4246 143.643C52.4129 143.656 52.4012 143.67 52.3896 143.684C52.3726 143.704 52.3557 143.724 52.3388 143.744C51.9658 144.188 51.6276 144.59 50.991 144.739C50.2142 144.92 50.068 145.379 50.815 145.859C50.8333 145.87 50.8514 145.882 50.8694 145.893L50.8702 145.894C51.0836 146.028 51.2685 146.145 51.2037 146.436C50.889 147.848 51.2716 149.177 51.7665 150.434C49.1618 152.418 42.3802 153.605 38.7616 150.398C36.738 148.604 35.9117 146.295 35.6762 143.735C35.3084 139.739 36.154 135.89 37.3451 132.107C38.2438 129.252 39.3472 126.473 40.4725 123.702C40.8008 122.893 41.1704 122.719 42.0347 122.94C42.0812 122.952 42.1268 122.964 42.1716 122.976C43.3696 123.283 43.9748 123.438 44.2292 123.825C44.489 124.22 44.3832 124.856 44.1694 126.143C44.1671 126.156 44.1649 126.17 44.1626 126.183C43.9996 127.164 43.8555 128.163 43.8572 129.154C43.8594 130.45 43.3298 131.242 42.1373 131.745C41.1031 132.181 40.1352 132.789 39.3463 133.614C39.3334 133.627 39.3205 133.641 39.3075 133.654C38.879 134.101 38.421 134.579 38.8096 135.507C39.4193 135.184 39.9646 134.756 40.5076 134.331C41.3672 133.657 42.2213 132.987 43.3167 132.742C43.6449 133.165 43.6074 133.618 43.5714 134.053C43.5618 134.17 43.5522 134.286 43.5499 134.399C43.5114 136.315 43.6873 138.207 44.0631 140.082ZM71.7897 48.487C70.6518 41.0168 73.0221 33.0143 81.4108 28.3556C88.7123 25.2042 95.8777 24.7304 103.017 28.1669C106.981 30.0748 109.306 33.3268 110.25 37.8106C103.301 36.5672 96.5573 37.4762 89.8264 38.9381C83.3616 40.3421 78.1022 44.0443 72.7677 47.7993L72.7669 47.7999C72.4415 48.0289 72.1159 48.2581 71.7897 48.487ZM83.8161 106.437C83.7515 106.437 83.6859 106.439 83.6203 106.441C83.0358 106.459 82.4417 106.478 82.3605 105.605C80.9405 98.0355 79.2375 90.7702 76.0184 84.0022C76.6465 83.5357 76.9127 83.8341 77.105 84.1964C79.0332 87.8301 82.3946 89.857 85.7674 91.8053C87.2777 92.6776 88.8564 93.4302 90.4355 94.183L90.4358 94.1832C91.2804 94.5858 92.125 94.9885 92.9593 95.4095C93.6439 95.755 94.1584 95.5975 94.7283 95.1397C98.3385 92.2397 101.225 88.8937 101.731 84.0305C101.736 83.9822 101.781 83.9381 101.825 83.894C101.846 83.8735 101.867 83.8529 101.884 83.8319C104.087 83.9195 104.597 84.3241 105.14 86.3853C105.927 89.3758 106.204 92.4381 106.481 95.4988C106.539 96.1431 106.598 96.7874 106.661 97.4309C106.79 98.7488 106.873 100.071 106.956 101.394C107.02 102.405 107.084 103.417 107.168 104.427C107.297 105.969 107.164 106.159 105.616 106.178C98.3496 106.265 91.0829 106.353 83.8161 106.437ZM57.1964 113.943C57.1188 112.811 56.9934 111.682 56.868 110.553C56.8164 110.089 56.7649 109.625 56.7166 109.161C56.6942 108.513 56.6732 107.879 56.6525 107.256C56.5895 105.356 56.5299 103.561 56.4443 101.768C56.4095 101.04 56.6637 100.548 57.2416 100.119C60.0463 98.0395 60.829 95.1272 60.4191 91.8332C60.2933 90.8221 60.542 90.3176 61.4377 89.9245C63.2603 89.1249 65.0698 88.2888 66.8439 87.387C67.9169 86.8414 68.457 87.0962 68.9205 88.194C71.192 93.5746 72.5211 99.2165 73.698 104.909C73.9175 105.97 73.8515 106.93 73.4502 107.934C72.5286 110.241 71.7958 112.614 71.0631 114.987C70.2224 117.709 69.3816 120.431 68.2556 123.055C68.0384 123.561 67.8139 124.064 67.4894 124.55C67.7445 123.629 67.6835 122.707 67.3455 121.89C66.6581 120.229 66.9748 118.62 67.2918 117.01C67.3646 116.64 67.4373 116.271 67.498 115.9C67.5817 115.389 67.6929 114.883 67.8042 114.377C67.8881 113.995 67.972 113.612 68.0442 113.228C68.0525 113.184 68.0618 113.138 68.0713 113.091L68.0714 113.09C68.1672 112.617 68.2779 112.071 67.6208 111.943C66.9601 111.814 66.8407 112.397 66.7442 112.867C66.7364 112.905 66.7288 112.942 66.721 112.978C66.4167 114.393 66.1331 115.812 65.8419 117.269C65.8417 117.27 65.8415 117.271 65.8413 117.272C65.7325 117.817 65.6227 118.366 65.5103 118.923C64.3611 118.929 63.3665 118.801 62.6596 117.56C61.7329 115.934 60.0534 115.336 58.3011 115.063C57.5737 114.949 57.2491 114.711 57.1964 113.943ZM139.663 136.18C141.587 136.237 143.411 136.523 145.233 136.834C145.964 137.01 146.669 137.18 147.357 137.347L147.358 137.347C147.365 137.349 147.372 137.35 147.379 137.352C147.383 137.353 147.387 137.354 147.391 137.355C147.396 137.356 147.401 137.357 147.406 137.359C148.681 137.667 149.899 137.961 151.117 138.253C151.636 138.377 152.265 138.494 152.457 137.868C152.666 137.182 152.023 137.033 151.541 136.921L151.504 136.912C150.846 136.759 150.191 136.594 149.535 136.43L149.535 136.43C147.215 135.848 144.895 135.265 142.481 135.178C141.518 135.143 140.58 134.992 139.782 134.396C139.765 134.384 139.749 134.372 139.733 134.359C139.435 134.139 139.106 133.895 139.173 133.469C139.248 132.989 139.625 132.764 140.073 132.642C141.606 132.224 143.177 132.271 144.714 132.451C147.503 132.777 150.249 133.381 152.971 134.084C153.302 134.17 153.649 134.23 153.989 134.235C154.322 134.239 154.564 134.045 154.603 133.687C154.634 133.397 154.493 133.187 154.235 133.064L154.23 133.062C154.076 132.988 153.917 132.913 153.752 132.877C153.011 132.717 152.273 132.545 151.534 132.372L151.534 132.372L151.533 132.372L151.533 132.372L151.533 132.372C149.411 131.877 147.289 131.382 145.111 131.182C144.372 131.114 143.654 130.994 142.962 130.74C142.497 130.57 142.067 130.282 142.086 129.73C142.104 129.165 142.547 129.086 142.973 129.009C143.025 128.999 143.077 128.99 143.128 128.98C145.444 128.515 147.774 128.65 150.104 128.823C150.333 128.84 150.562 128.869 150.791 128.898C151.076 128.933 151.362 128.969 151.649 128.982C154.622 129.119 157.225 130.101 159.306 132.302C159.634 132.65 159.977 132.987 160.32 133.324C161.064 134.056 161.807 134.787 162.404 135.623C164.003 137.861 166.071 139.422 168.591 140.365C170.003 140.893 170.422 141.624 170.197 143.17C169.827 145.715 169.427 148.208 168.284 150.546C167.791 151.556 167.297 151.71 166.283 151.17C163.898 149.899 161.298 149.497 158.616 149.702C157.725 149.77 156.909 149.663 156.108 149.251C154.822 148.591 153.518 147.965 152.214 147.34L152.214 147.339L152.214 147.339L152.213 147.339L152.213 147.339C149.148 145.868 146.082 144.398 143.259 142.473C143.128 142.384 142.991 142.299 142.853 142.212C142.174 141.789 141.456 141.341 141.242 140.321C142.088 140.343 142.804 140.607 143.503 140.864C143.728 140.947 143.951 141.03 144.177 141.103C144.931 141.349 145.672 141.635 146.412 141.921C147.607 142.383 148.803 142.844 150.056 143.137C150.066 143.139 150.076 143.141 150.085 143.144C150.097 143.146 150.109 143.149 150.121 143.152C150.122 143.152 150.122 143.152 150.123 143.152L150.124 143.153C150.544 143.252 150.991 143.358 151.154 142.834C151.324 142.289 150.82 142.062 150.428 141.921C148.876 141.365 147.318 140.821 145.76 140.278C145.759 140.277 145.757 140.277 145.755 140.276C144.824 139.952 143.893 139.627 142.963 139.299C142.854 139.261 142.745 139.223 142.635 139.184C142.635 139.184 142.634 139.184 142.633 139.184C141.967 138.951 141.3 138.718 140.66 138.426C139.717 137.997 139.336 137.27 139.663 136.18ZM49.4375 103.649C49.2686 101.904 48.9643 100.271 47.0126 99.6188C42.2064 96.0919 42.6991 88.4447 47.7588 85.7296C48.1033 85.9286 48.0728 86.2419 48.0438 86.539C48.036 86.6193 48.0282 86.6985 48.0281 86.7738C48.0245 88.509 48.0045 90.2447 47.9576 91.9792C47.8996 94.1237 49.16 95.4098 51.3002 95.2968C52.0327 95.2581 52.7481 95.0817 53.4287 94.7681C54.4313 94.3061 54.9496 93.6231 54.9174 92.4417C54.9154 92.3654 54.9133 92.289 54.9111 92.2126C54.8608 90.3929 54.81 88.5569 55.2545 86.6341C57.5594 87.6555 58.5018 89.6138 59.0781 91.7635C59.8434 94.618 58.7213 97.5266 56.2953 99.1356C55.5087 99.6573 55.2333 100.279 55.2361 101.187C55.2487 105.264 55.4589 109.331 55.8117 113.39C55.9209 114.645 55.5596 115.15 54.2714 115.041C53.5944 114.983 52.886 115.091 52.2136 115.23C51.1416 115.452 50.5886 115.14 50.4807 113.984C50.3038 112.088 50.1069 110.195 49.9101 108.301C49.7489 106.751 49.5877 105.2 49.4375 103.649ZM147.923 151.788C147.955 151.349 148.087 150.917 148.219 150.486C148.279 150.291 148.338 150.096 148.389 149.9C148.641 148.949 148.863 148.208 149.169 147.184C149.677 147.448 150.181 147.709 150.68 147.967C152.036 148.669 153.362 149.355 154.678 150.06C155.058 150.264 154.99 150.64 154.925 151.003C154.919 151.04 154.912 151.077 154.906 151.114C154.805 151.716 154.688 152.316 154.571 152.916C154.291 154.354 154.01 155.791 153.955 157.263C153.929 157.947 153.586 158.128 152.954 158.127C149.438 158.124 145.923 158.126 142.407 158.129C142.402 158.129 142.397 158.129 142.392 158.129C137.653 158.132 132.913 158.136 128.174 158.124C125.283 158.117 125.283 158.072 125.282 155.138V155.138C125.282 155.129 125.282 155.12 125.282 155.11C125.282 153.662 125.281 152.958 125.631 152.64C125.963 152.339 126.61 152.386 127.87 152.478C127.985 152.487 128.104 152.495 128.228 152.504C130.83 152.69 133.44 152.763 136.05 152.836L136.051 152.836L136.051 152.836L136.051 152.836L136.052 152.836L136.052 152.836C137.244 152.869 138.436 152.902 139.628 152.946C140.088 152.963 140.549 152.98 141.01 152.996C142.707 153.055 144.405 153.115 146.1 153.218C147.187 153.284 147.833 152.998 147.923 151.788ZM79.5425 44.5984L81.9299 43.2089C87.2303 40.4869 92.7632 39.4031 98.4365 38.8839C101.755 38.5802 105.085 38.3628 108.397 38.8997C111.77 39.4465 114.683 41.0205 117.309 43.1631C117.412 43.2469 117.494 43.3555 117.6 43.4948C117.658 43.5702 117.722 43.6547 117.8 43.7492C117.18 43.9822 116.645 43.8349 116.139 43.6955C115.958 43.6456 115.78 43.5967 115.604 43.5666C108.306 42.3211 101.231 42.9263 94.4721 46.1043C90.625 47.9132 86.8065 47.9142 82.9651 46.126C82.2626 45.7989 81.5533 45.4864 80.7662 45.1396C80.3798 44.9694 79.9748 44.7909 79.5425 44.5984ZM79.1576 96.6857C80.0826 100.425 80.7786 104.209 81.4704 107.995C81.5973 108.877 81.7241 109.715 81.8473 110.53C82.0063 111.581 82.1593 112.593 82.2987 113.606C82.4394 114.629 82.0485 115.291 80.9276 115.367C80.7585 115.378 80.5907 115.409 80.4229 115.44C80.2506 115.472 80.0783 115.504 79.9047 115.514C77.1848 115.68 76.5733 115.149 76.1991 112.428C74.9983 103.697 73.1897 95.1191 69.7534 86.9556C69.7119 86.8571 69.683 86.7533 69.6398 86.5979C69.6145 86.5067 69.5842 86.3977 69.5435 86.2616C70.0057 86.0922 70.4658 85.92 70.925 85.748L70.926 85.7476C72.07 85.3193 73.209 84.8928 74.3645 84.5176C74.8944 84.3456 75.0512 84.7848 75.1886 85.1698C75.2175 85.2508 75.2455 85.3294 75.276 85.3993C76.8691 89.0572 78.1977 92.8059 79.1576 96.6857ZM115.104 104.211C115.138 102.693 114.955 101.169 114.771 99.6455C114.689 98.9708 114.608 98.2961 114.546 97.6218C114.08 94.3073 113.643 91.2264 112.87 88.1866C117.98 88.6408 127.227 98.4331 127.91 104.118C127.3 104.442 126.649 104.388 126.002 104.334C125.806 104.318 125.61 104.302 125.416 104.296C123.948 104.254 122.48 104.181 121.014 104.085C120.153 104.028 119.803 104.396 119.642 105.242C119.328 106.888 118.929 108.523 118.134 110.308C117.794 109.758 117.413 109.253 117.04 108.757C116.023 107.408 115.06 106.129 115.104 104.211ZM108.847 111.414C108.576 109.183 108.459 106.942 108.342 104.702C108.28 103.527 108.219 102.352 108.135 101.178C108.03 100.019 107.94 98.8691 107.85 97.7253C107.518 93.502 107.193 89.3609 106.138 85.1398L106.174 85.1522C107.903 85.7409 109.422 86.2581 110.859 86.9966C111.314 87.23 111.432 87.6976 111.544 88.1426L111.544 88.1432L111.544 88.1437L111.545 88.144C111.56 88.2046 111.575 88.2647 111.591 88.3238C112.382 91.2555 112.782 94.2576 113.172 97.2621C113.55 100.179 113.768 103.109 113.986 106.04L113.986 106.041C114.124 107.9 114.262 109.76 114.442 111.616C114.644 113.71 114.08 114.317 112.057 114.289C109.192 114.248 109.191 114.244 108.858 111.501L108.847 111.414ZM61.1835 143.861C63.0533 145.574 63.0412 148.223 61.3654 150.44C58.7326 152.72 56.3709 152.905 54.1462 151.128C52.1519 149.535 51.5239 146.997 53.1585 144.9C54.5063 143.17 54.6281 141.436 54.6054 139.475C54.6033 139.294 54.5807 139.099 54.5577 138.901C54.4705 138.147 54.3763 137.333 55.3639 136.972C56.6822 136.491 58.0076 136.684 59.257 137.319C59.653 137.52 59.7396 137.938 59.7777 138.317C59.8597 139.134 59.9332 139.958 59.9145 140.778C59.8865 142.009 60.2049 142.965 61.1835 143.861ZM45.227 120.448C44.6897 122.25 44.6349 122.261 42.7639 121.833C41.9249 121.664 41.3228 121.455 40.6762 121.035C41.7704 118.06 43.0962 115.201 44.421 112.344C45.6231 109.752 46.8243 107.161 47.8506 104.489C48.3097 104.682 48.3112 104.992 48.3123 105.252C48.3126 105.312 48.3129 105.37 48.3188 105.422C48.6587 108.471 48.9719 111.523 49.2685 114.576L49.2691 114.583C49.3178 115.085 49.371 115.632 48.7299 115.894C46.6866 116.73 45.816 118.471 45.227 120.448ZM157.561 151.054C157.717 151.117 157.899 151.113 158.081 151.11C158.165 151.108 158.249 151.106 158.33 151.111C160.393 150.586 162.14 151.007 163.883 151.569C164.507 151.771 164.669 152.159 164.569 152.755L164.523 153.023C164.523 153.024 164.523 153.024 164.523 153.025C164.28 154.466 164.036 155.908 163.817 157.353C163.715 158.023 163.316 158.174 162.72 158.151C160.608 158.067 158.497 158.017 156.386 158.195C155.44 158.275 155.013 157.826 155.17 156.871C155.26 156.323 155.353 155.774 155.446 155.226C155.62 154.202 155.793 153.177 155.948 152.15C156.095 151.167 156.456 150.607 157.561 151.054ZM180.574 158.124C179.787 158.037 179.012 158.095 178.241 158.153C177.844 158.183 177.448 158.213 177.051 158.223C173.54 158.011 170.258 158.006 166.979 158.197C164.99 158.313 164.813 158.147 165.225 156.108C165.292 155.776 165.339 155.44 165.387 155.097C165.49 154.355 165.598 153.584 165.925 152.772C166.471 153.756 167.341 154.052 168.222 154.352C168.339 154.392 168.456 154.432 168.573 154.474C172.509 155.877 176.46 157.221 180.574 158.124ZM212.707 157.9C215.373 155.02 216.844 151.55 218.196 148.016C218.437 147.352 218.607 146.871 218.778 146.391L218.78 146.385L218.95 146.4L218.95 149.02C218.95 149.059 218.95 149.098 218.95 149.137C218.95 151.787 218.95 154.436 218.949 157.086C218.949 157.619 218.783 158.057 218.165 158.063C216.403 158.079 214.64 158.068 212.707 157.9ZM63.2026 126.066C63.5127 125.312 63.547 124.563 63.3191 123.791C62.1963 122.521 62.8192 121.557 63.4156 120.634L63.4159 120.634C63.4569 120.57 63.4979 120.507 63.5381 120.444C63.9189 119.845 65.0578 120.074 65.6396 120.815C66.7208 122.193 66.2528 126.175 64.8804 127.226C64.3107 127.662 63.6153 127.737 63.0534 127.396C62.5442 127.087 62.7811 126.735 63.0066 126.4C63.0831 126.286 63.1583 126.174 63.2026 126.066ZM118.97 45.6458C118.666 46.0431 118.325 46.1429 118.006 46.2365C117.917 46.2626 117.829 46.2882 117.745 46.3197C116.603 46.6296 115.645 46.8764 114.685 47.1115C114.673 47.1143 114.662 47.1172 114.651 47.12C114.64 47.1226 114.63 47.1252 114.62 47.1277C114.306 47.2069 113.968 47.2921 113.798 46.8756C113.531 46.2198 113.433 45.5182 113.713 44.8668C113.857 44.532 114.239 44.6187 114.563 44.6919C114.58 44.6959 114.598 44.6999 114.615 44.7037C114.62 44.7049 114.625 44.706 114.63 44.7071C114.637 44.7086 114.644 44.71 114.651 44.7115C115.681 44.9345 116.712 45.1574 117.778 45.388L118.97 45.6458ZM115.611 109.221C115.826 109.564 116.098 109.887 116.369 110.209C117.195 111.191 118.02 112.172 117.258 113.751C117.198 113.908 117.155 114.056 117.115 114.194C117.019 114.525 116.938 114.804 116.67 115.054C115.55 113.925 115.612 112.578 115.673 111.235C115.704 110.553 115.735 109.872 115.611 109.221ZM65.9336 128.208L64.8312 130.23C64.4059 130.895 64.0794 131.402 63.7528 131.909C63.7759 131.702 63.8078 131.496 63.8397 131.29C63.947 130.597 64.0537 129.909 63.8218 129.179C64.0965 129.035 64.3853 128.931 64.6725 128.829C65.1156 128.67 65.555 128.513 65.9336 128.208Z" fill="var(--fill-0, black)"/>
<path id="Vector_2" d="M103.091 67.4416C101.687 68.3478 100.267 68.4637 98.7783 68.0707C98.3282 67.9518 97.9065 67.7331 98.0053 67.2073C98.113 66.6336 98.6057 66.7368 99.0516 66.7714C103.226 67.0951 103.67 66.467 102.125 62.5698C101.6 61.2444 101.153 59.8852 100.734 58.5217C100.608 58.1099 100.432 57.4908 101.105 57.3356C101.652 57.2097 101.821 57.7202 101.96 58.1264C102.677 60.2127 103.392 62.2999 104.082 64.3954C104.474 65.5883 104.233 66.6186 103.091 67.4416Z" fill="var(--fill-0, black)"/>
<path id="Vector_3" d="M100.897 73.3942C98.8676 73.9185 96.9504 73.8744 95.059 73.2715C94.4475 73.0766 93.834 72.8367 93.2852 72.5098C92.691 72.1559 91.6579 71.7113 92.1599 70.946C92.7321 70.0735 93.2614 71.1935 93.8115 71.4537C96.5843 72.765 99.3601 72.7662 102.139 71.4619C102.667 71.2144 103.277 70.365 103.769 71.2237C104.196 71.9693 103.313 72.3163 102.783 72.6146C102.225 72.929 101.597 73.118 100.897 73.3942Z" fill="var(--fill-0, black)"/>
<path id="Vector_4" d="M94.0005 50.8624C93.9526 51.63 93.4474 51.63 92.9679 51.6167C91.0191 51.5627 89.061 51.429 87.4698 52.9197C87.2409 53.1342 86.9036 53.1595 86.6593 52.8685C86.3672 52.5205 86.5503 52.2243 86.7979 51.9549C88.2916 50.3305 92.1653 49.4984 94.0005 50.8624Z" fill="var(--fill-0, black)"/>
<path id="Vector_5" d="M73.3041 56.2316C74.4312 55.5939 75.2568 56.132 75.8627 56.8743C76.901 58.1461 77.0033 59.7105 76.8643 61.2855C76.8334 61.6357 76.649 61.9878 76.2349 61.9919C75.7302 61.9969 75.616 61.5774 75.5841 61.1833C75.532 60.5394 75.6123 59.8747 75.4862 59.2493C75.3109 58.3808 75.3771 57.3201 73.7978 57.6725C72.8999 57.8729 72.9755 56.9655 73.3041 56.2316Z" fill="var(--fill-0, black)"/>
<path id="Vector_6" d="M103.818 50.9343C103.809 50.4139 104.093 50.2605 104.455 50.1621C106.59 49.5824 108.565 49.9143 110.369 51.2006C110.686 51.4261 111.048 51.7104 110.797 52.1583C110.553 52.593 110.099 52.5273 109.77 52.3026C108.25 51.2642 106.61 51.0009 104.831 51.4014C104.454 51.4861 104.038 51.4917 103.818 50.9343Z" fill="var(--fill-0, black)"/>
<path id="Vector_7" d="M105.241 58.4817C105.214 58.2946 105.195 58.2073 105.204 58.1234C105.296 57.3504 105.334 56.3659 106.407 56.5486C107.358 56.7106 107.32 57.6771 107.247 58.4555C107.198 58.9784 106.998 59.5287 106.389 59.6008C105.7 59.6823 105.439 59.1464 105.241 58.4817Z" fill="var(--fill-0, black)"/>
<path id="Vector_8" d="M90.5839 57.5884C90.6914 56.867 90.9409 56.3298 91.6585 56.4896C92.4409 56.6637 92.5156 57.3947 92.5208 58.0368C92.5257 58.6365 92.4486 59.3955 91.694 59.4399C90.4539 59.513 90.6049 58.5093 90.5839 57.5884Z" fill="var(--fill-0, black)"/>
<path id="Vector_9" d="M180.027 86.8117C178.456 86.9596 177.182 86.4468 175.962 85.7525C175.588 85.5393 175.144 85.2643 175.388 84.7465C175.643 84.2062 176.124 84.4009 176.51 84.6092C179.428 86.1853 182.241 85.7708 185.012 84.2063C185.406 83.9837 185.92 83.5911 186.266 84.1503C186.604 84.6961 186.073 84.9929 185.673 85.2572C183.997 86.3653 182.158 86.8893 180.027 86.8117Z" fill="var(--fill-0, black)"/>
<path id="Vector_10" d="M175.719 77.0211C176.614 75.4291 177.638 74.0095 177.902 72.2372C177.95 71.918 178.163 71.6594 178.529 71.7226C178.875 71.7823 178.986 72.0789 179.026 72.3982C179.088 72.8879 178.944 73.3394 178.781 73.7906C178.293 75.1455 177.515 76.3446 176.792 77.5764C176.204 78.5797 176.407 79.0412 177.526 79.3736C177.856 79.4715 178.196 79.5428 178.537 79.5881C178.993 79.6489 179.471 79.741 179.401 80.3146C179.342 80.8022 178.87 80.7953 178.473 80.8028C175.941 80.8506 174.747 79.2788 175.719 77.0211Z" fill="var(--fill-0, black)"/>
<path id="Vector_11" d="M175.763 65.1517C176.07 65.4707 176.324 65.7107 176.516 65.9928C176.726 66.3004 176.779 66.6527 176.453 66.93C176.12 67.2143 175.828 67.0426 175.527 66.8179C173.596 65.3711 173.594 65.3748 171.762 67.073C171.439 67.3724 171.09 67.7272 170.656 67.2999C170.295 66.945 170.56 66.5812 170.775 66.2486C171.994 64.3606 173.73 63.951 175.763 65.1517Z" fill="var(--fill-0, black)"/>
<path id="Vector_12" d="M186.743 67.1791C185.913 66.8815 185.206 67.001 184.503 67.2826C184.173 67.4145 183.803 67.5093 183.605 67.0887C183.422 66.6984 183.668 66.4415 183.966 66.2208C185.208 65.2997 189.038 66.1168 189.807 67.4681C189.946 67.7129 190.007 67.9684 189.784 68.1758C189.534 68.4088 189.202 68.3778 188.927 68.2517C188.22 67.9286 187.533 67.5653 186.743 67.1791Z" fill="var(--fill-0, black)"/>
<path id="Vector_13" d="M188.86 73.7225C187.888 74.7457 186.765 75.0777 185.503 74.7524C184.749 74.558 184.264 73.9946 184.038 73.2345C183.944 72.9183 183.967 72.6215 184.286 72.4471C184.558 72.2985 184.802 72.415 184.958 72.6458C185.832 73.9343 186.842 73.509 187.877 72.9006C188.76 72.3818 189.092 72.6533 188.86 73.7225Z" fill="var(--fill-0, black)"/>
<path id="Vector_14" d="M200.171 76.9073C200.153 75.8561 200.32 74.935 200.725 74.0611C200.99 73.4898 201.395 73.0617 201.985 72.8393C202.544 72.629 203.246 72.2848 203.556 73.0337C203.859 73.7649 203.051 73.7841 202.621 73.9444C201.395 74.4007 201.671 75.557 201.425 76.4554C201.144 77.4825 200.968 77.5865 200.171 76.9073Z" fill="var(--fill-0, black)"/>
<path id="Vector_15" d="M173.459 72.3445C173.605 72.317 173.646 72.2997 173.689 72.2957C174.244 72.2443 174.948 71.249 175.304 72.2437C175.618 73.1218 174.662 73.4449 173.971 73.6708C172.955 74.0028 171.435 73.4122 170.877 72.5346C170.661 72.1941 170.456 71.8234 170.855 71.4955C171.199 71.213 171.518 71.4108 171.753 71.6934C172.176 72.2032 172.705 72.4168 173.459 72.3445Z" fill="var(--fill-0, black)"/>
<path id="Vector_16" d="M53.2148 102.427C52.3953 102.662 51.6707 102.729 50.9489 102.485C50.5984 102.367 50.3189 102.14 50.4072 101.723C50.48 101.379 50.78 101.267 51.0995 101.25C51.7003 101.219 52.3044 101.228 52.9025 101.171C53.3502 101.129 53.9087 100.765 54.1209 101.419C54.316 102.021 53.7398 102.196 53.2148 102.427Z" fill="var(--fill-0, black)"/>
<path id="Vector_17" d="M78.7773 110.381C80.4747 110.597 81.3821 111.441 81.2946 112.69C81.2327 113.573 80.8054 114.275 79.9277 114.556C78.9344 114.873 78.1653 114.505 77.6008 113.642C77.041 112.787 77.0213 111.953 77.6301 111.114C77.8962 110.747 78.2474 110.52 78.7773 110.381Z" fill="var(--fill-0, black)"/>
<path id="Vector_18" d="M110.465 113.587C110.165 113.324 109.903 113.142 109.756 112.893C109.229 112.001 109.351 111.136 110.07 110.421C110.682 109.812 111.43 109.901 112.074 110.362C112.886 110.943 113.689 111.63 113.375 112.789C113.115 113.746 112.299 113.938 111.419 113.861C111.128 113.835 110.844 113.714 110.465 113.587Z" fill="var(--fill-0, black)"/>
<path id="Vector_19" d="M53.7501 148.877C53.1531 146.674 54.4792 144.405 56.5137 143.99C58.9347 143.496 60.8532 144.711 61.258 146.994C61.4943 148.326 60.5847 150.061 59.2651 150.794C58.022 151.485 55.9278 151.219 54.7652 150.171C54.3868 149.83 54.111 149.375 53.7501 148.877ZM57.5125 145.137C56.7729 145.105 56.1823 145.42 55.6766 145.931C54.9063 146.71 54.5732 147.623 55.1339 148.623C55.7536 149.729 56.8226 150.065 58.0158 149.884C59.1102 149.718 59.7799 149.008 59.9554 147.913C60.1431 146.743 59.6468 145.902 58.5696 145.421C58.2978 145.299 57.9991 145.238 57.5125 145.137Z" fill="var(--fill-0, black)"/>
</g>
</svg>
