<svg preserveAspectRatio="none" width="100%" height="100%" overflow="visible" style="display: block;" viewBox="0 0 300 197" fill="none" xmlns="http://www.w3.org/2000/svg">
<g id="file (3) 1">
<path id="Vector" d="M68.1882 130.136C67.4145 124.903 67.4171 119.801 68.3028 114.714C69.742 106.448 74.1888 100.306 81.3977 96.0637C85.0604 93.9085 88.9036 92.1211 92.899 90.1739C92.2174 89.7366 91.6641 89.3835 91.1126 89.0276C86.8554 86.2806 85.0854 81.8358 86.1923 76.8698C86.727 74.4709 87.4517 72.1362 88.6221 69.9886C91.7716 64.2092 93.7234 57.9595 95.9391 51.8088C97.6171 47.1508 99.5978 42.6396 102.94 38.88C108.997 32.0655 116.616 29.4664 125.489 31.0842C136.02 33.0044 142.945 39.2761 145.79 49.6157C147.178 54.6588 146.712 59.7181 144.306 64.5567C143.309 66.5611 143.475 68.944 143.397 71.1651C143.256 75.1668 143.333 79.1761 143.307 83.1822C143.296 84.8494 143.006 86.4855 142.628 88.1003C141.752 91.8471 139.24 94.1467 135.849 95.6407C135.454 95.8148 135.051 95.9718 134.654 96.1361C134.71 96.5984 135.093 96.6951 135.356 96.8457C142.538 100.962 146.569 107.29 148.566 115.192C150.428 122.563 152.564 129.865 154.509 137.216C154.855 138.527 155.39 138.715 156.659 138.452C159.134 137.94 161.65 137.509 164.203 137.958C165.292 138.149 166.064 137.828 166.554 136.746C166.996 135.772 167.604 134.873 168.139 133.942C168.617 133.108 169.236 132.359 168.462 131.291C168.104 130.796 168.395 130.051 168.67 129.463C171.789 122.778 175.022 116.151 178.85 109.837C182.183 104.34 187.256 100.975 193.012 98.4825C193.496 98.273 194.045 98.1909 194.535 97.6748C192.595 96.903 190.777 96.0587 189.246 94.6677C185.714 91.4608 184.023 87.3089 183.041 82.799C181.495 75.7011 181.013 68.5125 181.583 61.2758C181.836 58.0766 182.102 54.8479 183.27 51.806C183.553 51.0683 183.268 50.6438 182.834 50.126C180.984 47.9191 179.905 45.426 180.074 42.4744C180.189 40.4795 180.733 39.9491 182.599 40.4371C185.335 41.1528 187.82 40.204 190.307 39.3897C194.247 38.0998 198.138 36.6091 202.278 36.1171C208.167 35.4173 213.877 35.9733 219.113 39.0813C221.258 40.3541 222.97 42.0591 224.162 44.2638C224.441 44.7803 224.668 45.337 225.304 45.5235C228.404 46.4317 229.827 48.8767 230.536 51.7024C231.677 56.2536 231.112 60.7035 229.011 64.9174C228.739 65.4623 228.706 65.8959 228.97 66.4202C231.147 70.7455 227.612 78.7656 222.831 79.4407C222.124 79.5405 221.874 79.9184 221.833 80.6203C221.654 83.6886 221.346 86.7459 221.832 89.8233C222.148 91.8232 223.037 93.1811 224.981 94.0105C230.496 96.3641 236.127 98.4738 241.223 101.736C248.701 106.523 252.371 113.256 252.395 122.183C252.412 128.286 251.671 134.244 250.212 140.139C250.057 140.767 250.004 141.384 250.004 142.019C250.005 153.452 250.033 164.885 249.969 176.318C249.961 177.844 250.439 178.226 251.889 178.18C255.109 178.078 258.333 178.147 261.556 178.147C261.898 178.147 262.24 178.145 262.581 178.153C263.145 178.165 263.757 178.229 263.726 178.958C263.696 179.653 263.086 179.728 262.525 179.741C261.988 179.753 261.451 179.752 260.914 179.751C238.795 179.749 216.677 179.755 194.558 179.725C193.141 179.723 191.879 179.979 190.672 180.736C187.837 182.515 184.698 183.069 181.41 182.768C176.76 182.343 172.29 182.953 167.917 184.633C165.985 185.375 163.914 185.539 161.984 184.372C161.522 184.092 161.045 184.238 160.562 184.322C159.015 184.589 157.652 184.305 156.646 182.973C156.505 182.787 156.282 182.516 156.108 182.524C154.239 182.612 153.013 181.667 152.046 180.177C151.815 179.82 151.296 179.748 150.84 179.753C146.122 179.802 141.363 179.338 136.77 180.933C136.027 181.191 135.23 181.361 134.663 181.907C130.812 185.618 125.995 187.011 120.889 187.734C119.158 187.979 117.439 188.345 115.671 188.023C114.721 187.85 114.009 187.363 113.695 186.48C113.358 185.53 114.033 184.892 114.673 184.368C116.292 183.041 118.298 182.519 120.197 181.757C117.777 181.819 115.539 182.472 113.549 183.906C112.163 184.905 110.804 185.94 109.406 186.921C107.89 187.986 106.319 188.484 104.481 187.568C103.875 187.267 102.961 187.594 102.347 187.301C101.203 186.755 100.207 185.945 98.9935 185.453C98.1813 185.124 98.2426 184.187 98.6397 183.393C99.2289 182.215 100.029 181.171 100.856 180.04C100.141 179.567 99.4453 179.747 98.8017 179.746C78.8315 179.737 58.8612 179.747 38.8909 179.726C38.0472 179.725 36.6039 180.175 36.5663 178.956C36.5233 177.563 38.0011 178.181 38.7874 178.178C48.162 178.131 57.537 178.125 66.9116 178.174C68.2788 178.181 68.7792 177.827 68.7743 176.374C68.726 162.156 68.7396 147.939 68.7545 133.721C68.7558 132.528 68.3438 131.423 68.1882 130.136ZM180.55 133.419C181.126 133.705 181.568 134.317 182.445 134.228C182.65 131.796 182.818 129.419 183.059 127.049C183.368 123.997 183.721 120.949 184.092 117.903C184.152 117.413 184.186 116.699 184.97 116.812C185.734 116.922 185.587 117.599 185.542 118.108C185.324 120.585 185.082 123.06 184.835 125.535C184.134 132.569 183.628 139.618 183.191 146.672C183.055 148.863 182.916 151.054 182.779 153.245C182.53 157.235 182.296 161.226 182.021 165.214C181.962 166.073 182.309 166.528 183.114 166.616C184.663 166.785 186.208 167.008 187.758 166.523C189.526 165.969 191.32 165.497 193.096 164.97C201.045 162.609 208.991 160.239 216.941 157.881C217.767 157.636 218.449 157.332 218.709 156.368C219.912 151.893 221.161 147.431 222.396 142.964C222.541 142.441 222.72 141.898 222.37 141.412C221.882 140.736 222 140.066 222.189 139.324C223.305 134.929 224.386 130.524 225.479 126.123C225.949 124.231 226.414 122.338 226.898 120.45C227.013 120.003 227.253 119.59 227.802 119.685C228.368 119.783 228.399 120.25 228.348 120.716C228.316 121.006 228.295 121.302 228.226 121.585C227.15 125.94 226.048 130.288 224.996 134.649C224.582 136.361 223.944 138.038 223.823 139.856C232.217 139.655 239.7 141.877 246.44 146.716C246.633 146.383 246.791 146.195 246.86 145.979C249.613 137.28 251.587 128.469 250.676 119.247C250.124 113.645 247.819 108.974 243.426 105.361C237.624 100.591 230.644 98.1576 223.81 95.1987C223.634 95.6681 223.49 96.018 223.372 96.3763C221.222 102.858 216.626 106.617 210.116 108.136C203.858 109.596 199.196 106.555 198.001 100.358C197.892 99.7951 197.998 99.1674 197.494 98.732C197.394 98.7119 197.286 98.6535 197.207 98.6799C190.889 100.781 185.041 103.706 181.16 109.352C176.805 115.686 173.585 122.665 170.406 129.645C170.357 129.753 170.423 129.913 170.438 130.071C174.051 130.278 177.315 131.474 180.55 133.419ZM123.464 160.406C123.968 157.854 124.472 155.302 124.994 152.656C116.995 151.498 109.238 150.111 101.482 148.72C99.8447 148.426 98.2017 147.708 96.5763 148.951C96.0063 149.386 95.0297 150.271 94.4661 149.179C93.9077 148.096 95.2152 147.882 95.8742 147.572C96.9439 147.069 97.2463 146.468 96.9226 145.283C95.2275 139.077 93.6149 132.849 91.9693 126.63C91.0217 123.049 90.0656 119.469 89.1141 115.889C88.9569 115.298 88.8166 114.646 89.6066 114.454C90.2988 114.286 90.4982 114.849 90.6349 115.409C90.808 116.119 91.0157 116.821 91.2018 117.528C93.6454 126.809 96.0966 136.089 98.5165 145.377C98.7564 146.298 99.1876 146.744 100.164 146.898C102.955 147.337 105.734 147.853 108.503 148.414C109.506 148.618 109.852 148.31 109.844 147.335C109.825 144.991 109.82 142.646 109.855 140.303C109.869 139.331 109.571 138.525 109.048 137.71C104.828 131.137 100.636 124.547 96.4561 117.949C95.2498 116.044 95.3037 115.884 96.7011 114.084C97.5255 113.023 98.4527 112.025 99.061 110.725C96.9648 109.818 94.9587 108.936 92.9408 108.082C92.0212 107.693 91.5355 107.087 91.6724 106.044C92.0081 103.486 92.3342 100.927 92.647 98.3657C92.8984 96.307 93.1246 94.2452 93.358 92.2197C92.8347 92.0468 92.5265 92.2011 92.2185 92.3486C88.478 94.1393 84.7035 95.8669 81.2092 98.1259C76.3493 101.268 72.6758 105.352 70.8913 110.984C69.956 113.935 69.4618 116.955 69.3018 120.027C69.0753 124.376 69.1119 128.745 70.4903 132.917C73.4454 141.861 76.9034 150.621 80.7378 159.224C82.7354 163.706 85.9963 166.82 90.9749 167.793C92.8883 168.167 94.8263 168.36 96.7683 168.544C104.84 169.309 112.93 169.492 121.031 169.439C122.26 169.431 122.783 169.104 122.756 167.781C122.707 165.391 123.127 163.026 123.464 160.406ZM220.132 79.8516C219.852 79.3858 219.097 79.0988 219.473 78.3818C219.826 77.7097 220.492 77.9502 221.054 77.9862C222.162 78.057 223.22 77.8814 224.123 77.231C226.927 75.2116 228.101 72.3254 228.047 68.997C228.022 67.4863 227.362 65.9816 225.802 65.2959C224.22 64.6009 222.857 65.3185 221.594 66.2451C220.663 66.9282 220.104 67.9066 219.548 68.8867C218.878 70.0676 218.303 70.1243 217.516 69.0154C217.068 68.3843 216.649 67.6942 216.401 66.9676C215.787 65.1696 215.29 63.332 214.727 61.5166C213.701 58.2145 213.534 54.8998 214.721 51.6161C215.15 50.43 214.618 50.0858 213.64 50.0001C212.035 49.8592 210.43 49.8414 208.821 50.0495C205.642 50.4609 202.748 51.8318 199.71 52.7165C196.554 53.6356 193.38 54.2685 190.059 53.7598C188.269 53.4856 186.614 52.8065 184.894 52.1526C183.755 54.8629 183.435 57.6394 183.247 60.3873C182.889 65.5958 182.87 70.8172 183.483 76.021C183.999 80.3958 184.77 84.7031 186.71 88.7135C189.777 95.0515 195.373 97.5579 202.12 95.6629C205.804 94.628 208.797 92.5153 211.456 89.8496C211.882 89.4218 212.346 88.9119 212.932 89.4828C213.519 90.0556 213.026 90.5447 212.6 90.9684C211.106 92.4512 209.501 93.7923 207.717 94.9218C205.21 96.5083 202.422 97.321 199.583 97.8447C199.29 103.274 202.602 107.072 207.345 106.901C214.159 106.656 220.263 101.806 222.05 95.2469C222.188 94.7418 222.27 94.3465 221.898 93.8979C220.763 92.5254 220.474 90.8484 220.193 89.1468C219.695 86.1199 220.214 83.1061 220.132 79.8516ZM237.116 166.484C239.6 160.43 241.71 154.238 243.929 148.086C244.187 147.371 244.063 146.953 243.388 146.535C237.99 143.196 232.143 141.447 225.788 141.378C224.785 141.367 224.341 141.722 224.077 142.712C222.806 147.471 221.415 152.199 220.148 156.959C219.816 158.203 219.134 158.853 217.944 159.206C208.126 162.114 198.314 165.04 188.508 167.985C187.167 168.387 185.814 168.483 184.454 168.332C181.6 168.017 178.734 167.74 175.91 167.236C172.044 166.547 168.466 167.132 165.046 169.037C162.007 170.729 159.133 172.65 156.492 174.911C155.937 175.386 155.446 175.936 154.933 176.459C154.427 176.977 153.931 177.504 153.431 178.027C157.772 174.453 162.576 171.795 167.721 169.715C168.261 169.497 169.029 168.998 169.375 169.852C169.749 170.775 168.807 170.913 168.233 171.213C168.106 171.279 167.95 171.29 167.815 171.346C163.239 173.252 158.908 175.572 155.193 178.911C154.748 179.312 154.022 179.774 154.453 180.467C154.878 181.151 155.697 180.867 156.346 180.72C156.648 180.651 156.928 180.381 157.167 180.149C161.298 176.131 166.7 174.547 171.841 172.462C172.315 172.27 172.72 172.36 172.943 172.849C173.223 173.462 172.841 173.75 172.339 173.948C171.839 174.144 171.337 174.333 170.835 174.525C168.054 175.59 165.288 176.691 162.65 178.083C161.135 178.883 159.666 179.764 158.511 181.062C157.746 181.923 157.965 182.598 159.085 182.806C160.264 183.024 161.31 182.619 162.23 181.907C165.249 179.571 168.689 178.1 172.295 176.966C173.085 176.717 173.888 176.506 174.689 176.292C175.293 176.131 176.084 175.795 176.323 176.623C176.596 177.572 175.662 177.628 175.034 177.828C174.802 177.902 174.563 177.953 174.328 178.017C171.065 178.904 167.917 180.08 165.011 181.832C164.414 182.191 163.705 182.463 163.399 183.197C164.049 183.743 164.694 183.698 165.395 183.6C167.1 183.362 168.711 182.811 170.327 182.26C173.227 181.271 176.211 180.769 179.256 181.177C183.416 181.735 187.33 181.189 190.937 178.972C191.931 178.361 192.955 178.127 194.122 178.131C202.813 178.164 211.503 178.137 220.194 178.162C221.812 178.166 223.425 178.095 225.008 177.827C229.278 177.102 232.954 175.442 234.869 171.175C235.548 169.661 236.301 168.181 237.116 166.484ZM118.159 58.3508C115.649 59.2002 112.961 59.2744 110.457 59.9999C108.663 60.5198 107.901 60.021 106.914 58.679C105.404 56.6238 103.162 56.8202 101.703 58.9202C99.3221 62.3478 100.782 67.8553 104.556 69.618C105.081 69.8635 105.683 69.9453 106.209 70.1909C106.954 70.5394 107.219 71.2052 106.375 71.5686C105.515 71.9392 105.43 72.5629 105.256 73.2678C104.274 77.2394 103.672 81.3134 102.206 85.1539C101.565 86.8324 101.527 88.508 101.956 90.1774C102.539 92.4414 103.272 94.6667 103.947 96.9066C104.115 97.4643 104.18 98.0916 104.618 98.5108C107.444 101.216 110.238 103.916 114.356 104.652C117.216 105.162 119.413 104.254 121.276 102.179C121.653 101.758 121.849 101.303 121.822 100.722C121.703 98.1018 121.341 95.4914 121.663 92.8205C117.654 91.576 114.428 89.3691 111.794 86.2993C111.312 85.7374 110.445 85.034 111.25 84.3309C112.04 83.6408 112.496 84.661 112.942 85.1694C114.633 87.0989 116.548 88.7611 118.85 89.902C123.188 92.0518 127.522 93.0446 131.621 89.37C132.49 88.5911 133.383 87.7919 134.063 86.8554C140.666 77.7597 143.226 67.5648 141.928 56.4487C141.443 52.2954 139.18 48.9246 136.254 45.9137C131.492 51.896 125.445 55.8282 118.159 58.3508ZM156.596 157.425C147.053 162.758 137.33 167.741 127.449 172.416C126.039 173.083 124.561 173.237 123.03 173.133C116.585 172.698 110.299 172.799 105.285 177.848C103.379 179.768 101.336 181.549 99.9551 184.356C100.957 183.875 101.413 183.325 101.888 182.788C104.394 179.954 107.187 177.464 110.507 175.606C111.062 175.296 111.691 174.809 112.144 175.6C112.553 176.313 111.871 176.637 111.36 176.909C108.343 178.517 105.853 180.773 103.595 183.291C103.005 183.949 101.707 184.78 102.652 185.674C103.621 186.591 104.552 185.385 105.109 184.629C107.209 181.777 110.017 179.771 112.885 177.819C113.351 177.502 113.886 176.94 114.394 177.633C114.958 178.401 114.227 178.775 113.712 179.103C112.144 180.102 110.639 181.192 109.265 182.435C107.989 183.589 106.599 184.677 105.812 186.533C106.735 186.617 107.4 186.375 107.994 185.976C109.048 185.27 110.106 184.562 111.093 183.77C114.268 181.221 117.823 179.871 121.933 180.178C122.576 180.226 123.425 179.951 123.638 180.879C123.826 181.701 123.146 182.097 122.554 182.438C121.236 183.2 119.753 183.563 118.351 184.121C117.249 184.56 116.097 184.958 115.346 186.145C116.79 187.061 118.188 186.529 119.541 186.351C124.163 185.745 128.779 184.999 132.407 181.729C134.004 180.289 135.804 179.482 137.829 179.038C142.349 178.048 146.872 177.067 151.401 176.119C152.729 175.841 153.802 175.256 154.821 174.323C158.853 170.629 163.346 167.581 168.605 165.976C170.283 165.464 171.41 164.684 172.373 163.329C174.452 160.402 174.508 160.393 171.753 158.11C170.677 157.219 169.699 155.87 168.273 155.804C164.377 155.623 160.468 155.715 156.596 157.425ZM138.484 149.565C139.375 145.198 139.405 140.745 139.59 136.329C139.829 130.623 139.135 124.939 138.515 119.265C138.443 118.608 137.752 117.456 138.939 117.304C140.251 117.137 139.978 118.539 140.072 119.262C141.127 127.365 141.358 135.497 140.731 143.65C140.608 145.254 140.519 146.861 140.385 148.463C140.297 149.529 140.773 149.833 141.782 149.723C143.062 149.583 144.068 148.986 145.012 148.162C147.593 145.909 149.862 143.347 152.28 140.934C153.291 139.926 153.479 139.013 153.108 137.696C150.924 129.952 148.798 122.192 146.662 114.434C145.074 108.668 142.304 103.676 137.299 100.166C135.937 99.2108 134.619 98.1442 132.759 97.6123C133.888 100.293 134.888 102.781 135.986 105.225C136.481 106.324 136.241 107.023 135.31 107.73C134.124 108.631 132.789 109.362 131.723 110.557C132.841 111.759 133.885 112.915 134.968 114.033C135.572 114.657 135.748 115.278 135.466 116.147C133.164 123.248 130.809 130.33 128.213 137.331C127.654 138.839 126.944 140.343 126.714 141.909C126.101 146.097 127.052 147.563 131.078 148.95C133.424 149.759 135.821 150.459 138.484 149.565ZM103.511 177.348C104.966 176.04 106.486 174.814 108.191 173.844C109.144 173.302 108.917 172.427 108.843 171.633C108.764 170.781 108.003 170.972 107.461 170.927C102.949 170.547 98.4347 170.193 93.9221 169.818C87.2269 169.261 82.133 166.308 79.3272 159.978C78.398 157.882 77.4617 155.786 76.6153 153.656C74.4786 148.278 72.3912 142.881 70.2697 137.455C70.2055 137.572 70.1316 137.644 70.1315 137.715C70.1247 150.754 70.1321 163.792 70.1048 176.831C70.1026 177.879 70.5033 178.164 71.4895 178.161C81.5429 178.137 91.5963 178.143 101.65 178.153C102.319 178.154 102.908 178.037 103.511 177.348ZM168.395 146.444C170.079 146.784 171.658 147.444 173.258 148.036C173.703 148.201 174.115 148.322 174.384 147.788C174.648 147.262 174.335 146.967 173.929 146.72C173.637 146.542 173.349 146.358 173.05 146.194C168.748 143.827 164.228 142.586 159.274 143.42C158.635 143.527 157.617 143.869 157.54 142.738C157.476 141.797 158.406 141.875 159.06 141.766C164.182 140.914 168.943 141.973 173.438 144.469C173.797 144.668 174.104 145.087 174.643 144.84C175.127 143.711 174.256 143.246 173.548 142.783C168.764 139.656 163.491 139.017 157.96 139.816C156.376 140.045 154.832 140.259 153.674 141.684C151.458 144.412 149.042 146.976 146.355 149.252C143.031 152.068 139.742 155.05 134.8 153.842C134.03 153.653 133.892 154.309 133.792 154.81C133.254 157.484 132.75 160.165 132.252 162.846C132.069 163.838 132.55 164.163 133.499 164.061C134.76 163.926 136.049 163.964 137.286 163.725C139.194 163.357 141.222 163.738 143.031 162.813C147.115 160.723 151.315 158.853 155.203 156.395C156.723 155.434 158.403 154.977 160.144 154.678C162.891 154.206 165.679 154.186 168.447 153.949C169.249 153.88 169.98 153.749 170.224 152.69C166.359 151.821 162.563 151.552 158.714 152.22C158.099 152.326 157.195 152.673 157.018 151.677C156.848 150.721 157.734 150.712 158.394 150.558C162.491 149.6 166.547 150.1 170.569 150.98C171.744 151.237 172.419 150.964 172.896 149.826C172.633 149.698 172.431 149.578 172.214 149.496C167.927 147.883 163.571 146.753 158.926 147.53C158.311 147.633 157.496 147.694 157.403 146.836C157.309 145.957 158.117 145.977 158.743 145.873C161.921 145.345 165.058 145.53 168.395 146.444ZM120.271 138.321C119.582 135.368 119.326 132.366 119.116 129.347C118.888 126.046 118.498 122.759 117.656 119.537C117.346 118.354 116.783 117.896 115.533 117.855C113.772 117.797 112.093 117.226 110.484 116.48C110.027 116.268 109.61 115.833 108.917 116.067C109.093 117.407 109.233 118.753 109.45 120.086C110.554 126.874 111.212 133.703 111.417 140.577C111.489 143.016 111.584 145.455 111.66 147.893C111.678 148.472 111.781 148.982 112.466 149.091C116.363 149.714 120.26 150.332 124.157 150.95C124.513 151.007 124.817 150.991 125 150.581C125.354 149.787 124.97 147.25 124.326 146.571C122.175 144.306 120.973 141.57 120.271 138.321ZM238.916 178.15C241.5 178.15 244.084 178.152 246.668 178.149C248.62 178.146 248.628 178.143 248.628 176.216C248.629 166.752 248.626 157.288 248.625 147.823C248.625 147.319 248.625 146.814 248.625 145.981C247.538 148.725 247.535 148.727 245.504 148.384C245.229 149.116 244.934 149.88 244.655 150.649C242.229 157.337 240.027 164.109 236.956 170.548C235.417 173.776 233.565 176.691 230.039 178.15C232.9 178.15 235.762 178.15 238.916 178.15ZM99.0591 103.859C97.2306 99.7748 96.1379 95.4673 95.2398 91.082C94.541 95.9706 93.9895 100.841 93.39 105.705C93.2869 106.542 93.8327 106.697 94.3613 106.92C96.3372 107.756 98.3143 108.589 100.301 109.398C101.378 109.835 101.63 110.422 100.85 111.385C99.9287 112.521 99.1111 113.744 98.1605 114.853C97.462 115.668 97.3308 116.324 97.9639 117.293C100.179 120.681 102.29 124.136 104.456 127.557C106.033 130.049 107.634 132.525 109.224 135.009C109.456 133.947 109.417 132.989 109.344 132.033C108.954 126.932 108.129 121.887 107.416 116.827C107.196 115.266 106.791 113.91 105.482 112.762C102.741 110.358 100.7 107.371 99.0591 103.859ZM124.892 116.842C125.391 123.538 125.891 130.234 126.39 136.93C129.076 130.14 131.476 123.335 133.671 116.459C133.929 115.651 133.713 115.052 133.142 114.48C132.211 113.547 131.326 112.568 130.398 111.632C129.471 110.698 129.469 109.901 130.602 109.117C131.725 108.34 132.784 107.471 133.9 106.682C134.43 106.308 134.557 105.922 134.294 105.321C133.062 102.504 131.852 99.6772 130.641 96.8507C130.355 96.1824 129.957 95.7331 129.052 95.8509C129.193 96.5344 129.304 97.1025 129.427 97.6682C130.665 103.366 129.545 108.554 125.839 113.057C124.907 114.19 124.433 115.196 124.892 116.842ZM122.655 109.25C122.501 107.546 122.397 105.833 121.974 104.185C115.687 108.379 110.499 105.894 105.493 101.685C106.243 104.708 107.073 107.516 107.607 110.379C108.001 112.493 109.059 113.794 110.949 114.742C114.174 116.358 117.371 116.967 120.734 115.254C123.055 114.071 123.084 114.006 122.765 111.423C122.687 110.795 122.693 110.158 122.655 109.25ZM124.361 166.192C124.342 166.679 124.363 167.173 124.295 167.653C124.106 169.003 124.653 169.535 126.008 169.379C127.12 169.251 128.243 169.216 129.363 169.165C130.114 169.131 130.579 168.822 130.557 168.017C130.429 163.448 131.275 158.999 132.216 154.563C132.379 153.793 132.097 153.484 131.356 153.402C130.245 153.277 129.128 153.154 128.034 152.933C126.987 152.722 126.55 153.075 126.323 154.121C125.477 158.024 124.665 161.928 124.361 166.192ZM119.29 117.725C118.87 118.188 119.197 118.661 119.303 119.108C120.163 122.72 120.507 126.399 120.823 130.089C121.093 133.238 121.347 136.401 122.277 139.449C122.825 141.243 123.457 143.002 125.094 144.669C124.749 134.898 124.028 125.524 123.17 116.061C121.798 116.64 120.637 117.131 119.29 117.725ZM99.6969 100.916C101.12 104.631 103.105 107.982 106.092 110.946C104.685 102.968 101.311 95.7741 99.8848 88.0352C96.752 89.6735 96.7555 89.6728 97.4424 92.9834C97.9869 95.6078 98.7182 98.1787 99.6969 100.916ZM124.242 109.236C124.406 109.991 124.116 110.857 124.704 111.59C128.542 107.065 129.363 99.8472 126.76 94.8219C126.148 93.6411 125.26 93.0791 124.052 93.3695C122.948 93.6349 123.11 94.7665 123.164 95.5728C123.459 100.046 123.835 104.514 124.242 109.236ZM175.713 161.305C174.815 162.611 173.918 163.916 172.907 165.386C174.85 165.598 176.537 165.726 178.205 165.978C180.278 166.29 180.513 166.17 180.643 164.103C180.778 161.963 180.854 159.82 180.964 157.679C181.035 156.311 181.12 154.943 181.206 153.444C179.348 156.108 177.594 158.623 175.713 161.305ZM134.804 151.745C132.062 151.494 129.6 150.355 127.134 149.169C126.787 150.974 126.925 151.311 128.088 151.45C130.78 151.772 133.473 152.08 136.17 152.356C136.817 152.423 137.509 152.521 138.09 151.959C137.08 151.905 136.071 151.852 134.804 151.745ZM111.979 172.174C113.637 171.796 115.285 171.403 117.013 171.444C119.446 171.502 121.88 171.482 124.313 171.473C124.881 171.471 125.495 171.557 126.206 171.04C121.142 170.789 116.333 171.356 111.526 171.011C110.899 170.966 110.424 171.156 110.526 171.892C110.663 172.883 111.322 172.212 111.979 172.174ZM133.549 167.702C135.121 166.997 136.675 166.256 138.113 165.242C136.773 165.561 135.41 165.343 134.073 165.583C132.044 165.948 132.039 165.918 132.305 168.12C132.719 168.227 133.014 167.905 133.549 167.702Z" fill="var(--fill-0, black)"/>
<path id="Vector_2" d="M194.383 82.2485C193.327 82.1879 192.433 81.9584 191.557 81.6528C189.933 81.0866 189.326 80.1223 189.919 78.5004C190.921 75.7585 192.096 73.0796 193.205 70.3771C193.416 69.8642 193.805 69.5621 194.358 69.7781C194.961 70.0136 194.868 70.5339 194.704 71.0203C193.908 73.3788 192.887 75.6425 191.834 77.8945C191.086 79.4962 191.29 79.9523 192.982 80.3832C193.778 80.5858 194.603 80.6898 195.421 80.7773C195.941 80.833 196.586 80.637 196.629 81.4419C196.669 82.1849 196.036 82.2535 195.517 82.3327C195.191 82.3825 194.844 82.2954 194.383 82.2485Z" fill="var(--fill-0, black)"/>
<path id="Vector_3" d="M199.558 88.0775C197.302 88.8397 195.136 88.8553 192.967 88.277C192.459 88.1415 191.964 87.8973 191.513 87.6206C191.134 87.3876 190.825 87.0118 191.085 86.5151C191.344 86.0202 191.806 86.061 192.234 86.2372C195.921 87.7556 199.284 87.0795 202.404 84.7478C202.818 84.4378 203.249 84.15 203.683 84.6436C204.182 85.2107 203.753 85.6519 203.358 86.014C202.297 86.9853 201.026 87.595 199.558 88.0775Z" fill="var(--fill-0, black)"/>
<path id="Vector_4" d="M200.126 63.8288C202.629 62.8399 204.816 63.3778 206.857 64.7785C207.329 65.1026 207.903 65.5269 207.459 66.2051C207.033 66.8572 206.437 66.6184 205.929 66.2529C204.404 65.1561 202.723 64.9081 200.925 65.3104C200.47 65.4123 200.045 65.4855 199.762 65.0174C199.492 64.5689 199.593 64.1808 200.126 63.8288Z" fill="var(--fill-0, black)"/>
<path id="Vector_5" d="M204.12 71.7273C204.536 71.5469 204.836 71.3811 205.154 71.2634C205.51 71.1314 205.824 71.2306 206.05 71.549C206.326 71.9383 206.191 72.2786 205.924 72.6076C204.691 74.1275 201.019 73.9996 199.866 72.3818C199.487 71.8499 199.138 71.2285 199.803 70.7027C200.406 70.226 200.856 70.6312 201.265 71.1329C202.005 72.0415 202.942 72.2248 204.12 71.7273Z" fill="var(--fill-0, black)"/>
<path id="Vector_6" d="M190.052 63.558C190.716 63.895 191.468 64.1702 191.158 64.9549C190.834 65.7786 190.11 65.4342 189.529 65.1924C188.227 64.6503 187.058 65.0471 185.907 65.65C185.379 65.9269 184.785 66.2616 184.385 65.5508C183.933 64.746 184.627 64.4083 185.175 64.1189C186.68 63.3224 188.248 62.8953 190.052 63.558Z" fill="var(--fill-0, black)"/>
<path id="Vector_7" d="M225.154 67.2769C225.858 67.93 225.664 68.4471 224.955 68.6472C223.502 69.0576 223.162 70.1541 223.041 71.4315C222.986 72.0249 222.987 72.7585 222.191 72.701C221.309 72.6373 221.394 71.8606 221.472 71.2237C221.797 68.5861 222.846 67.4246 225.154 67.2769Z" fill="var(--fill-0, black)"/>
<path id="Vector_8" d="M185.023 71.9173C184.839 70.6039 185.414 70.3459 186.304 71.0057C187.307 71.7487 188.275 71.9934 189.403 71.4045C189.856 71.1674 190.362 70.9709 190.671 71.5376C190.996 72.1357 190.576 72.5474 190.115 72.8626C188.71 73.822 186.736 73.4831 185.023 71.9173Z" fill="var(--fill-0, black)"/>
<path id="Vector_9" d="M130.068 71.7646C129.826 70.3967 129.585 69.1547 129.424 67.9025C129.342 67.2655 129.367 66.5213 130.233 66.4479C131.108 66.3738 130.978 67.1184 131.072 67.6843C131.475 70.1297 131.867 72.5781 132.341 75.0102C132.569 76.1839 132.683 77.3213 131.533 78.0056C130.272 78.7555 128.858 78.8742 127.451 78.3805C127.063 78.2444 126.84 77.8904 126.96 77.4375C127.062 77.0505 127.361 76.9034 127.734 76.9043C127.927 76.9048 128.12 76.9559 128.314 76.9681C130.695 77.1179 131.073 76.6692 130.574 74.3207C130.402 73.5123 130.258 72.698 130.068 71.7646Z" fill="var(--fill-0, black)"/>
<path id="Vector_10" d="M124.903 82.0078C126.554 82.6738 128.117 82.7946 129.713 82.2481C130.286 82.0521 130.959 81.8658 131.194 82.6247C131.451 83.4569 130.714 83.699 130.118 83.9001C127.113 84.9143 122.452 83.4945 120.553 81.0085C120.212 80.5624 119.877 80.0692 120.428 79.6027C120.98 79.1365 121.407 79.5339 121.782 79.9646C122.602 80.9089 123.663 81.4933 124.903 82.0078Z" fill="var(--fill-0, black)"/>
<path id="Vector_11" d="M121.428 60.1686C120.682 60.2932 120.066 60.4373 119.442 60.5078C119.044 60.5527 118.646 60.4539 118.535 59.97C118.434 59.5289 118.615 59.1769 119.019 59.0188C121.423 58.0784 123.839 57.937 126.241 59.0179C126.776 59.2588 127.112 59.7077 126.829 60.3164C126.561 60.893 126.033 60.8062 125.567 60.6047C124.271 60.0443 122.926 60.0103 121.428 60.1686Z" fill="var(--fill-0, black)"/>
<path id="Vector_12" d="M118.648 65.7555C119.285 65.0554 119.737 65.3941 120.173 65.859C121.309 67.0711 122.586 67.4134 124.098 66.5481C124.575 66.2754 125.143 66.0801 125.518 66.6838C125.9 67.2973 125.428 67.7078 124.997 68.0154C123.665 68.9643 122.208 69.1319 120.712 68.4758C119.581 67.9797 118.488 67.3915 118.648 65.7555Z" fill="var(--fill-0, black)"/>
<path id="Vector_13" d="M137.078 60.2938C138.691 60.333 139.961 60.863 140.99 61.9399C141.35 62.3168 141.612 62.7679 141.216 63.2344C140.825 63.6948 140.341 63.5571 139.914 63.223C138.624 62.214 137.23 61.6814 135.56 62.1225C135.018 62.2658 134.584 61.9741 134.478 61.4082C134.378 60.8699 134.784 60.6441 135.214 60.4703C135.776 60.2432 136.365 60.3071 137.078 60.2938Z" fill="var(--fill-0, black)"/>
<path id="Vector_14" d="M133.634 68.1945C134.265 67.7844 134.713 67.953 135.115 68.4055C135.994 69.3945 137.054 69.3635 138.159 68.8928C138.667 68.676 139.188 68.3785 139.539 69.0309C139.903 69.7064 139.414 70.142 138.913 70.4538C137.604 71.2705 136.213 71.2131 134.903 70.5266C134.065 70.0871 133.183 69.5148 133.634 68.1945Z" fill="var(--fill-0, black)"/>
<path id="Vector_15" d="M103.558 60.8433C103.118 60.4298 102.956 60.0578 103.373 59.6463C103.692 59.3311 104.085 59.3635 104.47 59.4741C106.03 59.9213 107.462 63.7041 106.576 65.0288C106.363 65.3477 106.047 65.4843 105.69 65.3612C105.19 65.1892 105.106 64.7484 105.119 64.2875C105.157 62.9273 105.082 61.6206 103.558 60.8433Z" fill="var(--fill-0, black)"/>
</g>
</svg>
