<svg preserveAspectRatio="none" width="100%" height="100%" overflow="visible" style="display: block;" viewBox="0 0 80.6245 82.212" fill="none" xmlns="http://www.w3.org/2000/svg">
<g id="Frame 7">
<g id="Star 1" filter="url(#filter0_d_169_25)">
<path d="M34.5627 5.56209C37.7684 2.46086 42.856 2.46087 46.0618 5.56209L47.3727 6.83033C49.2059 8.60375 51.7549 9.43196 54.2803 9.07475L56.0864 8.8193C60.5027 8.19463 64.6187 11.185 65.3893 15.5783L65.7045 17.3749C66.1451 19.8871 67.7205 22.0554 69.9736 23.2508L71.5849 24.1057C75.525 26.1962 77.0971 31.0348 75.1383 35.042L74.3372 36.6807C73.2171 38.9722 73.2171 41.6523 74.3372 43.9438L75.1383 45.5825C77.0971 49.5897 75.525 54.4282 71.5849 56.5187L69.9736 57.3736C67.7205 58.5691 66.1451 60.7374 65.7045 63.2496L65.3893 65.0462C64.6187 69.4394 60.5027 72.4298 56.0864 71.8052L54.2803 71.5497C51.7549 71.1925 49.2059 72.0207 47.3727 73.7941L46.0618 75.0624C42.856 78.1636 37.7684 78.1636 34.5627 75.0624L33.2517 73.7941C31.4186 72.0207 28.8696 71.1925 26.3441 71.5497L24.5381 71.8052C20.1217 72.4298 16.0058 69.4394 15.2352 65.0462L14.92 63.2496C14.4793 60.7374 12.904 58.5691 10.6509 57.3736L9.03958 56.5187C5.09952 54.4282 3.52737 49.5897 5.48619 45.5825L6.28724 43.9438C7.40738 41.6523 7.40738 38.9722 6.28724 36.6807L5.48618 35.042C3.52737 31.0348 5.09952 26.1962 9.03958 24.1057L10.6509 23.2508C12.904 22.0554 14.4793 19.8871 14.92 17.3749L15.2352 15.5783C16.0058 11.185 20.1217 8.19463 24.5381 8.8193L26.3441 9.07475C28.8696 9.43196 31.4186 8.60375 33.2517 6.83033L34.5627 5.56209Z" fill="var(--fill-0, #C0FF0A)"/>
<path d="M34.5627 5.56209C37.7684 2.46086 42.856 2.46087 46.0618 5.56209L47.3727 6.83033C49.2059 8.60375 51.7549 9.43196 54.2803 9.07475L56.0864 8.8193C60.5027 8.19463 64.6187 11.185 65.3893 15.5783L65.7045 17.3749C66.1451 19.8871 67.7205 22.0554 69.9736 23.2508L71.5849 24.1057C75.525 26.1962 77.0971 31.0348 75.1383 35.042L74.3372 36.6807C73.2171 38.9722 73.2171 41.6523 74.3372 43.9438L75.1383 45.5825C77.0971 49.5897 75.525 54.4282 71.5849 56.5187L69.9736 57.3736C67.7205 58.5691 66.1451 60.7374 65.7045 63.2496L65.3893 65.0462C64.6187 69.4394 60.5027 72.4298 56.0864 71.8052L54.2803 71.5497C51.7549 71.1925 49.2059 72.0207 47.3727 73.7941L46.0618 75.0624C42.856 78.1636 37.7684 78.1636 34.5627 75.0624L33.2517 73.7941C31.4186 72.0207 28.8696 71.1925 26.3441 71.5497L24.5381 71.8052C20.1217 72.4298 16.0058 69.4394 15.2352 65.0462L14.92 63.2496C14.4793 60.7374 12.904 58.5691 10.6509 57.3736L9.03958 56.5187C5.09952 54.4282 3.52737 49.5897 5.48619 45.5825L6.28724 43.9438C7.40738 41.6523 7.40738 38.9722 6.28724 36.6807L5.48618 35.042C3.52737 31.0348 5.09952 26.1962 9.03958 24.1057L10.6509 23.2508C12.904 22.0554 14.4793 19.8871 14.92 17.3749L15.2352 15.5783C16.0058 11.185 20.1217 8.19463 24.5381 8.8193L26.3441 9.07475C28.8696 9.43196 31.4186 8.60375 33.2517 6.83033L34.5627 5.56209Z" stroke="var(--stroke-0, white)" stroke-width="1.3782"/>
</g>
<path id="Star 2" d="M37.4378 8.97942C39.0407 7.42881 41.5845 7.42881 43.1873 8.97942L47.2933 12.9516C48.2099 13.8383 49.4844 14.2524 50.7471 14.0738L56.4038 13.2737C58.6119 12.9614 60.6699 14.4566 61.0552 16.6532L62.0423 22.2802C62.2626 23.5363 63.0503 24.6205 64.1769 25.2182L69.2234 27.8958C71.1935 28.941 71.9796 31.3603 71.0001 33.3639L68.4912 38.4964C67.9311 39.6421 67.9311 40.9822 68.4912 42.128L71.0001 47.2605C71.9796 49.2641 71.1935 51.6833 69.2234 52.7286L64.1769 55.4062C63.0503 56.0039 62.2626 57.0881 62.0423 58.3442L61.0552 63.9712C60.6699 66.1678 58.6119 67.663 56.4038 67.3507L50.7471 66.5506C49.4844 66.372 48.2099 66.7861 47.2933 67.6728L43.1873 71.6449C41.5845 73.1956 39.0407 73.1956 37.4378 71.6449L33.3318 67.6728C32.4152 66.7861 31.1407 66.372 29.878 66.5506L24.2214 67.3507C22.0132 67.663 19.9552 66.1678 19.5699 63.9712L18.5828 58.3442C18.3625 57.0881 17.5748 56.0039 16.4483 55.4062L11.4017 52.7286C9.43166 51.6834 8.64558 49.2641 9.62499 47.2605L12.1339 42.128C12.694 40.9822 12.694 39.6421 12.1339 38.4964L9.62499 33.3639C8.64558 31.3603 9.43165 28.941 11.4017 27.8958L16.4483 25.2182C17.5748 24.6205 18.3625 23.5363 18.5828 22.2802L19.5699 16.6532C19.9552 14.4566 22.0132 12.9614 24.2214 13.2737L29.878 14.0738C31.1407 14.2524 32.4152 13.8383 33.3318 12.9516L37.4378 8.97942Z" fill="var(--fill-0, #C0FF0A)" stroke="var(--stroke-0, #062325)" stroke-width="1.3782"/>
<g id="heroicons-solid:thumb-up">
<path id="Vector" d="M29.4843 40.9894C29.4843 40.7227 29.5368 40.4587 29.6388 40.2123C29.7409 39.966 29.8904 39.7422 30.079 39.5536C30.2675 39.3651 30.4914 39.2155 30.7377 39.1135C30.9841 39.0114 31.2481 38.9589 31.5147 38.9589C31.7814 38.9589 32.0454 39.0114 32.2918 39.1135C32.5381 39.2155 32.762 39.3651 32.9505 39.5536C33.139 39.7422 33.2886 39.966 33.3906 40.2123C33.4927 40.4587 33.5452 40.7227 33.5452 40.9894V49.1112C33.5452 49.6497 33.3313 50.1662 32.9505 50.547C32.5697 50.9278 32.0533 51.1417 31.5147 51.1417C30.9762 51.1417 30.4598 50.9278 30.079 50.547C29.6982 50.1662 29.4843 49.6497 29.4843 49.1112V40.9894ZM34.8988 40.7633V48.1136C34.8986 48.6167 35.0386 49.1099 35.303 49.5379C35.5675 49.9659 35.9459 50.3117 36.396 50.5366L36.4637 50.5704C37.2148 50.9458 38.0429 51.1414 38.8826 51.1417H46.2139C46.84 51.1419 47.4469 50.9252 47.9311 50.5283C48.4153 50.1314 48.7471 49.579 48.8698 48.965L50.4941 40.8432C50.5726 40.4504 50.563 40.0452 50.466 39.6566C50.369 39.2681 50.1869 38.9059 49.933 38.5961C49.6791 38.2864 49.3596 38.0369 48.9976 37.8656C48.6356 37.6942 48.2401 37.6053 47.8397 37.6053H43.0207V32.1907C43.0207 31.4727 42.7355 30.7841 42.2277 30.2764C41.72 29.7687 41.0314 29.4834 40.3134 29.4834C39.9544 29.4834 39.6101 29.626 39.3562 29.8799C39.1024 30.1338 38.9598 30.4781 38.9598 30.8371V31.7399C38.9598 32.9115 38.5798 34.0514 37.8769 34.9887L35.9818 37.5146C35.2788 38.4518 34.8988 39.5918 34.8988 40.7633Z" fill="var(--fill-0, #062325)"/>
</g>
</g>
<defs>
<filter id="filter0_d_169_25" x="3.95526" y="2.54707" width="74.7812" height="79.6649" filterUnits="userSpaceOnUse" color-interpolation-filters="sRGB">
<feFlood flood-opacity="0" result="BackgroundImageFix"/>
<feColorMatrix in="SourceAlpha" type="matrix" values="0 0 0 0 0 0 0 0 0 0 0 0 0 0 0 0 0 0 127 0" result="hardAlpha"/>
<feOffset dx="2.06729" dy="4.13459"/>
<feColorMatrix type="matrix" values="0 0 0 0 1 0 0 0 0 1 0 0 0 0 1 0 0 0 1 0"/>
<feBlend mode="normal" in2="BackgroundImageFix" result="effect1_dropShadow_169_25"/>
<feBlend mode="normal" in="SourceGraphic" in2="effect1_dropShadow_169_25" result="shape"/>
</filter>
</defs>
</svg>
