<svg preserveAspectRatio="none" width="100%" height="100%" overflow="visible" style="display: block;" viewBox="0 0 318 209" fill="none" xmlns="http://www.w3.org/2000/svg">
<g id="file (2) 1">
<g id="Vector">
<path fill-rule="evenodd" clip-rule="evenodd" d="M86.9029 185.952C86.322 186.033 85.8202 185.544 85.8723 184.959C86.0538 182.926 86.1077 180.877 86.2334 178.837C87.0267 165.96 87.0144 153.064 87.2828 140.173C87.4453 132.369 88.8639 124.82 93.697 118.331C97.6734 112.992 102.369 108.592 108.871 106.504C109.306 106.365 109.708 106.12 110.355 105.816C109.404 105.284 108.596 104.876 107.833 104.397C104.301 102.177 101.138 99.5904 100.157 95.2678C99.4367 92.0899 99.9284 88.9803 101.378 86.0655C102.799 83.2088 104.68 80.6408 107.059 78.5401C111.878 74.2851 115.263 69.0135 118.407 63.4906C121.299 58.4111 124.774 53.7353 130.112 50.9312C139.402 46.0512 148.594 47.0974 157.602 51.7463C160.834 53.4147 163.722 55.6247 166.134 58.394C170.593 63.5124 171.62 69.4696 170.435 75.9808C169.917 78.8317 169.334 81.6644 168.499 84.4417C168.339 84.972 168.242 85.5209 168.042 86.3775C175.862 83.7175 182.609 86.433 189.304 89.4268C187.5 83.8711 186.617 77.9418 185.487 72.0702C184.392 66.3856 184.278 60.6576 185.21 54.9297C185.331 54.191 185.224 53.6392 184.581 53.1743C180.144 49.9683 181.06 44.3664 185.673 41.6813C187.884 40.3943 190.306 39.633 192.756 38.9759C200.192 36.9811 207.62 34.8416 215.427 35.1137C220.741 35.2989 226.003 36.1597 229.697 40.417C231.826 42.8715 234.226 44.9966 236.445 47.3238C239.698 50.735 239.872 55.0541 239.385 59.4326C238.407 68.2343 234.876 76.1642 230.913 83.9366C230.722 84.3107 230.545 84.6612 230.537 85.0977C230.439 90.0503 232.856 93.8462 237.399 95.8826C241.604 97.7673 245.729 99.7694 249.508 102.476C255.456 106.737 258.63 112.62 260.021 119.64C260.899 124.072 261.233 128.556 261.236 133.065C261.246 150.065 261.246 167.065 261.245 184.064C261.245 184.553 260.848 184.95 260.359 184.95C259.878 184.95 259.485 184.567 259.474 184.087C259.174 171.733 259.281 159.378 259.349 147.023C259.394 138.587 259.709 130.142 258.597 121.75C257.771 115.515 255.416 109.999 250.584 105.728C246.288 101.932 241.204 99.5107 236.041 97.2194C235.452 96.9577 234.896 96.4818 234.093 96.6463C233.213 98.2513 232.236 99.8344 231 101.238C227.324 105.412 223.228 109.012 217.742 110.584C213.758 111.725 211.057 110.575 208.971 107.002C208.185 105.655 207.558 104.23 207.108 102.74C206.847 101.876 206.444 101.685 205.632 102.057C203.891 102.853 202.138 103.622 200.37 104.354C199.669 104.644 199.503 105.044 199.602 105.792C199.815 107.387 199.751 108.988 199.528 110.592C199.185 113.06 198.587 115.461 199.377 118.044C200.019 120.141 199.344 122.286 197.772 123.944C195.798 126.026 193.352 127.17 190.464 127.155C189.861 127.152 189.49 127.246 189.176 127.732C188.36 128.998 187.375 130.125 186.357 131.235C185.143 132.557 185.692 134.474 187.383 134.995C189.423 135.624 191.31 136.582 193.17 137.61C193.532 137.81 193.816 138.32 194.336 138.066C194.336 135.908 194.318 133.788 194.349 131.668C194.357 131.098 194.494 130.394 195.206 130.397C195.938 130.4 196.006 131.105 196.02 131.682C196.052 133.081 195.959 134.489 196.089 135.877C196.226 137.347 195.891 138.985 196.77 140.248C198.6 142.881 199.82 145.757 200.76 149.054C201.897 153.159 201.981 157.404 202.342 161.735C202.734 161.619 203.031 161.561 203.302 161.446C206.873 159.924 210.38 158.27 213.843 156.516C214.72 156.072 215.332 155.477 215.792 154.616C217.526 151.367 219.029 148.015 220.345 144.578C223.01 137.616 225.313 130.517 228.253 123.66C228.536 122.999 228.919 122.376 229.305 121.767C229.505 121.452 229.855 121.251 230.245 121.432C230.678 121.634 230.818 122.027 230.692 122.474C230.595 122.82 230.424 123.146 230.293 123.483C228.381 128.405 226.516 133.346 224.547 138.244C222.213 144.051 220.342 150.051 217.301 155.566C216.645 156.755 215.849 157.621 214.605 158.202C207.2 161.663 199.833 165.206 192.418 168.643C190.941 169.327 190.576 170.13 191.099 171.662C192.453 175.627 193.636 179.653 194.381 183.78C194.64 185.212 195.347 185.39 196.543 185.195C200.367 184.571 204.206 184.039 208.023 183.375C215.114 182.143 222.117 180.567 228.748 177.655C231.614 176.397 233.939 174.492 235.688 171.874C238.11 168.248 240.261 164.462 242.053 160.496C245.89 152.006 249.975 143.619 252.984 134.775C253.148 134.293 253.295 133.659 253.953 133.762C254.673 133.875 254.5 134.545 254.448 135.03C254.387 135.59 254.286 136.161 254.092 136.687C253.092 139.407 252.138 142.149 251.017 144.819C247.068 154.228 243.039 163.598 237.587 172.275C235.506 175.586 232.71 178.001 229.145 179.562C225.485 181.165 221.688 182.348 217.809 183.265C210.738 184.937 203.546 185.942 196.229 187.104L180.495 189.956C177.234 190.488 173.883 190.211 170.595 189.751C168.822 189.566 164.511 188.803 161.46 187.238C159.791 185.942 157.806 186.505 155.719 186.08L150.991 185.63C150.268 185.909 148.588 186.048 147.838 186.083C145.458 186.069 143.057 186.254 140.703 185.998C133.367 185.2 126.059 184.147 118.837 182.613C113.14 181.402 107.974 179.189 104.377 173.961C99.2234 166.318 95.476 157.958 91.95 149.487C91.6056 148.659 90.9307 147.43 91.95 146.998C93.0772 146.521 93.287 147.964 93.5979 148.745C96.2238 155.346 99.3389 161.707 102.67 167.979C106.238 174.696 111.205 179.359 118.973 180.805C126.65 182.235 134.345 183.477 142.107 184.263C144.246 184.48 146.442 184.525 148.601 184.118C149.28 183.989 149.748 183.735 149.869 182.989C150.445 179.44 151.784 176.119 152.923 172.737C153.881 169.892 153.871 169.889 151.068 169.042L150.957 169.008C142.548 166.464 134.151 163.882 125.746 161.327C124.922 161.077 124.251 160.734 123.857 159.885C119.54 150.582 115.525 141.151 111.78 131.604C111.569 131.068 111.122 130.341 111.94 129.979C112.701 129.643 113.077 130.366 113.327 130.901C114.223 132.823 115.131 134.747 115.893 136.725C118.651 143.876 121.636 150.929 124.826 157.897C125.208 158.734 125.652 159.343 126.62 159.634C130.629 160.84 134.601 162.17 138.611 163.374C140.071 163.812 141.508 164.422 143.164 164.493C143.349 163.732 143.564 163.046 143.679 162.344C145.044 154.025 148.104 146.511 154.078 140.39C154.795 139.656 154.84 138.976 154.551 138.023C153.515 134.61 153.178 131.019 151.961 127.646C151.769 127.113 151.861 126.567 152.498 126.389C153.094 126.221 153.307 126.723 153.488 127.149L153.489 127.152C154.198 128.824 154.68 130.563 155.086 132.333C155.53 134.271 155.785 136.268 156.629 138.299C158.494 137.269 160.429 136.778 162.518 136.256C162.252 136.006 162.134 135.841 161.973 135.752C157.787 133.437 155.317 129.792 154.001 125.3C153.16 122.43 153.212 119.467 153.384 116.516C153.426 115.803 153.341 115.357 152.611 115.064C149.825 113.948 147.006 112.937 144.137 112.056C143.276 111.791 142.85 111.998 142.55 112.903C141.994 114.575 141.19 116.146 140.241 117.639C138.458 120.441 135.955 121.856 132.632 121.321C124.973 120.088 119.021 116.355 115.51 109.21C114.685 107.531 113.891 107.096 112.073 107.522C109.077 108.224 106.213 109.331 103.676 111.059C94.4594 117.338 89.9012 126.32 89.2879 137.27C88.874 144.661 89.0314 152.082 88.869 159.489C88.7624 164.353 88.6828 169.218 88.3223 174.075C88.0492 177.755 87.9099 181.444 87.6698 185.127C87.6423 185.549 87.3217 185.893 86.9029 185.952ZM186.476 64.1974C186.45 63.784 186.443 63.3694 186.427 62.9553C186.584 60.5553 186.656 58.436 187.033 56.34C187.208 55.3675 187.649 54.9251 188.62 55.2288C193.942 56.8943 199.042 55.8109 204.089 54.0039C207.018 52.955 209.82 51.6257 212.575 50.1872C213.068 49.9296 213.546 49.5996 214.157 49.6413C214.767 50.3509 214.472 51.1641 214.464 51.8975C214.415 55.9661 215.303 59.807 217.125 63.436C218.17 65.5182 219.722 67.1762 221.567 68.5514C222.84 69.5006 223.474 69.2935 223.959 67.7801C224.575 65.8562 225.597 64.3187 227.554 63.5791C229.646 62.7887 231.802 63.8562 232.491 65.9965C233.836 70.1679 231.591 75.1397 227.593 76.851C227.118 77.0544 226.634 77.2466 226.182 77.494C225.718 77.7479 225.24 78.0796 225.527 78.7104C225.833 79.3814 226.367 79.3779 226.954 79.0467C227.221 78.8961 227.507 78.7791 227.795 78.6413C228.406 79.159 228.138 79.8267 228.15 80.3973C228.221 83.8332 228.698 87.2004 229.761 90.4719C230.197 91.8105 230.796 93.0934 231.735 94.1453C232.58 95.0916 232.515 95.9598 231.865 96.9354C228.709 101.678 224.784 105.575 219.603 108.068C218.82 108.445 217.949 108.669 217.096 108.864C213.769 109.625 212.061 108.855 210.429 105.914C210.279 105.642 210.14 105.363 210.01 105.081C208.407 101.595 208.437 101.659 211.827 100.097C215.484 98.4111 218.439 95.869 220.505 92.3645C220.74 91.9657 220.936 91.5359 221.091 91.0997C221.241 90.681 221.182 90.266 220.761 90.0086C220.3 89.727 219.962 89.9981 219.694 90.3324C219.306 90.8168 218.963 91.3371 218.589 91.8334C216.075 95.1719 213.074 97.8287 208.969 99.0907C203.336 100.823 199.06 98.6984 195.233 94.6846C191.872 91.1598 190.112 86.9308 189.323 82.2626C188.307 76.2526 186.865 70.3068 186.476 64.1974ZM141.778 109.191C139.4 108.391 137.173 107.352 135.205 105.784C133.377 104.22 131.961 102.578 130.681 100.811C130.637 100.75 130.593 100.684 130.549 100.618C130.266 100.196 129.957 99.7357 129.369 100.114C128.774 100.496 129.035 101.164 129.297 101.658C130.939 104.755 133.309 107.16 136.327 108.926C137.8 109.788 139.367 110.449 141.079 110.977C140.384 113.695 139.18 116.068 137.405 118.129C136.542 119.131 135.329 119.465 134.033 119.408C126.789 119.092 121.455 115.565 117.617 109.559C117.318 109.09 117.041 108.575 117.109 107.816C122.337 107.147 123.654 103.064 124.517 98.7885C124.782 97.4733 125.03 96.1542 125.278 94.8352C125.766 92.2452 126.253 89.655 126.87 87.0929C127.147 85.9417 126.877 85.327 125.915 84.6509C123.104 82.6759 122.026 76.8402 123.844 73.8869C124.679 72.5296 125.848 71.5513 127.521 71.7573C129.303 71.9766 130.133 73.2126 130.396 74.942C130.56 76.0137 130.833 76.6937 132.334 76.105C133.613 75.6033 134.993 75.562 136.379 75.5205C137.182 75.4965 137.987 75.4724 138.775 75.3587C146.083 74.3049 152.96 72.1043 159.054 67.8036C159.683 67.3597 160.301 66.8468 160.775 66.2476C161.582 65.2263 162.19 65.4937 162.829 66.3731C164.395 68.5264 165.299 70.9718 165.4 73.5892C165.773 83.2279 163.099 92.1137 158.243 100.337C156.365 103.518 153.643 106.057 150.631 108.214C147.882 110.182 144.908 110.243 141.778 109.191ZM167.03 140.051C167.926 142.769 169.687 144.43 172.618 144.679C178.341 144.753 182.217 142.043 185.043 137.638C185.675 136.652 186.16 136.463 187.25 136.852C191.667 138.427 195.566 140.58 197.532 145.176C198.699 147.904 199.411 150.745 199.906 153.668C200.143 155.068 200.177 156.478 200.211 157.887C200.243 159.164 200.274 160.441 200.456 161.709C200.568 162.486 200.231 162.992 199.537 163.317C197.94 164.065 196.379 164.665 194.497 164.482C190.794 164.123 187.149 163.516 183.394 162.689C183.52 161.855 183.647 161.027 183.773 160.203C183.773 160.199 183.774 160.194 183.775 160.19L183.775 160.187L183.775 160.187L183.775 160.186L183.775 160.185L183.775 160.184C183.795 160.053 183.815 159.922 183.835 159.791C184.136 157.821 184.432 155.874 184.712 153.924C184.851 152.953 184.939 151.97 184.968 150.989C184.982 150.498 184.965 149.859 184.249 149.815C183.64 149.778 183.512 150.31 183.434 150.769C183.128 152.567 182.834 154.367 182.539 156.167C182.425 156.864 182.31 157.561 182.196 158.258C182.111 158.773 182.027 159.287 181.943 159.802L181.943 159.805L181.942 159.806L181.942 159.807L181.942 159.807L181.942 159.808C181.927 159.9 181.912 159.991 181.897 160.083C181.672 161.462 181.446 162.841 181.203 164.216C181.104 164.775 180.96 165.345 180.19 165.378C179.556 165.404 179.139 165.263 178.892 164.579C178.552 163.639 177.643 163.408 176.775 163.212C173.05 162.375 169.489 163.257 165.949 164.282C163.109 165.103 160.415 166.298 157.754 167.574C157.723 167.588 157.693 167.603 157.662 167.618C157.62 167.638 157.578 167.658 157.536 167.679L157.534 167.68C156.907 167.982 156.271 168.29 155.605 168.451C154.179 168.795 153.35 168.037 153.598 166.674C154.329 162.652 155.072 158.633 155.815 154.614C156.031 153.45 156.246 152.286 156.461 151.122C156.472 151.059 156.491 150.997 156.51 150.936C156.537 150.847 156.564 150.759 156.569 150.67C156.577 150.528 156.601 150.376 156.625 150.22C156.718 149.623 156.817 148.99 156.038 148.822C155.162 148.633 155.035 149.366 154.924 150.004C154.906 150.102 154.89 150.198 154.871 150.288C154.455 152.259 154.051 154.233 153.647 156.207C153.647 156.208 153.647 156.21 153.646 156.211C153.45 157.173 153.253 158.134 153.055 159.095C153.022 159.254 152.979 159.411 152.922 159.624C152.904 159.69 152.885 159.76 152.864 159.838C152.847 159.902 152.829 159.97 152.81 160.045C150.705 159.315 148.748 158.461 146.832 157.481C146.818 156.518 147.135 155.698 147.447 154.894C147.467 154.841 147.487 154.789 147.507 154.737C147.526 154.688 147.545 154.638 147.564 154.588C149.206 150.26 151.214 146.15 154.329 142.638C157.281 139.31 161.247 138.3 165.338 137.477C165.949 137.354 166.18 137.656 166.348 138.153C166.45 138.456 166.561 138.755 166.673 139.055C166.689 139.097 166.704 139.138 166.719 139.18C166.827 139.469 166.933 139.759 167.03 140.051ZM187.981 125.98C186.271 129.087 183.64 131.337 180.688 133.229C175.709 136.125 170.528 136.601 165.352 135.197C159.233 133.537 155.151 127.467 155.072 120.796C155.031 117.246 155.762 113.822 156.496 110.39C156.52 110.277 156.544 110.163 156.569 110.049C156.739 109.253 156.907 108.456 157.065 107.657C157.639 104.749 158.833 102.345 160.765 99.9906C160.979 100.305 161.184 100.61 161.384 100.908L161.385 100.909L161.385 100.91C161.414 100.953 161.444 100.996 161.472 101.039C161.905 101.682 162.317 102.293 162.744 102.893C163.103 103.397 163.486 103.894 163.924 104.328C163.986 104.389 164.048 104.455 164.111 104.522C164.477 104.91 164.871 105.328 165.487 105.101C166.107 104.873 166.147 104.297 166.185 103.747C166.191 103.668 166.196 103.589 166.203 103.512C166.212 103.422 166.22 103.331 166.229 103.24C166.366 101.757 166.503 100.271 166.751 98.7291C168.097 101.896 170.391 103.965 173.551 105.132C176.535 106.234 176.701 106.184 177.703 103.285C178.024 103.122 178.217 103.315 178.4 103.499C178.432 103.531 178.463 103.562 178.495 103.591C180.556 105.499 183.176 106.131 185.784 106.76L185.803 106.765C186.811 107.008 187.254 107.466 187.223 108.579C187.147 111.365 188.266 113.822 189.583 116.194C190.136 117.188 190.721 117.309 191.395 116.25C192.403 114.666 193.706 114.043 195.106 114.393C196.549 114.754 197.557 116.088 197.735 117.872C198.182 122.369 194.241 125.975 189.736 125.11C188.795 124.929 188.458 125.112 187.981 125.98ZM170.558 169.752C169.627 169.802 168.693 169.787 167.807 169.422C167.04 168.71 167.603 168.565 167.973 168.47C167.99 168.466 168.006 168.462 168.021 168.458C168.037 168.454 168.051 168.45 168.065 168.446C169.009 168.183 169.981 168.082 170.969 168.018C171.254 168 171.54 167.982 171.826 167.965C173.76 167.846 175.703 167.726 177.595 167.365C180.239 166.859 182.47 167.781 184.794 168.741L184.899 168.785C188.005 170.067 189.816 172.147 190.469 175.541C190.738 176.936 191.135 178.307 191.533 179.683C191.898 180.942 192.263 182.205 192.532 183.492C192.799 184.77 192.458 185.238 191.314 185.636C185.778 187.564 180.1 188.408 174.243 188.159C171.298 188.033 168.374 187.752 165.035 187.341C166.682 186.709 168.011 186.521 169.356 186.367C171.048 186.174 172.738 185.957 174.424 185.717L174.472 185.71C175.067 185.626 175.804 185.522 175.702 184.705C175.611 183.974 174.861 183.996 174.316 184.056C172.551 184.252 170.787 184.463 169.023 184.677C168.772 184.708 168.52 184.738 168.268 184.769L168.268 184.769L168.267 184.769L168.266 184.769L168.265 184.769L168.265 184.769L168.264 184.769C167.207 184.898 166.149 185.026 165.091 185.151C164.961 185.167 164.831 185.185 164.7 185.203C163.834 185.325 162.935 185.452 161.911 184.765C164.034 183.392 166.206 182.651 168.428 182.059C170.129 181.605 171.867 181.36 173.643 181.432C173.649 181.432 173.656 181.432 173.663 181.433C173.674 181.433 173.684 181.434 173.695 181.434C173.757 181.438 173.822 181.443 173.888 181.449C174.387 181.491 174.984 181.54 175.068 180.895C175.185 180.002 174.323 179.843 173.682 179.762C171.49 179.487 169.356 179.964 167.24 180.442C165.625 180.806 164.056 181.345 162.569 182.09C161.597 182.577 160.615 182.554 159.508 182.277C159.881 180.91 160.845 180.237 161.947 179.799C165.407 178.422 168.891 177.13 172.688 176.999C172.781 176.996 172.882 176.995 172.987 176.993C173.788 176.985 174.828 176.973 174.801 175.991C174.773 174.923 173.99 175.091 173.291 175.24C173.077 175.286 172.871 175.33 172.697 175.336C169.469 175.456 166.368 176.235 163.346 177.356C163.235 177.397 163.125 177.438 163.014 177.48C163.013 177.48 163.011 177.481 163.009 177.482C161.679 177.979 160.336 178.482 158.744 178.415C159.016 177.187 159.869 176.574 160.684 175.989C160.754 175.939 160.823 175.889 160.891 175.839C163.864 173.677 167.371 172.897 170.86 172.12L170.992 172.091C172.124 171.839 173.27 171.652 174.416 171.466C175.053 171.362 175.691 171.258 176.327 171.143L176.362 171.137C177.02 171.018 177.817 170.874 177.684 170.002C177.575 169.289 176.951 169.347 176.416 169.397C176.316 169.406 176.22 169.415 176.131 169.418C175.043 169.463 173.957 169.535 172.871 169.608L172.869 169.608C172.099 169.659 171.329 169.71 170.558 169.752ZM156.531 170.333C158.347 169.49 160.165 168.65 161.982 167.81C161.986 167.808 161.99 167.806 161.994 167.804C162.66 167.496 163.325 167.189 163.99 166.881C168.285 165.495 172.38 164.407 176.737 165.322C176.048 165.408 175.359 165.493 174.67 165.579C174.668 165.579 174.667 165.579 174.665 165.579C172.785 165.813 170.904 166.046 169.026 166.292C168.414 166.372 167.793 166.473 167.212 166.669C166.211 167.005 165.212 167.478 165.021 168.642C164.853 169.661 165.582 170.187 166.437 170.802C166.563 170.894 166.692 170.987 166.822 171.084C166.535 171.19 166.262 171.288 165.999 171.382C165.457 171.576 164.958 171.755 164.471 171.96C161.692 173.13 158.942 174.365 157.231 177.045C156.218 178.632 156.39 179.294 157.951 180.352C157.168 182.949 157.24 183.19 159.185 184.399C157.039 184.521 154.948 184.261 152.86 183.967C152.04 183.851 151.599 183.577 151.831 182.534C152.412 179.92 153.266 177.393 154.12 174.867C154.49 173.77 154.861 172.674 155.209 171.57C155.411 170.93 155.958 170.599 156.531 170.333ZM168.273 137.597C171.322 138.144 174.238 137.656 177.126 136.904C179.123 136.323 180.758 135.35 182.409 134.367C182.865 134.095 183.322 133.823 183.789 133.558C184.344 134.499 184.123 135.309 183.73 136.104C181.607 140.411 178.031 142.553 173.352 142.89C170.674 143.083 169.049 141.358 168.273 137.597ZM152.359 162.993C152.283 163.569 152.183 164.142 152.084 164.714C152.042 164.954 152 165.193 151.961 165.433C151.91 167.122 151.284 167.474 149.956 166.956C148.709 166.469 147.42 166.077 146.125 165.738C145.196 165.495 144.827 165.079 145.1 164.093C145.382 163.069 145.624 162.035 145.89 160.894C146.01 160.381 146.135 159.846 146.271 159.281C146.828 159.518 147.375 159.75 147.915 159.978L147.916 159.979C149.316 160.571 150.665 161.143 152.002 161.743C152.496 161.965 152.425 162.493 152.366 162.937C152.364 162.956 152.361 162.974 152.359 162.993ZM193.143 166.284L190.573 167.645C189.358 168.869 188.305 168.749 187.093 168.002C186.324 167.529 185.504 167.142 184.682 166.754C184.288 166.568 183.893 166.382 183.505 166.186C183.472 166.17 183.438 166.153 183.404 166.137C183.07 165.975 182.733 165.811 182.884 165.289C183.048 164.719 183.445 164.586 183.958 164.675C186.168 165.059 188.378 165.447 190.684 165.852C190.686 165.852 190.688 165.853 190.69 165.853C190.835 165.878 190.98 165.904 191.125 165.929C191.473 165.99 191.822 166.052 192.175 166.114C192.495 166.17 192.818 166.227 193.143 166.284ZM198.874 100.726C199.21 100.418 199.481 100.559 199.747 100.698C199.882 100.768 200.015 100.837 200.154 100.847C200.817 101.121 201.279 101.331 201.877 101.601L201.878 101.601C201.144 102.303 200.335 102.531 199.434 102.758C199.018 102.111 198.909 101.43 198.874 100.726Z" fill="var(--fill-0, black)"/>
<path fill-rule="evenodd" clip-rule="evenodd" d="M199.747 100.698C199.882 100.768 200.015 100.837 200.154 100.847C200.817 101.121 201.279 101.331 201.877 101.601L201.878 101.601C201.144 102.303 200.335 102.531 199.434 102.758C199.018 102.111 198.909 101.43 198.874 100.726C199.21 100.418 199.481 100.559 199.747 100.698Z" fill="var(--fill-0, black)"/>
</g>
<path id="Vector_2" d="M197.23 75.8472C196.834 78.0201 196.58 80.0659 196.673 82.148C196.752 83.9009 197.211 84.3301 198.991 84.1111C199.764 84.016 200.531 83.9142 201.305 84.0338C201.729 84.0993 202.138 84.2364 202.197 84.7441C202.266 85.3367 201.874 85.559 201.375 85.6718C199.843 86.0184 198.29 86.0162 196.76 85.7573C195.959 85.6216 195.467 85.0064 195.213 84.1831C194.821 82.9117 194.835 81.6069 194.956 80.333C195.198 77.7669 195.271 75.1748 195.892 72.6543C195.966 72.3542 196.056 72.0532 196.182 71.7721C196.385 71.3195 196.7 70.9546 197.253 71.0874C197.829 71.2255 197.909 71.7261 197.841 72.2021C197.671 73.3761 197.45 74.5427 197.23 75.8472Z" fill="var(--fill-0, black)"/>
<path id="Vector_3" d="M205.385 90.6966C203.259 91.5894 201.161 92.0874 198.969 92.0862C198.363 92.0858 197.731 91.9686 197.157 91.7698C196.532 91.5531 195.756 91.2098 195.986 90.3869C196.228 89.5163 196.991 90.0228 197.569 90.0533C200.822 90.2251 203.974 90.0273 206.558 87.6432C206.981 87.2535 207.55 86.6758 208.157 87.3396C208.777 88.0168 208.243 88.5993 207.782 89.0849C207.137 89.765 206.341 90.2508 205.385 90.6966Z" fill="var(--fill-0, black)"/>
<path id="Vector_4" d="M207.086 65.0346C208.025 65.1832 208.837 65.2902 209.634 65.4696C210.067 65.5673 210.351 65.8985 210.295 66.3791C210.231 66.9306 209.814 67.2513 209.332 67.173C207.435 66.8649 205.558 66.975 203.672 67.2401C203.257 67.2985 202.813 67.1934 202.685 66.7018C202.544 66.1579 202.864 65.8161 203.329 65.6196C204.486 65.1298 205.732 65.1507 207.086 65.0346Z" fill="var(--fill-0, black)"/>
<path id="Vector_5" d="M203.365 73.303C203.886 72.7321 204.331 72.9189 204.771 73.2744C205.991 74.2611 207.212 74.1738 208.457 73.3045C208.934 72.9716 209.492 72.3146 210.032 73.0598C210.546 73.7706 209.901 74.3094 209.42 74.7589C207.986 76.0977 205.55 76.1905 204.009 75.0067C203.473 74.595 203.2 74.0862 203.365 73.303Z" fill="var(--fill-0, black)"/>
<path id="Vector_6" d="M187.305 67.6273C189.274 66.355 191.309 66.1855 193.41 66.86C194.006 67.0513 194.606 67.4603 194.406 68.2069C194.188 69.0172 193.516 68.6322 192.984 68.5683C191.597 68.4019 190.225 68.4325 188.848 68.7352C188.079 68.9042 187.226 68.9677 187.305 67.6273Z" fill="var(--fill-0, black)"/>
<path id="Vector_7" d="M193.106 74.628C193.695 74.3555 194.13 74.3807 194.381 74.9075C194.55 75.2644 194.421 75.6214 194.185 75.9151C193.548 76.7074 192.7 77.0464 191.728 76.7965C190.567 76.4982 189.456 76.047 189.071 74.7283C188.983 74.4294 189.033 74.1018 189.325 73.8978C189.688 73.6437 190.021 73.8204 190.313 74.037C191.122 74.6368 191.943 75.145 193.106 74.628Z" fill="var(--fill-0, black)"/>
<path id="Vector_8" d="M152.37 88.0325C152.377 87.2074 152.365 86.534 152.395 85.8625C152.422 85.2763 152.519 84.6062 153.259 84.6248C153.987 84.6431 154.052 85.3362 154.097 85.9047C154.142 86.4708 154.109 87.0426 154.129 87.6112C154.195 89.5227 154.382 91.4378 154.317 93.3445C154.199 96.8291 152.789 97.3299 149.438 97.4211C148.924 97.4351 148.491 97.2043 148.466 96.6393C148.44 96.0664 148.91 95.8763 149.374 95.7467C152.369 94.9101 152.37 94.9113 152.37 91.7552C152.371 90.5651 152.37 89.375 152.37 88.0325Z" fill="var(--fill-0, black)"/>
<path id="Vector_9" d="M140.616 97.1096C141.046 96.2206 141.574 96.1179 142.003 96.8983C143.853 100.262 146.886 101.284 150.461 101.314C151.114 101.32 152.012 101.245 152.047 102.142C152.081 103.02 151.187 103.084 150.534 103.119C147.017 103.306 143.876 102.455 141.523 99.6282C140.958 98.9491 140.49 98.1926 140.616 97.1096Z" fill="var(--fill-0, black)"/>
<path id="Vector_10" d="M147.314 84.3922C147.922 85.2201 147.681 85.8094 147.001 86.3119C145.115 87.7068 141.884 86.5387 141.351 84.2683C141.252 83.8478 141.208 83.4256 141.601 83.1415C142.008 82.8477 142.424 82.9585 142.672 83.3574C143.737 85.0722 145.055 85.5169 146.774 84.273C146.864 84.2082 147.069 84.3038 147.314 84.3922Z" fill="var(--fill-0, black)"/>
<path id="Vector_11" d="M147.352 75.2216C148.174 75.4693 148.877 75.6535 149.538 75.9373C149.981 76.1278 150.314 76.5087 150.111 77.0569C149.931 77.5444 149.46 77.5882 149.061 77.4831C147.245 77.0045 145.401 76.857 143.531 76.9016C143.039 76.9133 142.558 76.7764 142.491 76.1937C142.409 75.4814 143.012 75.2931 143.498 75.2611C144.733 75.1795 145.976 75.213 147.352 75.2216Z" fill="var(--fill-0, black)"/>
<path id="Vector_12" d="M159.925 80.289C159.175 79.88 157.773 80.1053 158.087 78.9982C158.412 77.8563 159.627 78.3244 160.49 78.5693C161.828 78.949 163.126 79.4523 164.114 80.4967C164.467 80.8693 164.851 81.3153 164.433 81.8476C164.003 82.3968 163.503 82.0827 163.064 81.8113C162.103 81.2164 161.146 80.6169 159.925 80.289Z" fill="var(--fill-0, black)"/>
<path id="Vector_13" d="M158.163 88.223C158.648 89.0079 159.254 88.8426 159.87 88.6699C160.267 88.5588 160.592 88.6918 160.786 89.0559C161.023 89.4998 160.836 89.8881 160.498 90.157C159.526 90.9282 158.473 90.9127 157.483 90.2409C156.498 89.5734 156.134 88.5779 156.359 87.4051C156.419 87.0915 156.677 86.808 157.004 86.8113C157.837 86.8195 157.841 87.5967 158.163 88.223Z" fill="var(--fill-0, black)"/>
<path id="Vector_14" d="M164.758 122.335C163.823 121.169 163.764 120.009 164.227 118.745C164.786 117.221 165.741 115.926 166.562 114.554C166.827 114.112 167.232 113.677 167.835 114.01C168.518 114.386 168.286 114.96 168.041 115.496C167.46 116.763 166.509 117.833 166.113 119.202C165.61 120.942 165.906 121.445 167.664 121.648C168.169 121.706 168.62 121.794 168.666 122.382C168.71 122.953 168.287 123.178 167.811 123.319C166.625 123.669 165.711 123.12 164.758 122.335Z" fill="var(--fill-0, black)"/>
<path id="Vector_15" d="M162.907 127.046C162.635 126.79 162.412 126.634 162.276 126.422C161.878 125.802 161.056 125.121 161.835 124.409C162.603 123.707 163.113 124.661 163.615 125.09C165.445 126.655 167.427 127.316 169.755 126.298C170.038 126.175 170.339 126.091 170.638 126.009C171.144 125.869 171.723 125.709 171.985 126.327C172.249 126.95 171.719 127.281 171.272 127.522C168.439 129.047 165.663 129.116 162.907 127.046Z" fill="var(--fill-0, black)"/>
<path id="Vector_16" d="M181.254 111.212C181.463 111.839 181.316 112.275 180.849 112.514C180.318 112.785 179.982 112.383 179.675 112.027C178.551 110.725 177.127 110.141 175.419 110.183C174.838 110.197 174.193 110.152 174.132 109.388C174.064 108.538 174.787 108.424 175.383 108.294C177.2 107.898 180.05 109.288 181.254 111.212Z" fill="var(--fill-0, black)"/>
<path id="Vector_17" d="M174.675 119.086C173.647 118.603 172.882 118.01 172.632 116.971C172.523 116.517 172.527 116.018 173.051 115.766C173.504 115.547 173.872 115.779 174.125 116.122C175.216 117.596 176.403 117.99 177.839 116.563C178.166 116.238 178.573 116.17 178.906 116.592C179.275 117.059 179.205 117.546 178.925 118.033C178.248 119.21 176.672 119.631 174.675 119.086Z" fill="var(--fill-0, black)"/>
<path id="Vector_18" d="M160.385 106.418C162.422 105.701 164.049 106.261 165.458 107.613C165.9 108.037 166.446 108.573 165.956 109.215C165.394 109.951 164.832 109.345 164.383 108.968C163.255 108.021 162.081 107.643 160.683 108.378C160.178 108.643 159.542 109.238 159.068 108.454C158.638 107.742 159.156 107.19 159.729 106.766C159.893 106.645 160.089 106.566 160.385 106.418Z" fill="var(--fill-0, black)"/>
<path id="Vector_19" d="M159.614 113.502C160.387 114.899 161.364 115.376 162.753 114.608C163.151 114.388 163.565 114.324 163.858 114.744C164.167 115.188 164.071 115.664 163.701 116.015C162.751 116.918 161.624 117.141 160.404 116.678C159.195 116.219 158.175 115.541 158.023 114.096C157.977 113.657 158.136 113.269 158.527 113.031C159.007 112.74 159.294 113.047 159.614 113.502Z" fill="var(--fill-0, black)"/>
</g>
</svg>
